;TYPE=PLATED
;Layer: PTH_Through_Via
;EasyEDA Pro Client v2.1.64.d1969c9c.217bcf, 2025-01-15 01:44:43
;Gerber Generator version 0.3
M48
METRIC,LZ,000.00000
;Hole size 1 = 0.30500 METRIC
T01C0.30500
%
G05
G90
T01
X02537648Y-01084674
X02537648Y01915072
X02537648Y04914818
X06037394Y-01084674
X06037394Y01915072
X06037394Y04914818
X02603137Y-01084674
X02603137Y01915072
X02603137Y04914818
X06102883Y-01084674
X06102883Y01915072
X06102883Y04914818
X02672511Y-01084674
X02672511Y01915072
X02672511Y04914818
X06172257Y-01084674
X06172257Y01915072
X06172257Y04914818
X02740848Y-00856074
X02740848Y02143672
X02740848Y05143418
X06240594Y-00856074
X06240594Y02143672
X06240594Y05143418
X02823897Y-00856074
X02823897Y02143672
X02823897Y05143418
X06323643Y-00856074
X06323643Y02143672
X06323643Y05143418
X02931348Y-00856074
X02931348Y02143672
X02931348Y05143418
X06431094Y-00856074
X06431094Y02143672
X06431094Y05143418
X03045648Y-00856074
X03045648Y02143672
X03045648Y05143418
X06545394Y-00856074
X06545394Y02143672
X06545394Y05143418
X02740848Y-00741774
X02740848Y02257972
X02740848Y05257718
X06240594Y-00741774
X06240594Y02257972
X06240594Y05257718
X02740848Y-00633130
X02740848Y02366616
X02740848Y05366362
X06240594Y-00633130
X06240594Y02366616
X06240594Y05366362
X02740848Y-00494876
X02740848Y02504870
X02740848Y05504616
X06240594Y-00494876
X06240594Y02504870
X06240594Y05504616
X02829748Y-00740941
X02829748Y02258805
X02829748Y05258552
X06329494Y-00740941
X06329494Y02258805
X06329494Y05258552
X02829748Y-00632297
X02829748Y02367449
X02829748Y05367195
X06329494Y-00632297
X06329494Y02367449
X06329494Y05367195
X02829748Y-00494043
X02829748Y02505703
X02829748Y05505449
X06329494Y-00494043
X06329494Y02505703
X06329494Y05505449
X02931348Y-00741774
X02931348Y02257972
X02931348Y05257718
X06431094Y-00741774
X06431094Y02257972
X06431094Y05257718
X02931348Y-00627474
X02931348Y02372272
X02931348Y05372018
X06431094Y-00627474
X06431094Y02372272
X06431094Y05372018
X03048000Y-00749300
X03048000Y02250446
X03048000Y05250192
X06547746Y-00749300
X06547746Y02250446
X06547746Y05250192
X02639248Y-00500474
X02639248Y02499272
X02639248Y05499018
X06138994Y-00500474
X06138994Y02499272
X06138994Y05499018
X02639248Y-00856074
X02639248Y02143672
X02639248Y05143418
X06138994Y-00856074
X06138994Y02143672
X06138994Y05143418
X02639248Y-00741774
X02639248Y02257972
X02639248Y05257718
X06138994Y-00741774
X06138994Y02257972
X06138994Y05257718
X02639248Y-00627474
X02639248Y02372272
X02639248Y05372018
X06138994Y-00627474
X06138994Y02372272
X06138994Y05372018
X01140648Y-01795874
X01140648Y01203872
X01140648Y04203618
X04640394Y-01795874
X04640394Y01203872
X04640394Y04203618
X01293048Y-00538574
X01293048Y02461172
X01293048Y05460918
X04792794Y-00538574
X04792794Y02461172
X04792794Y05460918
X02029648Y-02062574
X02029648Y00937172
X02029648Y03936918
X05529394Y-02062574
X05529394Y00937172
X05529394Y03936918
X01951803Y-02062574
X01951803Y00937172
X01951803Y03936918
X05451549Y-02062574
X05451549Y00937172
X05451549Y03936918
X00743295Y-00668542
X00743295Y02331204
X00743295Y05330950
X04243041Y-00668542
X04243041Y02331204
X04243041Y05330950
X00668208Y-01707962
X00668208Y01291784
X00668208Y04291530
X04167954Y-01707962
X04167954Y01291784
X04167954Y04291530
X00202406Y-01886134
X00202406Y01113612
X00202406Y04113358
X03702152Y-01886134
X03702152Y01113612
X03702152Y04113358
X01353697Y-01705264
X01353697Y01294482
X01353697Y04294228
X04853443Y-01705264
X04853443Y01294482
X04853443Y04294228
X01104900Y-01371600
X01104900Y01628146
X01104900Y04627892
X04604646Y-01371600
X04604646Y01628146
X04604646Y04627892
X02606926Y-01516479
X02606926Y01483267
X02606926Y04483013
X06106672Y-01516479
X06106672Y01483267
X06106672Y04483013
X02573982Y-01573796
X02573982Y01425950
X02573982Y04425696
X06073728Y-01573796
X06073728Y01425950
X06073728Y04425696
X02608761Y-01633095
X02608761Y01366651
X02608761Y04366397
X06108507Y-01633095
X06108507Y01366651
X06108507Y04366397
X02579561Y-01692394
X02579561Y01307352
X02579561Y04307099
X06079307Y-01692394
X06079307Y01307352
X06079307Y04307099
X03136762Y-02136668
X03136762Y00863079
X03136762Y03862825
X06636508Y-02136668
X06636508Y00863079
X06636508Y03862825
X02917406Y-02144596
X02917406Y00855150
X02917406Y03854896
X06417152Y-02144596
X06417152Y00855150
X06417152Y03854896
X02692763Y-02149221
X02692763Y00850525
X02692763Y03850271
X06192510Y-02149221
X06192510Y00850525
X06192510Y03850271
X02793192Y-02079186
X02793192Y00920561
X02793192Y03920307
X06292938Y-02079186
X06292938Y00920561
X06292938Y03920307
X03036994Y-02073900
X03036994Y00925846
X03036994Y03925592
X06536741Y-02073900
X06536741Y00925846
X06536741Y03925592
X01930400Y-01206500
X01930400Y01793246
X01930400Y04792992
X05430146Y-01206500
X05430146Y01793246
X05430146Y04792992
X00990600Y-01435100
X00990600Y01564646
X00990600Y04564392
X04490346Y-01435100
X04490346Y01564646
X04490346Y04564392
X01282700Y-02159000
X01282700Y00840746
X01282700Y03840492
X04782446Y-02159000
X04782446Y00840746
X04782446Y03840492
M30