;TYPE=PLATED
;Layer: PTH_Through
;EasyEDA Pro Client v2.1.64.d1969c9c.217bcf, 2025-01-15 01:44:43
;Gerber Generator version 0.3
M48
METRIC,LZ,000.00000
;Hole size 1 = 0.30500 METRIC
T01C0.30500
;Hole size 2 = 0.40000 METRIC
T02C0.40000
;Hole size 3 = 1.00000 METRIC
T03C1.00000
;Hole size 4 = 1.20000 METRIC
T04C1.20000
;Hole size 5 = 3.20000 METRIC
T05C3.20000
%
G05
G90
T01
X02537648Y-01084674
X02537648Y01915072
X02537648Y04914818
X06037394Y-01084674
X06037394Y01915072
X06037394Y04914818
X02603137Y-01084674
X02603137Y01915072
X02603137Y04914818
X06102883Y-01084674
X06102883Y01915072
X06102883Y04914818
X02672511Y-01084674
X02672511Y01915072
X02672511Y04914818
X06172257Y-01084674
X06172257Y01915072
X06172257Y04914818
X02740848Y-00856074
X02740848Y02143672
X02740848Y05143418
X06240594Y-00856074
X06240594Y02143672
X06240594Y05143418
X02823897Y-00856074
X02823897Y02143672
X02823897Y05143418
X06323643Y-00856074
X06323643Y02143672
X06323643Y05143418
X02931348Y-00856074
X02931348Y02143672
X02931348Y05143418
X06431094Y-00856074
X06431094Y02143672
X06431094Y05143418
X03045648Y-00856074
X03045648Y02143672
X03045648Y05143418
X06545394Y-00856074
X06545394Y02143672
X06545394Y05143418
X02740848Y-00741774
X02740848Y02257972
X02740848Y05257718
X06240594Y-00741774
X06240594Y02257972
X06240594Y05257718
X02740848Y-00633130
X02740848Y02366616
X02740848Y05366362
X06240594Y-00633130
X06240594Y02366616
X06240594Y05366362
X02740848Y-00494876
X02740848Y02504870
X02740848Y05504616
X06240594Y-00494876
X06240594Y02504870
X06240594Y05504616
X02829748Y-00740941
X02829748Y02258805
X02829748Y05258552
X06329494Y-00740941
X06329494Y02258805
X06329494Y05258552
X02829748Y-00632297
X02829748Y02367449
X02829748Y05367195
X06329494Y-00632297
X06329494Y02367449
X06329494Y05367195
X02829748Y-00494043
X02829748Y02505703
X02829748Y05505449
X06329494Y-00494043
X06329494Y02505703
X06329494Y05505449
X02931348Y-00741774
X02931348Y02257972
X02931348Y05257718
X06431094Y-00741774
X06431094Y02257972
X06431094Y05257718
X02931348Y-00627474
X02931348Y02372272
X02931348Y05372018
X06431094Y-00627474
X06431094Y02372272
X06431094Y05372018
X03048000Y-00749300
X03048000Y02250446
X03048000Y05250192
X06547746Y-00749300
X06547746Y02250446
X06547746Y05250192
X02639248Y-00500474
X02639248Y02499272
X02639248Y05499018
X06138994Y-00500474
X06138994Y02499272
X06138994Y05499018
X02639248Y-00856074
X02639248Y02143672
X02639248Y05143418
X06138994Y-00856074
X06138994Y02143672
X06138994Y05143418
X02639248Y-00741774
X02639248Y02257972
X02639248Y05257718
X06138994Y-00741774
X06138994Y02257972
X06138994Y05257718
X02639248Y-00627474
X02639248Y02372272
X02639248Y05372018
X06138994Y-00627474
X06138994Y02372272
X06138994Y05372018
X01140648Y-01795874
X01140648Y01203872
X01140648Y04203618
X04640394Y-01795874
X04640394Y01203872
X04640394Y04203618
X01293048Y-00538574
X01293048Y02461172
X01293048Y05460918
X04792794Y-00538574
X04792794Y02461172
X04792794Y05460918
X02029648Y-02062574
X02029648Y00937172
X02029648Y03936918
X05529394Y-02062574
X05529394Y00937172
X05529394Y03936918
X01951803Y-02062574
X01951803Y00937172
X01951803Y03936918
X05451549Y-02062574
X05451549Y00937172
X05451549Y03936918
X00743295Y-00668542
X00743295Y02331204
X00743295Y05330950
X04243041Y-00668542
X04243041Y02331204
X04243041Y05330950
X00668208Y-01707962
X00668208Y01291784
X00668208Y04291530
X04167954Y-01707962
X04167954Y01291784
X04167954Y04291530
X00202406Y-01886134
X00202406Y01113612
X00202406Y04113358
X03702152Y-01886134
X03702152Y01113612
X03702152Y04113358
X01353697Y-01705264
X01353697Y01294482
X01353697Y04294228
X04853443Y-01705264
X04853443Y01294482
X04853443Y04294228
X01104900Y-01371600
X01104900Y01628146
X01104900Y04627892
X04604646Y-01371600
X04604646Y01628146
X04604646Y04627892
X02606926Y-01516479
X02606926Y01483267
X02606926Y04483013
X06106672Y-01516479
X06106672Y01483267
X06106672Y04483013
X02573982Y-01573796
X02573982Y01425950
X02573982Y04425696
X06073728Y-01573796
X06073728Y01425950
X06073728Y04425696
X02608761Y-01633095
X02608761Y01366651
X02608761Y04366397
X06108507Y-01633095
X06108507Y01366651
X06108507Y04366397
X02579561Y-01692394
X02579561Y01307352
X02579561Y04307099
X06079307Y-01692394
X06079307Y01307352
X06079307Y04307099
X03136762Y-02136668
X03136762Y00863079
X03136762Y03862825
X06636508Y-02136668
X06636508Y00863079
X06636508Y03862825
X02917406Y-02144596
X02917406Y00855150
X02917406Y03854896
X06417152Y-02144596
X06417152Y00855150
X06417152Y03854896
X02692763Y-02149221
X02692763Y00850525
X02692763Y03850271
X06192510Y-02149221
X06192510Y00850525
X06192510Y03850271
X02793192Y-02079186
X02793192Y00920561
X02793192Y03920307
X06292938Y-02079186
X06292938Y00920561
X06292938Y03920307
X03036994Y-02073900
X03036994Y00925846
X03036994Y03925592
X06536741Y-02073900
X06536741Y00925846
X06536741Y03925592
X01930400Y-01206500
X01930400Y01793246
X01930400Y04792992
X05430146Y-01206500
X05430146Y01793246
X05430146Y04792992
X00990600Y-01435100
X00990600Y01564646
X00990600Y04564392
X04490346Y-01435100
X04490346Y01564646
X04490346Y04564392
X01282700Y-02159000
X01282700Y00840746
X01282700Y03840492
X04782446Y-02159000
X04782446Y00840746
X04782446Y03840492
T02
X00076200Y-02438400
X00076200Y00561346
X00076200Y03561092
X03575946Y-02438400
X03575946Y00561346
X03575946Y03561092
X00228600Y-02374900
X00228600Y00624846
X00228600Y03624592
X03728346Y-02374900
X03728346Y00624846
X03728346Y03624592
X00431800Y-02374900
X00431800Y00624846
X00431800Y03624592
X03931546Y-02374900
X03931546Y00624846
X03931546Y03624592
X00558800Y-02489200
X00558800Y00510546
X00558800Y03510292
X04058546Y-02489200
X04058546Y00510546
X04058546Y03510292
X00622300Y-02641600
X00622300Y00358146
X00622300Y03357892
X04122046Y-02641600
X04122046Y00358146
X04122046Y03357892
X00622300Y-02806700
X00622300Y00193046
X00622300Y03192792
X04122046Y-02806700
X04122046Y00193046
X04122046Y03192792
X00546100Y-02921000
X00546100Y00078746
X00546100Y03078492
X04045846Y-02921000
X04045846Y00078746
X04045846Y03078492
X02933700Y-02914650
X02933700Y00085096
X02933700Y03084842
X06433446Y-02914650
X06433446Y00085096
X06433446Y03084842
X02882900Y-02762250
X02882900Y00237496
X02882900Y03237242
X06382646Y-02762250
X06382646Y00237496
X06382646Y03237242
X02895600Y-02571750
X02895600Y00427996
X02895600Y03427742
X06395346Y-02571750
X06395346Y00427996
X06395346Y03427742
X02997200Y-02444750
X02997200Y00554996
X02997200Y03554742
X06496946Y-02444750
X06496946Y00554996
X06496946Y03554742
X03136900Y-02368550
X03136900Y00631196
X03136900Y03630942
X06636646Y-02368550
X06636646Y00631196
X06636646Y03630942
X03302000Y-02368550
X03302000Y00631196
X03302000Y03630942
X06801746Y-02368550
X06801746Y00631196
X06801746Y03630942
X03416300Y-02444750
X03416300Y00554996
X03416300Y03554742
X06916046Y-02444750
X06916046Y00554996
X06916046Y03554742
X03422650Y-00558800
X03422650Y02440946
X03422650Y05440692
X06922396Y-00558800
X06922396Y02440946
X06922396Y05440692
X03270250Y-00609600
X03270250Y02390146
X03270250Y05389892
X06769996Y-00609600
X06769996Y02390146
X06769996Y05389892
X03079750Y-00596900
X03079750Y02402846
X03079750Y05402592
X06579496Y-00596900
X06579496Y02402846
X06579496Y05402592
X02952750Y-00495300
X02952750Y02504446
X02952750Y05504192
X06452496Y-00495300
X06452496Y02504446
X06452496Y05504192
X02876550Y-00355600
X02876550Y02644146
X02876550Y05643892
X06376296Y-00355600
X06376296Y02644146
X06376296Y05643892
X02876550Y-00190500
X02876550Y02809246
X02876550Y05808992
X06376296Y-00190500
X06376296Y02809246
X06376296Y05808992
X02952750Y-00076200
X02952750Y02923546
X02952750Y05923292
X06452496Y-00076200
X06452496Y02923546
X06452496Y05923292
X00546100Y-00076200
X00546100Y02923546
X00546100Y05923292
X04045846Y-00076200
X04045846Y02923546
X04045846Y05923292
X00609600Y-00215900
X00609600Y02783846
X00609600Y05783592
X04109346Y-00215900
X04109346Y02783846
X04109346Y05783592
X00330200Y-00622300
X00330200Y02377446
X00330200Y05377192
X03829946Y-00622300
X03829946Y02377446
X03829946Y05377192
X00177800Y-00603250
X00177800Y02396496
X00177800Y05396242
X03677546Y-00603250
X03677546Y02396496
X03677546Y05396242
X00076200Y-00546100
X00076200Y02453646
X00076200Y05453392
X03575946Y-00546100
X03575946Y02453646
X03575946Y05453392
T03
X00810448Y-00259174
X00810448Y02740572
X00810448Y05740318
X04310194Y-00259174
X04310194Y02740572
X04310194Y05740318
X01064448Y-00259174
X01064448Y02740572
X01064448Y05740318
X04564194Y-00259174
X04564194Y02740572
X04564194Y05740318
X01318448Y-00259174
X01318448Y02740572
X01318448Y05740318
X04818194Y-00259174
X04818194Y02740572
X04818194Y05740318
X01572448Y-00259174
X01572448Y02740572
X01572448Y05740318
X05072194Y-00259174
X05072194Y02740572
X05072194Y05740318
X01826448Y-00259174
X01826448Y02740572
X01826448Y05740318
X05326194Y-00259174
X05326194Y02740572
X05326194Y05740318
X02080448Y-00259174
X02080448Y02740572
X02080448Y05740318
X05580194Y-00259174
X05580194Y02740572
X05580194Y05740318
X02334448Y-00259174
X02334448Y02740572
X02334448Y05740318
X05834194Y-00259174
X05834194Y02740572
X05834194Y05740318
X02588448Y-00259174
X02588448Y02740572
X02588448Y05740318
X06088194Y-00259174
X06088194Y02740572
X06088194Y05740318
T04
X01860657Y-02595295
X01860657Y00404452
X01860657Y03404198
X05360404Y-02595295
X05360404Y00404452
X05360404Y03404198
X02110659Y-02595295
X02110659Y00404452
X02110659Y03404198
X05610406Y-02595295
X05610406Y00404452
X05610406Y03404198
X02360659Y-02595295
X02360659Y00404452
X02360659Y03404198
X05860405Y-02595295
X05860405Y00404452
X05860405Y03404198
X02610658Y-02595295
X02610658Y00404452
X02610658Y03404198
X06110405Y-02595295
X06110405Y00404452
X06110405Y03404198
T05
X03200000Y-02700000
X03200000Y00299746
X03200000Y03299492
X06699746Y-02700000
X06699746Y00299746
X06699746Y03299492
X03200000Y-00300000
X03200000Y02699746
X03200000Y05699492
X06699746Y-00300000
X06699746Y02699746
X06699746Y05699492
X00300000Y-00300000
X00300000Y02699746
X00300000Y05699492
X03799746Y-00300000
X03799746Y02699746
X03799746Y05699492
X00300000Y-02700000
X00300000Y00299746
X00300000Y03299492
X03799746Y-02700000
X03799746Y00299746
X03799746Y03299492
M30