G04 Layer: TopSilkscreenLayer*
G04 EasyEDA Pro v2.1.64.d1969c9c.217bcf, 2025-01-15 01:44:41*
G04 Gerber Generator version 0.3*
G04 Scale: 100 percent, Rotated: No, Reflected: No*
G04 Dimensions in millimeters*
G04 Leading zeros omitted, absolute positions, 3 integers and 5 decimals*
G04 Panelize: V-CUT, Column: 2, Row: 3, Board Size: 35.001mm x 30mm, Panelized Board Size: 69.997mm x 89.992mm, Panelized Method: All Objects*
%FSLAX35Y35*%
%MOMM*%
%ADD10C,0.1524*%
%ADD11C,0.2*%
%ADD12C,0.4*%
%ADD13C,0.254*%
%ADD14C,0.1*%
%ADD15C,0.1508*%
%ADD16C,0.15001*%
G75*


%SRX2Y3I34.99746J29.99746*%

G04 Image Start*
G36*
G01X203200Y-2006600D02*
G01X203200Y-2130958D01*
G01X344983D01*
G01X411124Y-2130857D01*
G01X411328Y-2130298D01*
G01X421640Y-2098802D01*
G01X431800Y-2067865D01*
G01X441960Y-2098802D01*
G01X452272Y-2130298D01*
G01X452476Y-2130857D01*
G01X518617Y-2130958D01*
G01X491846Y-2150364D01*
G01X465023Y-2169820D01*
G01X465836Y-2172157D01*
G01X485496Y-2232762D01*
G01X458622Y-2213356D01*
G01X431800Y-2193900D01*
G01X404978Y-2213356D01*
G01X378155Y-2232762D01*
G01X378104D01*
G01X398526Y-2169871D01*
G01X398170Y-2169566D01*
G01X371450Y-2150110D01*
G01X344983Y-2130958D01*
G01X203200D01*
G01Y-2311400D01*
G01X660400D01*
G01Y-2006600D01*
G37*
G04 Image End*
G04 Image End*

G04 Text Start*
G54D10*
G01X1897568Y-965040D02*
G01X1897568Y-1011522D01*
G01X1900616Y-1020666D01*
G01X1906966Y-1027016D01*
G01X1916110Y-1030064D01*
G01X1922460D01*
G01X1931604Y-1027016D01*
G01X1937700Y-1020666D01*
G01X1941002Y-1011522D01*
G01Y-965040D01*
G01X1971228Y-977486D02*
G01X1977324Y-974184D01*
G01X1986468Y-965040D01*
G01Y-1030064D01*
G01X2035236Y-965040D02*
G01X2025838Y-968088D01*
G01X2019742Y-977486D01*
G01X2016694Y-992726D01*
G01Y-1002124D01*
G01X2019742Y-1017618D01*
G01X2025838Y-1027016D01*
G01X2035236Y-1030064D01*
G01X2041332D01*
G01X2050730Y-1027016D01*
G01X2056826Y-1017618D01*
G01X2059874Y-1002124D01*
G01Y-992726D01*
G01X2056826Y-977486D01*
G01X2050730Y-968088D01*
G01X2041332Y-965040D01*
G01X2035236D01*
G01X1046414Y-1305654D02*
G01X1111438Y-1262220D01*
G01X1046414Y-1262220D02*
G01X1111438Y-1305654D01*
G01X1058860Y-1231994D02*
G01X1055558Y-1225898D01*
G01X1046414Y-1216754D01*
G01X1111438D01*
G01X1607820Y-2229866D02*
G01X1607820Y-2276348D01*
G01X1610868Y-2285492D01*
G01X1617218Y-2291842D01*
G01X1626362Y-2294890D01*
G01X1632712D01*
G01X1641856Y-2291842D01*
G01X1647952Y-2285492D01*
G01X1651254Y-2276348D01*
G01Y-2229866D01*
G01X1706118Y-2229866D02*
G01X1681480Y-2294890D01*
G01X1706118Y-2229866D02*
G01X1731010Y-2294890D01*
G01X1690624Y-2273046D02*
G01X1721612Y-2273046D01*
G01X1761236Y-2229866D02*
G01X1761236Y-2294890D01*
G01X1761236Y-2229866D02*
G01X1788922Y-2229866D01*
G01X1798320Y-2232914D01*
G01X1801368Y-2235962D01*
G01X1804416Y-2242312D01*
G01Y-2248408D01*
G01X1801368Y-2254504D01*
G01X1798320Y-2257552D01*
G01X1788922Y-2260854D01*
G01X1761236D01*
G01X1782826Y-2260854D02*
G01X1804416Y-2294890D01*
G01X1856232Y-2229866D02*
G01X1856232Y-2294890D01*
G01X1834642Y-2229866D02*
G01X1877822Y-2229866D01*
G36*
G01X3276448Y-661873D02*
G01X3276448Y-696773D01*
G01X3311347D01*
G01Y-694842D01*
G01X3358642D01*
G01X3408121Y-694588D01*
G01X3411474Y-693877D01*
G01X3413455Y-692658D01*
G01X3414624Y-690931D01*
G01X3415386Y-689254D01*
G01X3415589Y-687324D01*
G01X3415843Y-683920D01*
G01X3416097Y-681736D01*
G01X3418535D01*
G01Y-701599D01*
G01X3418281Y-716534D01*
G01X3417570Y-721512D01*
G01X3416097Y-720750D01*
G01X3415589Y-718820D01*
G01X3415386Y-715416D01*
G01X3414624Y-712267D01*
G01X3413658Y-710590D01*
G01X3411982Y-709117D01*
G01X3409544Y-708406D01*
G01X3407613Y-708152D01*
G01X3371494Y-707898D01*
G01X3335376Y-708152D01*
G01X3333445Y-708406D01*
G01X3330042Y-708660D01*
G01X3326892Y-709371D01*
G01X3325165Y-710336D01*
G01X3323996Y-712013D01*
G01X3323742Y-714959D01*
G01X3324454Y-718109D01*
G01X3325419Y-720496D01*
G01X3325673Y-721970D01*
G01X3324708Y-722935D01*
G01X3323488D01*
G01X3322523Y-721258D01*
G01X3318662Y-713486D01*
G01X3316681Y-709117D01*
G01X3311855Y-699414D01*
G01X3311347Y-696773D01*
G01X3276448D01*
G01Y-762457D01*
G01X3403498D01*
G01X3403956Y-759054D01*
G01X3405175Y-756615D01*
G01X3406902Y-754939D01*
G01X3408578Y-753974D01*
G01X3411728Y-753466D01*
G01X3415132Y-753974D01*
G01X3417062Y-754939D01*
G01X3418535Y-756158D01*
G01X3419754Y-758088D01*
G01X3420262Y-759714D01*
G01X3420466Y-762203D01*
G01X3419958Y-766115D01*
G01X3418738Y-767537D01*
G01X3417570Y-768756D01*
G01X3416097Y-769976D01*
G01X3414420Y-770687D01*
G01X3412439Y-770941D01*
G01X3409798Y-770433D01*
G01X3407613Y-769468D01*
G01X3406140Y-768502D01*
G01X3404921Y-767283D01*
G01X3403956Y-765607D01*
G01X3403498Y-762457D01*
G01X3276448D01*
G01Y-822350D01*
G01X3311347D01*
G01X3311601Y-817728D01*
G01X3312109Y-815543D01*
G01X3312820Y-813359D01*
G01X3315005Y-808990D01*
G01X3316681Y-806602D01*
G01X3318154Y-804621D01*
G01X3320593Y-802234D01*
G01X3323031Y-800252D01*
G01X3324708Y-798830D01*
G01X3326892Y-797357D01*
G01X3328822Y-796138D01*
G01X3330499Y-795172D01*
G01X3334410Y-793242D01*
G01X3336595Y-792277D01*
G01X3339490Y-791312D01*
G01X3342640Y-790346D01*
G01X3345078Y-789635D01*
G01X3350412Y-788619D01*
G01X3354273Y-788162D01*
G01X3364484Y-787908D01*
G01X3374644Y-788162D01*
G01X3376320Y-788416D01*
G01X3379013Y-788619D01*
G01X3381908Y-789127D01*
G01X3386785Y-790092D01*
G01X3389681Y-790804D01*
G01X3392830Y-791769D01*
G01X3395472Y-792785D01*
G01X3399841Y-794715D01*
G01X3402279Y-795934D01*
G01X3404718Y-797357D01*
G01X3406902Y-798830D01*
G01X3409086Y-800506D01*
G01X3411017Y-801980D01*
G01X3412693Y-803656D01*
G01X3414166Y-805586D01*
G01X3415132Y-806806D01*
G01X3416097Y-808279D01*
G01X3417062Y-809955D01*
G01X3418535Y-812902D01*
G01X3419500Y-815086D01*
G01X3420212Y-817270D01*
G01X3420466Y-822604D01*
G01X3419958Y-828650D01*
G01X3418992Y-831088D01*
G01X3418027Y-833222D01*
G01X3416808Y-835406D01*
G01X3415843Y-837133D01*
G01X3414878Y-838352D01*
G01X3410052Y-843178D01*
G01X3408121Y-844652D01*
G01X3404464Y-847039D01*
G01X3401060Y-849020D01*
G01X3399638Y-849732D01*
G01X3397910Y-850443D01*
G01X3395726Y-851408D01*
G01X3393288Y-852373D01*
G01X3391103Y-853135D01*
G01X3388208Y-853846D01*
G01X3385769Y-854558D01*
G01X3380486Y-855574D01*
G01X3376117Y-856031D01*
G01X3367126Y-856285D01*
G01X3358134Y-856031D01*
G01X3356204Y-855777D01*
G01X3353816Y-855574D01*
G01X3350412Y-855066D01*
G01X3346501Y-854354D01*
G01X3344113Y-853592D01*
G01X3342183Y-853135D01*
G01X3339490Y-852373D01*
G01X3337052Y-851408D01*
G01X3334868Y-850443D01*
G01X3332480Y-849478D01*
G01X3330499Y-848512D01*
G01X3328822Y-847547D01*
G01X3326892Y-846328D01*
G01X3325165Y-845363D01*
G01X3323996Y-844398D01*
G01X3320593Y-841502D01*
G01X3318154Y-839064D01*
G01X3317189Y-837844D01*
G01X3315970Y-836168D01*
G01X3314497Y-833984D01*
G01X3313328Y-831799D01*
G01X3312363Y-829107D01*
G01X3311601Y-826922D01*
G01X3311347Y-822350D01*
G01X3276448D01*
G01Y-976528D01*
G01X3313328D01*
G01Y-955446D01*
G01X3313532Y-933602D01*
G01X3314040Y-933145D01*
G01X3315005D01*
G01X3315919Y-933552D01*
G01X3316224Y-934314D01*
G01X3316681Y-937717D01*
G01X3317189Y-939648D01*
G01X3317900Y-941629D01*
G01X3318866Y-943051D01*
G01X3320339Y-944016D01*
G01X3322269Y-944524D01*
G01X3325165Y-944270D01*
G01X3328314Y-943559D01*
G01X3331261Y-942594D01*
G01X3333648Y-941629D01*
G01X3335833Y-940664D01*
G01X3338271Y-939648D01*
G01X3347009Y-935787D01*
G01X3349447Y-934822D01*
G01X3358134Y-930961D01*
G01X3360572Y-929996D01*
G01X3369310Y-926084D01*
G01X3371748Y-925119D01*
G01X3380486Y-921258D01*
G01X3382874Y-920293D01*
G01X3391611Y-916381D01*
G01X3394050Y-915416D01*
G01X3395472Y-914197D01*
G01X3395320Y-913536D01*
G01X3394304Y-913028D01*
G01X3386988Y-910082D01*
G01X3384804Y-909117D01*
G01X3375152Y-905256D01*
G01X3372968Y-904291D01*
G01X3368091Y-902360D01*
G01X3366160Y-901598D01*
G01X3364484Y-900887D01*
G01X3362300Y-899922D01*
G01X3354984Y-897026D01*
G01X3353054Y-896264D01*
G01X3351378Y-895553D01*
G01X3349193Y-894588D01*
G01X3341929Y-891692D01*
G01X3339744Y-890676D01*
G01X3334868Y-888746D01*
G01X3332226Y-887781D01*
G01X3327146Y-886104D01*
G01X3325165Y-885850D01*
G01X3322269Y-886104D01*
G01X3320085Y-887070D01*
G01X3318866Y-888289D01*
G01X3317697Y-889965D01*
G01X3316681Y-892861D01*
G01X3315970Y-895807D01*
G01X3315513Y-896722D01*
G01X3314497Y-897026D01*
G01X3313328D01*
G01Y-880516D01*
G01X3313532Y-868172D01*
G01X3314294Y-864057D01*
G01X3315716Y-864514D01*
G01X3316478Y-865734D01*
G01X3316935Y-867664D01*
G01X3317697Y-869594D01*
G01X3318662Y-871322D01*
G01X3319831Y-872744D01*
G01X3321050Y-873963D01*
G01X3322777Y-875436D01*
G01X3324962Y-876859D01*
G01X3327146Y-878078D01*
G01X3329076Y-879043D01*
G01X3331261Y-880008D01*
G01X3338525Y-882955D01*
G01X3340710Y-883920D01*
G01X3347974Y-886816D01*
G01X3350158Y-887781D01*
G01X3354984Y-889711D01*
G01X3357169Y-890676D01*
G01X3364484Y-893623D01*
G01X3366618Y-894588D01*
G01X3371494Y-896518D01*
G01X3373425Y-897230D01*
G01X3375152Y-897992D01*
G01X3377286Y-898957D01*
G01X3379724Y-899922D01*
G01X3381654Y-900633D01*
G01X3383382Y-901344D01*
G01X3385566Y-902360D01*
G01X3387954Y-903326D01*
G01X3389935Y-904037D01*
G01X3391611Y-904748D01*
G01X3393796Y-905713D01*
G01X3401060Y-908660D01*
G01X3403244Y-909625D01*
G01X3410509Y-912520D01*
G01X3412693Y-913486D01*
G01X3417570Y-915416D01*
G01X3419754Y-916381D01*
G01X3420618Y-917194D01*
G01X3420923Y-918566D01*
G01X3420567Y-919988D01*
G01X3419500Y-920750D01*
G01X3417316Y-921715D01*
G01X3410509Y-924662D01*
G01X3406140Y-926592D01*
G01X3402787Y-928014D01*
G01X3398418Y-929996D01*
G01X3391611Y-932891D01*
G01X3387242Y-934822D01*
G01X3383839Y-936295D01*
G01X3379470Y-938225D01*
G01X3372714Y-941121D01*
G01X3368345Y-943051D01*
G01X3361538Y-945998D01*
G01X3357169Y-947928D01*
G01X3353816Y-949350D01*
G01X3349447Y-951332D01*
G01X3342640Y-954227D01*
G01X3338271Y-956158D01*
G01X3334868Y-957631D01*
G01X3330499Y-959561D01*
G01X3327146Y-960984D01*
G01X3323234Y-962965D01*
G01X3321558Y-963930D01*
G01X3319628Y-965606D01*
G01X3318154Y-967791D01*
G01X3317189Y-969721D01*
G01X3316478Y-972414D01*
G01X3315970Y-975309D01*
G01X3315513Y-976224D01*
G01X3314497Y-976528D01*
G01X3313328D01*
G01X3276448D01*
G01Y-1048512D01*
G01X3345332D01*
G01X3345536Y-1043686D01*
G01X3346044Y-1041248D01*
G01X3346755Y-1038098D01*
G01X3347466Y-1035914D01*
G01X3347974Y-1033475D01*
G01Y-1031900D01*
G01X3347466Y-1030580D01*
G01X3345485Y-1028598D01*
G01X3345332Y-1027430D01*
G01Y-1025957D01*
G01X3369056D01*
G01Y-1027176D01*
G01X3368751Y-1028192D01*
G01X3367837Y-1028903D01*
G01X3362503Y-1030834D01*
G01X3360115Y-1031799D01*
G01X3357931Y-1033018D01*
G01X3355746Y-1034440D01*
G01X3353562Y-1036422D01*
G01X3352089Y-1038555D01*
G01X3351124Y-1040282D01*
G01X3350412Y-1042213D01*
G01X3349904Y-1044143D01*
G01X3349650Y-1047039D01*
G01X3349904Y-1049985D01*
G01X3350412Y-1052170D01*
G01X3351124Y-1054354D01*
G01X3352343Y-1056284D01*
G01X3353816Y-1057961D01*
G01X3355746Y-1059180D01*
G01X3358388Y-1059891D01*
G01X3361080Y-1059688D01*
G01X3363011Y-1059180D01*
G01X3364941Y-1058469D01*
G01X3366618Y-1057250D01*
G01X3369056Y-1054811D01*
G01X3370275Y-1053135D01*
G01X3371494Y-1051204D01*
G01X3372460Y-1049477D01*
G01X3376320Y-1041756D01*
G01X3377794Y-1038352D01*
G01X3379978Y-1033983D01*
G01X3381451Y-1031545D01*
G01X3382620Y-1029868D01*
G01X3383382Y-1028649D01*
G01X3384347Y-1027430D01*
G01X3386785Y-1024992D01*
G01X3388716Y-1023569D01*
G01X3391103Y-1022096D01*
G01X3393796Y-1021131D01*
G01X3396945Y-1020420D01*
G01X3399841D01*
G01X3403244Y-1020877D01*
G01X3406140Y-1021588D01*
G01X3410509Y-1023772D01*
G01X3412236Y-1025246D01*
G01X3415132Y-1028141D01*
G01X3417570Y-1031799D01*
G01X3418281Y-1033221D01*
G01X3418992Y-1034948D01*
G01X3419754Y-1036879D01*
G01X3420212Y-1038809D01*
G01X3420466Y-1045108D01*
G01X3420212Y-1051408D01*
G01X3419754Y-1052881D01*
G01X3418738Y-1057707D01*
G01X3417773Y-1061618D01*
G01Y-1063803D01*
G01X3418738Y-1065733D01*
G01X3419297Y-1066444D01*
G01X3419500Y-1067664D01*
G01Y-1069137D01*
G01X3407359D01*
G01X3398215Y-1068934D01*
G01X3395015Y-1068375D01*
G01Y-1066952D01*
G01X3396691Y-1065733D01*
G01X3398876Y-1065022D01*
G01X3400603Y-1064514D01*
G01X3402279Y-1063803D01*
G01X3404210Y-1062838D01*
G01X3406394Y-1061618D01*
G01X3408121Y-1060399D01*
G01X3411728Y-1056742D01*
G01X3412693Y-1055573D01*
G01X3413658Y-1053846D01*
G01X3414624Y-1051916D01*
G01X3415386Y-1049985D01*
G01X3415843Y-1048055D01*
G01X3416097Y-1045870D01*
G01X3415843Y-1042213D01*
G01X3415132Y-1039317D01*
G01X3414420Y-1037590D01*
G01X3413455Y-1036168D01*
G01X3412236Y-1034948D01*
G01X3410763Y-1033729D01*
G01X3408832Y-1032764D01*
G01X3405429Y-1032256D01*
G01X3401568Y-1032764D01*
G01X3399384Y-1033729D01*
G01X3397453Y-1034948D01*
G01X3395726Y-1036422D01*
G01X3394304Y-1038352D01*
G01X3392576Y-1040740D01*
G01X3391357Y-1042721D01*
G01X3389427Y-1046074D01*
G01X3386531Y-1051916D01*
G01X3384601Y-1055319D01*
G01X3383636Y-1057250D01*
G01X3382416Y-1059180D01*
G01X3380689Y-1061618D01*
G01X3379267Y-1063549D01*
G01X3376828Y-1065987D01*
G01X3375152Y-1067206D01*
G01X3373171Y-1068172D01*
G01X3370783Y-1068883D01*
G01X3368345Y-1069391D01*
G01X3366414Y-1069594D01*
G01X3364484Y-1069391D01*
G01X3362757Y-1069137D01*
G01X3360115Y-1068629D01*
G01X3357169Y-1067664D01*
G01X3354984Y-1066444D01*
G01X3353308Y-1065479D01*
G01X3352089Y-1064514D01*
G01X3350870Y-1063295D01*
G01X3349447Y-1061618D01*
G01X3348228Y-1059891D01*
G01X3347263Y-1058215D01*
G01X3346298Y-1055573D01*
G01X3345536Y-1053389D01*
G01X3345332Y-1048512D01*
G01X3276448D01*
G01Y-1110590D01*
G01X3345332D01*
G01X3345536Y-1105713D01*
G01X3346044Y-1103325D01*
G01X3346755Y-1100176D01*
G01X3347466Y-1097991D01*
G01X3347974Y-1095807D01*
G01X3347720Y-1093114D01*
G01X3346298Y-1091438D01*
G01X3345536Y-1090676D01*
G01X3345332Y-1089508D01*
G01Y-1088034D01*
G01X3356966D01*
G01X3365754Y-1088238D01*
G01X3368802Y-1088746D01*
G01Y-1090219D01*
G01X3367126Y-1091438D01*
G01X3364941Y-1092149D01*
G01X3363265Y-1092657D01*
G01X3361538Y-1093368D01*
G01X3357677Y-1095299D01*
G01X3355746Y-1096518D01*
G01X3353562Y-1098448D01*
G01X3352089Y-1100633D01*
G01X3351124Y-1102360D01*
G01X3350412Y-1104290D01*
G01X3349904Y-1106221D01*
G01X3349650Y-1109370D01*
G01X3350158Y-1113485D01*
G01X3351124Y-1116381D01*
G01X3352089Y-1118108D01*
G01X3353054Y-1119327D01*
G01X3354273Y-1120496D01*
G01X3355746Y-1121512D01*
G01X3358896Y-1121969D01*
G01X3362757Y-1121512D01*
G01X3364941Y-1120496D01*
G01X3366618Y-1119530D01*
G01X3367837Y-1118362D01*
G01X3368802Y-1117143D01*
G01X3370021Y-1115670D01*
G01X3371240Y-1113739D01*
G01X3372460Y-1111555D01*
G01X3377286Y-1101852D01*
G01X3378302Y-1099668D01*
G01X3379470Y-1097026D01*
G01X3381908Y-1093114D01*
G01X3384347Y-1089711D01*
G01X3386277Y-1087526D01*
G01X3388208Y-1086104D01*
G01X3389935Y-1084885D01*
G01X3392322Y-1083666D01*
G01X3394507Y-1082954D01*
G01X3398876Y-1082700D01*
G01X3404210Y-1083208D01*
G01X3407105Y-1084174D01*
G01X3410509Y-1085850D01*
G01X3411728Y-1086815D01*
G01X3414624Y-1089711D01*
G01X3416097Y-1091692D01*
G01X3417062Y-1093114D01*
G01X3418535Y-1096010D01*
G01X3419500Y-1098448D01*
G01X3420212Y-1100887D01*
G01X3420466Y-1107186D01*
G01X3420212Y-1113485D01*
G01X3419754Y-1114958D01*
G01X3418738Y-1119784D01*
G01X3417773Y-1123645D01*
G01Y-1125830D01*
G01X3418738Y-1127811D01*
G01X3419297Y-1128522D01*
G01X3419500Y-1129741D01*
G01Y-1131164D01*
G01X3394761D01*
G01Y-1129995D01*
G01X3395015Y-1128928D01*
G01X3395726Y-1128268D01*
G01X3397453Y-1127557D01*
G01X3399384Y-1127049D01*
G01X3401314Y-1126338D01*
G01X3405683Y-1124153D01*
G01X3407359Y-1122934D01*
G01X3409798Y-1121004D01*
G01X3410763Y-1120038D01*
G01X3412693Y-1117600D01*
G01X3413658Y-1115924D01*
G01X3414624Y-1113993D01*
G01X3415386Y-1112012D01*
G01X3415843Y-1110082D01*
G01X3416097Y-1107897D01*
G01X3415843Y-1104290D01*
G01X3415132Y-1101344D01*
G01X3414420Y-1099668D01*
G01X3413455Y-1098194D01*
G01X3412236Y-1097026D01*
G01X3410763Y-1095807D01*
G01X3408832Y-1094842D01*
G01X3405683Y-1094334D01*
G01X3401771Y-1094842D01*
G01X3399384Y-1095807D01*
G01X3397656Y-1096772D01*
G01X3395726Y-1098448D01*
G01X3394304Y-1100379D01*
G01X3393084Y-1102106D01*
G01X3391865Y-1104036D01*
G01X3390646Y-1106221D01*
G01X3389427Y-1108151D01*
G01X3385566Y-1115924D01*
G01X3383636Y-1119327D01*
G01X3382416Y-1121258D01*
G01X3380943Y-1123442D01*
G01X3379724Y-1125118D01*
G01X3377286Y-1127557D01*
G01X3375609Y-1128979D01*
G01X3373425Y-1130198D01*
G01X3370986Y-1130960D01*
G01X3368802Y-1131418D01*
G01X3366618Y-1131672D01*
G01X3363976Y-1131418D01*
G01X3361080Y-1130960D01*
G01X3358388Y-1130198D01*
G01X3356204Y-1129233D01*
G01X3354527Y-1128268D01*
G01X3353308Y-1127557D01*
G01X3352089Y-1126592D01*
G01X3349650Y-1124153D01*
G01X3348685Y-1122934D01*
G01X3347720Y-1121258D01*
G01X3346755Y-1119327D01*
G01X3346044Y-1117346D01*
G01X3345536Y-1115416D01*
G01X3345332Y-1110590D01*
G01X3276448D01*
G01Y-1176782D01*
G01X3345332D01*
G01X3345536Y-1169721D01*
G01X3346044Y-1167282D01*
G01X3346501Y-1165149D01*
G01X3347263Y-1162710D01*
G01X3348228Y-1160526D01*
G01X3349447Y-1158342D01*
G01X3350666Y-1156614D01*
G01X3352343Y-1155192D01*
G01X3354781Y-1153719D01*
G01X3356966Y-1152754D01*
G01X3358642Y-1152296D01*
G01X3365449Y-1151788D01*
G01X3385566Y-1151534D01*
G01X3406648Y-1151331D01*
G01X3409544Y-1150315D01*
G01X3410458Y-1149553D01*
G01X3410763Y-1148639D01*
G01X3410509Y-1146962D01*
G01X3409798Y-1145235D01*
G01X3408578Y-1143813D01*
G01X3406140Y-1141374D01*
G01X3405175Y-1140155D01*
G01X3405480Y-1139596D01*
G01X3406902Y-1139444D01*
G01X3409290Y-1139901D01*
G01X3410763Y-1140866D01*
G01X3412236Y-1142086D01*
G01X3415843Y-1145743D01*
G01X3417773Y-1148131D01*
G01X3418992Y-1149858D01*
G01X3419958Y-1152042D01*
G01X3420466Y-1155649D01*
G01X3419958Y-1159561D01*
G01X3418992Y-1161237D01*
G01X3418027Y-1162456D01*
G01X3416351Y-1163676D01*
G01X3414420Y-1164387D01*
G01X3410052Y-1164895D01*
G01X3409747Y-1165352D01*
G01X3410255Y-1166317D01*
G01X3414624Y-1172159D01*
G01X3415589Y-1173378D01*
G01X3416808Y-1175055D01*
G01X3418281Y-1177493D01*
G01X3419500Y-1180135D01*
G01X3420212Y-1182319D01*
G01X3420466Y-1187450D01*
G01X3420212Y-1192276D01*
G01X3419500Y-1193952D01*
G01X3418281Y-1196391D01*
G01X3417062Y-1198118D01*
G01X3416097Y-1199286D01*
G01X3414420Y-1201014D01*
G01X3412236Y-1202436D01*
G01X3410255Y-1203452D01*
G01X3407867Y-1204163D01*
G01X3404718Y-1204620D01*
G01X3401314D01*
G01X3398418Y-1204163D01*
G01X3396437Y-1203655D01*
G01X3394507Y-1202944D01*
G01X3392322Y-1201725D01*
G01X3390646Y-1200506D01*
G01X3386988Y-1196899D01*
G01X3385566Y-1194918D01*
G01X3383128Y-1191311D01*
G01X3382162Y-1189634D01*
G01X3379267Y-1183792D01*
G01X3377794Y-1180389D01*
G01X3376828Y-1178204D01*
G01X3375863Y-1175766D01*
G01X3375152Y-1173836D01*
G01X3374390Y-1172159D01*
G01X3372968Y-1168298D01*
G01X3372206Y-1166114D01*
G01X3371698Y-1164996D01*
G01X3370529Y-1164641D01*
G01X3368345Y-1164895D01*
G01X3365449Y-1165149D01*
G01X3362046Y-1165352D01*
G01X3359607Y-1165860D01*
G01X3356966Y-1166571D01*
G01X3354984Y-1167536D01*
G01X3353816Y-1168298D01*
G01X3352343Y-1169721D01*
G01X3351124Y-1171651D01*
G01X3350412Y-1173378D01*
G01X3349904Y-1175055D01*
G01X3349650Y-1176782D01*
G01X3349904Y-1179424D01*
G01X3350666Y-1182573D01*
G01X3351632Y-1184504D01*
G01X3352597Y-1185723D01*
G01X3353816Y-1186942D01*
G01X3355238Y-1187907D01*
G01X3357423Y-1188618D01*
G01X3359607D01*
G01X3361538Y-1188415D01*
G01X3363976Y-1188618D01*
G01X3365906Y-1189126D01*
G01X3367634Y-1189634D01*
G01X3369056Y-1190600D01*
G01X3370021Y-1192022D01*
G01X3370529Y-1195172D01*
G01X3369818Y-1198829D01*
G01X3368345Y-1200506D01*
G01X3366618Y-1201471D01*
G01X3363722Y-1201979D01*
G01X3360115Y-1201471D01*
G01X3357677Y-1200506D01*
G01X3356000Y-1199794D01*
G01X3354527Y-1198829D01*
G01X3350870Y-1195172D01*
G01X3349650Y-1193749D01*
G01X3348685Y-1192276D01*
G01X3347720Y-1190346D01*
G01X3346755Y-1187907D01*
G01X3346044Y-1185266D01*
G01X3345536Y-1182827D01*
G01X3345332Y-1176782D01*
G01X3276448D01*
G01Y-1267663D01*
G01X3345332D01*
G01Y-1265479D01*
G01X3352089D01*
G01X3359607Y-1265225D01*
G01X3360014Y-1264920D01*
G01X3359861Y-1264514D01*
G01X3358388Y-1263294D01*
G01X3356712Y-1262329D01*
G01X3353054Y-1259434D01*
G01X3350158Y-1256538D01*
G01X3348482Y-1254100D01*
G01X3347263Y-1252169D01*
G01X3346501Y-1250239D01*
G01X3345790Y-1248054D01*
G01X3345332Y-1243686D01*
G01X3345536Y-1238555D01*
G01X3346298Y-1235405D01*
G01X3347263Y-1232764D01*
G01X3348482Y-1230325D01*
G01X3349650Y-1228649D01*
G01X3350666Y-1227430D01*
G01X3354273Y-1223772D01*
G01X3355492Y-1222807D01*
G01X3358388Y-1220876D01*
G01X3360115Y-1219911D01*
G01X3362300Y-1218946D01*
G01X3364687Y-1217981D01*
G01X3366872Y-1217270D01*
G01X3371240Y-1216254D01*
G01X3375609Y-1215796D01*
G01X3379724Y-1215542D01*
G01X3383839Y-1215796D01*
G01X3385566Y-1216050D01*
G01X3388208Y-1216254D01*
G01X3393084Y-1217270D01*
G01X3395726Y-1217981D01*
G01X3397910Y-1218692D01*
G01X3399841Y-1219403D01*
G01X3404210Y-1221588D01*
G01X3406394Y-1223061D01*
G01X3408324Y-1224280D01*
G01X3412693Y-1227938D01*
G01X3413658Y-1229106D01*
G01X3415132Y-1230833D01*
G01X3416605Y-1233018D01*
G01X3417570Y-1234694D01*
G01X3418535Y-1236624D01*
G01X3419500Y-1239571D01*
G01X3420212Y-1241958D01*
G01X3420466Y-1247292D01*
G01X3420212Y-1253134D01*
G01X3419754Y-1255573D01*
G01X3418992Y-1258214D01*
G01X3418027Y-1260399D01*
G01X3417316Y-1261872D01*
G01X3416351Y-1263040D01*
G01X3415386Y-1264514D01*
G01X3415132Y-1265479D01*
G01X3427273D01*
G01X3440074Y-1265225D01*
G01X3441802Y-1265022D01*
G01X3443986Y-1264768D01*
G01X3446424Y-1264056D01*
G01X3448101Y-1262837D01*
G01X3449320Y-1260907D01*
G01X3450031Y-1258214D01*
G01X3450285Y-1256030D01*
G01X3450539Y-1254354D01*
G01X3450844Y-1253592D01*
G01X3451758Y-1253388D01*
G01X3452927D01*
G01Y-1272286D01*
G01X3452724Y-1286459D01*
G01X3451962Y-1291184D01*
G01X3451200Y-1290980D01*
G01X3450742Y-1290472D01*
G01X3450285Y-1288034D01*
G01X3449777Y-1285138D01*
G01X3449066Y-1282700D01*
G01X3447593Y-1280516D01*
G01X3445662Y-1279296D01*
G01X3443986Y-1278839D01*
G01X3403244Y-1278585D01*
G01X3361538Y-1278839D01*
G01X3358642Y-1279550D01*
G01X3356966Y-1280516D01*
G01X3356000Y-1281735D01*
G01X3355492Y-1284173D01*
G01X3355746Y-1286561D01*
G01X3356204Y-1288542D01*
G01X3356102Y-1289558D01*
G01X3355238Y-1290218D01*
G01X3354222Y-1290269D01*
G01X3353562Y-1289507D01*
G01X3352597Y-1287069D01*
G01X3351632Y-1284884D01*
G01X3346755Y-1272743D01*
G01X3345790Y-1270559D01*
G01X3345332Y-1267663D01*
G01X3276448D01*
G01Y-1390802D01*
G01X3345332D01*
G01Y-1388618D01*
G01X3358896D01*
G01X3358388Y-1387653D01*
G01X3357423Y-1385976D01*
G01X3356204Y-1384757D01*
G01X3353816Y-1381862D01*
G01X3351378Y-1379423D01*
G01X3349904Y-1377747D01*
G01X3348482Y-1375562D01*
G01X3347263Y-1373378D01*
G01X3346298Y-1370686D01*
G01X3345536Y-1368501D01*
G01X3345332Y-1364894D01*
G01X3345536Y-1360272D01*
G01X3346298Y-1357122D01*
G01X3347466Y-1354480D01*
G01X3348685Y-1352753D01*
G01X3349447Y-1351534D01*
G01X3350666Y-1350315D01*
G01X3352089Y-1349146D01*
G01X3353816Y-1347927D01*
G01X3355746Y-1346962D01*
G01X3357677Y-1346200D01*
G01X3359150Y-1345489D01*
G01X3358388Y-1344270D01*
G01X3352089Y-1337970D01*
G01X3349193Y-1334313D01*
G01X3348228Y-1332636D01*
G01X3347263Y-1330706D01*
G01X3346298Y-1328268D01*
G01X3345536Y-1325829D01*
G01X3345332Y-1321714D01*
G01X3345536Y-1317142D01*
G01X3346044Y-1315161D01*
G01X3346501Y-1313485D01*
G01X3347974Y-1310589D01*
G01X3348939Y-1309116D01*
G01X3350158Y-1307897D01*
G01X3351835Y-1306474D01*
G01X3353562Y-1305255D01*
G01X3355238Y-1304290D01*
G01X3357931Y-1303325D01*
G01X3360115Y-1302563D01*
G01X3363468Y-1302106D01*
G01X3406140Y-1301598D01*
G01X3408121Y-1301344D01*
G01X3410763Y-1300886D01*
G01X3412693Y-1299921D01*
G01X3413912Y-1298956D01*
G01X3415132Y-1297026D01*
G01X3415843Y-1293368D01*
G01X3416097Y-1291184D01*
G01X3418535D01*
G01Y-1308862D01*
G01X3418281Y-1322172D01*
G01X3417570Y-1326591D01*
G01X3416757Y-1326388D01*
G01X3416351Y-1325829D01*
G01X3415843Y-1324407D01*
G01X3415589Y-1322476D01*
G01X3415132Y-1320292D01*
G01X3414166Y-1318108D01*
G01X3412693Y-1316380D01*
G01X3410763Y-1315415D01*
G01X3388970Y-1314958D01*
G01X3367380Y-1315161D01*
G01X3363976Y-1315669D01*
G01X3362046Y-1316177D01*
G01X3360115Y-1316888D01*
G01X3358642Y-1317600D01*
G01X3357423Y-1318565D01*
G01X3356458Y-1319784D01*
G01X3355492Y-1321511D01*
G01X3354781Y-1323442D01*
G01X3354527Y-1325829D01*
G01X3354781Y-1328268D01*
G01X3355238Y-1330706D01*
G01X3356000Y-1333144D01*
G01X3357931Y-1337005D01*
G01X3358896Y-1338478D01*
G01X3359861Y-1339647D01*
G01X3361080Y-1341374D01*
G01X3362503Y-1343050D01*
G01X3363722Y-1344270D01*
G01X3369310Y-1344828D01*
G01X3385058Y-1344981D01*
G01X3408121Y-1344778D01*
G01X3411017Y-1344270D01*
G01X3412693Y-1343558D01*
G01X3414166Y-1342085D01*
G01X3415132Y-1340155D01*
G01X3415589Y-1337970D01*
G01X3415843Y-1336040D01*
G01X3416097Y-1334313D01*
G01X3416402Y-1333602D01*
G01X3417316Y-1333348D01*
G01X3418535D01*
G01Y-1351331D01*
G01X3418027Y-1369466D01*
G01X3416808D01*
G01X3415843Y-1368501D01*
G01X3415386Y-1364640D01*
G01X3414878Y-1362710D01*
G01X3413912Y-1360983D01*
G01X3412693Y-1359814D01*
G01X3411271Y-1358798D01*
G01X3409544Y-1358341D01*
G01X3389427Y-1358087D01*
G01X3368345Y-1358341D01*
G01X3364941Y-1358798D01*
G01X3361792Y-1359560D01*
G01X3359353Y-1360780D01*
G01X3357677Y-1361948D01*
G01X3356204Y-1363675D01*
G01X3354984Y-1365860D01*
G01X3354527Y-1369720D01*
G01X3354984Y-1374343D01*
G01X3356000Y-1376985D01*
G01X3356966Y-1378966D01*
G01X3358134Y-1381100D01*
G01X3359861Y-1383538D01*
G01X3361334Y-1385468D01*
G01X3363722Y-1387907D01*
G01X3369056Y-1388466D01*
G01X3384093Y-1388618D01*
G01X3404718Y-1388415D01*
G01X3406648Y-1388161D01*
G01X3409544Y-1387907D01*
G01X3411982Y-1387196D01*
G01X3413455Y-1386230D01*
G01X3414878Y-1384503D01*
G01X3415589Y-1381862D01*
G01X3415843Y-1379677D01*
G01X3416097Y-1377950D01*
G01X3416402Y-1377239D01*
G01X3417316Y-1376985D01*
G01X3418535D01*
G01Y-1412392D01*
G01X3417316D01*
G01X3416351Y-1412037D01*
G01X3415843Y-1410919D01*
G01X3415386Y-1407770D01*
G01X3414624Y-1405382D01*
G01X3413658Y-1403909D01*
G01X3411982Y-1402690D01*
G01X3410052Y-1401978D01*
G01X3386531Y-1401724D01*
G01X3363011Y-1401978D01*
G01X3361334Y-1402232D01*
G01X3358896Y-1402690D01*
G01X3356458Y-1404163D01*
G01X3355746Y-1405331D01*
G01X3355492Y-1406804D01*
G01X3356000Y-1410208D01*
G01X3356153Y-1411681D01*
G01X3355746Y-1412646D01*
G01X3354273Y-1413104D01*
G01X3353054Y-1411935D01*
G01X3351124Y-1407058D01*
G01X3350412Y-1405128D01*
G01X3349650Y-1403452D01*
G01X3348685Y-1401267D01*
G01X3345790Y-1393952D01*
G01X3345332Y-1390802D01*
G01X3276448D01*
G01Y-1455776D01*
G01X3345332D01*
G01X3345536Y-1449476D01*
G01X3346044Y-1447089D01*
G01X3346501Y-1444904D01*
G01X3347263Y-1442466D01*
G01X3348228Y-1440282D01*
G01X3349193Y-1438351D01*
G01X3350412Y-1436421D01*
G01X3352089Y-1433982D01*
G01X3353562Y-1432052D01*
G01X3355238Y-1430325D01*
G01X3357677Y-1428394D01*
G01X3359607Y-1426921D01*
G01X3360826Y-1425956D01*
G01X3362503Y-1424991D01*
G01X3364484Y-1424026D01*
G01X3366618Y-1423060D01*
G01X3369056Y-1422095D01*
G01X3371494Y-1421384D01*
G01X3373679Y-1420876D01*
G01X3377082Y-1420419D01*
G01X3380486Y-1420165D01*
G01X3384347Y-1420419D01*
G01X3387750Y-1420876D01*
G01X3391611Y-1421587D01*
G01X3394761Y-1422603D01*
G01X3397656Y-1423568D01*
G01X3399841Y-1424534D01*
G01X3403752Y-1426464D01*
G01X3405429Y-1427429D01*
G01X3406902Y-1428394D01*
G01X3408578Y-1429614D01*
G01X3410255Y-1431087D01*
G01X3413201Y-1433982D01*
G01X3414624Y-1435913D01*
G01X3417062Y-1439774D01*
G01X3418027Y-1441958D01*
G01X3418992Y-1444396D01*
G01X3419754Y-1446835D01*
G01X3420212Y-1449019D01*
G01X3420466Y-1455572D01*
G01X3420212Y-1461872D01*
G01X3419754Y-1463040D01*
G01X3419246Y-1465224D01*
G01X3418535Y-1467663D01*
G01X3417570Y-1469847D01*
G01X3416351Y-1472286D01*
G01X3414624Y-1474724D01*
G01X3413201Y-1476654D01*
G01X3409544Y-1480261D01*
G01X3408324Y-1481226D01*
G01X3406648Y-1482446D01*
G01X3404210Y-1483919D01*
G01X3402279Y-1485138D01*
G01X3400349Y-1486103D01*
G01X3397910Y-1487068D01*
G01X3395015Y-1488034D01*
G01X3392576Y-1488745D01*
G01X3389173Y-1489253D01*
G01X3384347Y-1489507D01*
G01X3379470Y-1489253D01*
G01X3376574Y-1488745D01*
G01X3372968Y-1488034D01*
G01X3370021Y-1487068D01*
G01X3367380Y-1486103D01*
G01X3361538Y-1483208D01*
G01X3359607Y-1481988D01*
G01X3357931Y-1480769D01*
G01X3354273Y-1477874D01*
G01X3352343Y-1475435D01*
G01X3350870Y-1473708D01*
G01X3349447Y-1471320D01*
G01X3348228Y-1469136D01*
G01X3346755Y-1465224D01*
G01X3346044Y-1463040D01*
G01X3345536Y-1461110D01*
G01X3345332Y-1455776D01*
G01X3276448D01*
G01Y-1543050D01*
G01X3310890D01*
G01X3311144Y-1535786D01*
G01X3311601Y-1532890D01*
G01X3312363Y-1529486D01*
G01X3313328Y-1526337D01*
G01X3314294Y-1523695D01*
G01X3315259Y-1521257D01*
G01X3317189Y-1517345D01*
G01X3317900Y-1515415D01*
G01Y-1513992D01*
G01X3317189Y-1512011D01*
G01X3315970Y-1510335D01*
G01X3314497Y-1509370D01*
G01X3312363Y-1508404D01*
G01X3311246Y-1507693D01*
G01X3310890Y-1506474D01*
G01X3311195Y-1505356D01*
G01X3312109Y-1505001D01*
G01X3314040Y-1504747D01*
G01X3335833Y-1503324D01*
G01X3342640Y-1502816D01*
G01X3344824Y-1502562D01*
G01X3345891Y-1502867D01*
G01X3346298Y-1503782D01*
G01X3345790Y-1505255D01*
G01X3344316Y-1505966D01*
G01X3340456Y-1507439D01*
G01X3338271Y-1508404D01*
G01X3331972Y-1511554D01*
G01X3329788Y-1513027D01*
G01X3327603Y-1514704D01*
G01X3325673Y-1516177D01*
G01X3324454Y-1517345D01*
G01X3321558Y-1521003D01*
G01X3320593Y-1522679D01*
G01X3319374Y-1525118D01*
G01X3318408Y-1527302D01*
G01X3317697Y-1529232D01*
G01X3316935Y-1531671D01*
G01X3316478Y-1533855D01*
G01X3316224Y-1539443D01*
G01X3316478Y-1545488D01*
G01X3316935Y-1547927D01*
G01X3317900Y-1551788D01*
G01X3318662Y-1553972D01*
G01X3319628Y-1556156D01*
G01X3320593Y-1558087D01*
G01X3321812Y-1560017D01*
G01X3323031Y-1561744D01*
G01X3323996Y-1562964D01*
G01X3328111Y-1567078D01*
G01X3330499Y-1568755D01*
G01X3332937Y-1570228D01*
G01X3334868Y-1571447D01*
G01X3337052Y-1572412D01*
G01X3339490Y-1573378D01*
G01X3342183Y-1574343D01*
G01X3345536Y-1575308D01*
G01X3347974Y-1576019D01*
G01X3353816Y-1576984D01*
G01X3358642Y-1577492D01*
G01X3365906Y-1577746D01*
G01X3374136Y-1577492D01*
G01X3378048Y-1576984D01*
G01X3380943Y-1576527D01*
G01X3383382Y-1576019D01*
G01X3386531Y-1575308D01*
G01X3389427Y-1574343D01*
G01X3391865Y-1573378D01*
G01X3394050Y-1572412D01*
G01X3395980Y-1571447D01*
G01X3397656Y-1570482D01*
G01X3399130Y-1569466D01*
G01X3400349Y-1568755D01*
G01X3401568Y-1567790D01*
G01X3406394Y-1562964D01*
G01X3407613Y-1561236D01*
G01X3408832Y-1559306D01*
G01X3409798Y-1557833D01*
G01X3410509Y-1556410D01*
G01X3411271Y-1554683D01*
G01X3412236Y-1552499D01*
G01X3412947Y-1550314D01*
G01X3413912Y-1545996D01*
G01X3414166Y-1544269D01*
G01X3414420Y-1541120D01*
G01Y-1536751D01*
G01X3413912Y-1532382D01*
G01X3413201Y-1528521D01*
G01X3412236Y-1525372D01*
G01X3411271Y-1522679D01*
G01X3410255Y-1520749D01*
G01X3409290Y-1519072D01*
G01X3408324Y-1517599D01*
G01X3407613Y-1516380D01*
G01X3406648Y-1515161D01*
G01X3400603Y-1509116D01*
G01X3395726Y-1505255D01*
G01X3394050Y-1503782D01*
G01X3393237Y-1502918D01*
G01X3393288Y-1501851D01*
G01X3394304Y-1500632D01*
G01X3395472Y-1501140D01*
G01X3397199Y-1502105D01*
G01X3398622Y-1503070D01*
G01X3400349Y-1504290D01*
G01X3402787Y-1505966D01*
G01X3404718Y-1507439D01*
G01X3411271Y-1513992D01*
G01X3412693Y-1515923D01*
G01X3413912Y-1517599D01*
G01X3415132Y-1519530D01*
G01X3416097Y-1521257D01*
G01X3417062Y-1523187D01*
G01X3418027Y-1525626D01*
G01X3418992Y-1528267D01*
G01X3419754Y-1530452D01*
G01X3420720Y-1535786D01*
G01X3420923Y-1544269D01*
G01X3420720Y-1552753D01*
G01X3420212Y-1554226D01*
G01X3419754Y-1556664D01*
G01X3418992Y-1560017D01*
G01X3418027Y-1563167D01*
G01X3417062Y-1565605D01*
G01X3416097Y-1567790D01*
G01X3414878Y-1570228D01*
G01X3413455Y-1572616D01*
G01X3411728Y-1575054D01*
G01X3410255Y-1576984D01*
G01X3403752Y-1583538D01*
G01X3401771Y-1585011D01*
G01X3400095Y-1586230D01*
G01X3397910Y-1587652D01*
G01X3395980Y-1588872D01*
G01X3392119Y-1590802D01*
G01X3390392Y-1591564D01*
G01X3388462Y-1592275D01*
G01X3384093Y-1593748D01*
G01X3381451Y-1594460D01*
G01X3379013Y-1594968D01*
G01X3375609Y-1595425D01*
G01X3368599Y-1595679D01*
G01X3361080Y-1595425D01*
G01X3357677Y-1594968D01*
G01X3354781Y-1594460D01*
G01X3352597Y-1593952D01*
G01X3349650Y-1593240D01*
G01X3346755Y-1592275D01*
G01X3344316Y-1591310D01*
G01X3342183Y-1590345D01*
G01X3335833Y-1587195D01*
G01X3333648Y-1585722D01*
G01X3331972Y-1584503D01*
G01X3330753Y-1583538D01*
G01X3329330Y-1582572D01*
G01X3327857Y-1581353D01*
G01X3324200Y-1577746D01*
G01X3322269Y-1575308D01*
G01X3320847Y-1573632D01*
G01X3319374Y-1571447D01*
G01X3318154Y-1569466D01*
G01X3315716Y-1565148D01*
G01X3314751Y-1562964D01*
G01X3313786Y-1560271D01*
G01X3312109Y-1555191D01*
G01X3311144Y-1549857D01*
G01X3310890Y-1543050D01*
G01X3276448D01*
G01Y-1673504D01*
G01X3345332D01*
G01X3345536Y-1667662D01*
G01X3346044Y-1665224D01*
G01X3346755Y-1662582D01*
G01X3347720Y-1660398D01*
G01X3349447Y-1656994D01*
G01X3350412Y-1655775D01*
G01X3352800Y-1652880D01*
G01X3354019Y-1651914D01*
G01X3355746Y-1650695D01*
G01X3357931Y-1649476D01*
G01X3360318Y-1648765D01*
G01X3363011D01*
G01X3365449Y-1649476D01*
G01X3367126Y-1650695D01*
G01X3368091Y-1652168D01*
G01X3368599Y-1655064D01*
G01X3368345Y-1658468D01*
G01X3367634Y-1660906D01*
G01X3365906Y-1663040D01*
G01X3363265Y-1664259D01*
G01X3361080Y-1664767D01*
G01X3359150Y-1665021D01*
G01X3356966Y-1665478D01*
G01X3354984Y-1666240D01*
G01X3353562Y-1667205D01*
G01X3352343Y-1668374D01*
G01X3351124Y-1670101D01*
G01X3350412Y-1672031D01*
G01X3350158Y-1674470D01*
G01X3350412Y-1677873D01*
G01X3351124Y-1681023D01*
G01X3352089Y-1683207D01*
G01X3353054Y-1684884D01*
G01X3354273Y-1686357D01*
G01X3355492Y-1687525D01*
G01X3357169Y-1688998D01*
G01X3359353Y-1690472D01*
G01X3361792Y-1691691D01*
G01X3364230Y-1692656D01*
G01X3366872Y-1693367D01*
G01X3369310Y-1693875D01*
G01X3374898Y-1694078D01*
G01X3381908Y-1693875D01*
G01X3384804Y-1693367D01*
G01X3386988Y-1692859D01*
G01X3389935Y-1692148D01*
G01X3392322Y-1691183D01*
G01X3394507Y-1690218D01*
G01X3396437Y-1689252D01*
G01X3398164Y-1688287D01*
G01X3400349Y-1686814D01*
G01X3402279Y-1685392D01*
G01X3403956Y-1683664D01*
G01X3405429Y-1681734D01*
G01X3406394Y-1680261D01*
G01X3407359Y-1678076D01*
G01X3408121Y-1675892D01*
G01X3408324Y-1671574D01*
G01X3407867Y-1666240D01*
G01X3406902Y-1663294D01*
G01X3405683Y-1660906D01*
G01X3403244Y-1657502D01*
G01X3401771Y-1655775D01*
G01X3400603Y-1654810D01*
G01X3398876Y-1653591D01*
G01X3396437Y-1652168D01*
G01X3394507Y-1650949D01*
G01X3391103Y-1649476D01*
G01X3390697Y-1648816D01*
G01X3390900Y-1647800D01*
G01X3391560Y-1646936D01*
G01X3392576Y-1646834D01*
G01X3394761Y-1647546D01*
G01X3397199Y-1648257D01*
G01X3399384Y-1649019D01*
G01X3401568Y-1649984D01*
G01X3404210Y-1651203D01*
G01X3406140Y-1652422D01*
G01X3407613Y-1653134D01*
G01X3411271Y-1656029D01*
G01X3412439Y-1657248D01*
G01X3414420Y-1659687D01*
G01X3415843Y-1661363D01*
G01X3417316Y-1663802D01*
G01X3418535Y-1666240D01*
G01X3419500Y-1668882D01*
G01X3420212Y-1671066D01*
G01X3420466Y-1676857D01*
G01X3419958Y-1683410D01*
G01X3418992Y-1685849D01*
G01X3418027Y-1688033D01*
G01X3417062Y-1689964D01*
G01X3415843Y-1691894D01*
G01X3414624Y-1693621D01*
G01X3413658Y-1694840D01*
G01X3409544Y-1698955D01*
G01X3407613Y-1700378D01*
G01X3405937Y-1701597D01*
G01X3403752Y-1702816D01*
G01X3401771Y-1703781D01*
G01X3399841Y-1704543D01*
G01X3397656Y-1705254D01*
G01X3395015Y-1705966D01*
G01X3392576Y-1706474D01*
G01X3388716Y-1706931D01*
G01X3383839Y-1707185D01*
G01X3379013Y-1706931D01*
G01X3375152Y-1706474D01*
G01X3372714Y-1705966D01*
G01X3369564Y-1705254D01*
G01X3366872Y-1704289D01*
G01X3363011Y-1702359D01*
G01X3360826Y-1701140D01*
G01X3358642Y-1699666D01*
G01X3356966Y-1698193D01*
G01X3355746Y-1697228D01*
G01X3354527Y-1696009D01*
G01X3353308Y-1694586D01*
G01X3352089Y-1693367D01*
G01X3351124Y-1692148D01*
G01X3350158Y-1690675D01*
G01X3348939Y-1688744D01*
G01X3347720Y-1686357D01*
G01X3346755Y-1683918D01*
G01X3346044Y-1681480D01*
G01X3345536Y-1679296D01*
G01X3345332Y-1673504D01*
G01X3276448D01*
G01Y-1734820D01*
G01X3307994D01*
G01X3308198Y-1731670D01*
G01X3308960Y-1729740D01*
G01X3309925Y-1728267D01*
G01X3311347Y-1727048D01*
G01X3313328Y-1726082D01*
G01X3315259Y-1725625D01*
G01X3317697Y-1726082D01*
G01X3320339Y-1727302D01*
G01X3322015Y-1728775D01*
G01X3322523Y-1729486D01*
G01X3345332D01*
G01Y-1727048D01*
G01X3376320D01*
G01X3408121Y-1726844D01*
G01X3409798Y-1726590D01*
G01X3411474Y-1726082D01*
G01X3412947Y-1725371D01*
G01X3414166Y-1724406D01*
G01X3415132Y-1722679D01*
G01X3415589Y-1720748D01*
G01X3416097Y-1717345D01*
G01X3416402Y-1716634D01*
G01X3417316Y-1716380D01*
G01X3418535D01*
G01Y-1733855D01*
G01X3418027Y-1751330D01*
G01X3416808Y-1751076D01*
G01X3415843Y-1750111D01*
G01X3415589Y-1747672D01*
G01X3415132Y-1744980D01*
G01X3414166Y-1743304D01*
G01X3412693Y-1742084D01*
G01X3410763Y-1741119D01*
G01X3408121Y-1740662D01*
G01X3405683Y-1740408D01*
G01X3388462Y-1740154D01*
G01X3371240Y-1740408D01*
G01X3361538Y-1740865D01*
G01X3359150Y-1741373D01*
G01X3357626Y-1741830D01*
G01X3356458Y-1742846D01*
G01X3355746Y-1744116D01*
G01X3355492Y-1745488D01*
G01X3355746Y-1747672D01*
G01X3356204Y-1749857D01*
G01X3356102Y-1751076D01*
G01X3355238Y-1751787D01*
G01X3353816D01*
G01X3353054Y-1750568D01*
G01X3352089Y-1748384D01*
G01X3347263Y-1736293D01*
G01X3346501Y-1734312D01*
G01X3345790Y-1732636D01*
G01X3345332Y-1729486D01*
G01X3322523D01*
G01X3323031Y-1730197D01*
G01X3323488Y-1733855D01*
G01X3323031Y-1737258D01*
G01X3322269Y-1738478D01*
G01X3321304Y-1739646D01*
G01X3319628Y-1740865D01*
G01X3316681Y-1741627D01*
G01X3313532Y-1741373D01*
G01X3311144Y-1740408D01*
G01X3309417Y-1738935D01*
G01X3308452Y-1737512D01*
G01X3307994Y-1734820D01*
G01X3276448D01*
G01Y-1813357D01*
G01X3345332D01*
G01Y-1810918D01*
G01X3351378D01*
G01X3358134Y-1810715D01*
G01X3358591Y-1810410D01*
G01X3358388Y-1809953D01*
G01X3357423Y-1808785D01*
G01X3352089Y-1803451D01*
G01X3350666Y-1801470D01*
G01X3349447Y-1799793D01*
G01X3348228Y-1797863D01*
G01X3347263Y-1796136D01*
G01X3346298Y-1793951D01*
G01X3345536Y-1791767D01*
G01X3345332Y-1788160D01*
G01X3345536Y-1783537D01*
G01X3346298Y-1780388D01*
G01X3347466Y-1777949D01*
G01X3348482Y-1776273D01*
G01X3349904Y-1774596D01*
G01X3351835Y-1773123D01*
G01X3353308Y-1772158D01*
G01X3355238Y-1771193D01*
G01X3357423Y-1770228D01*
G01X3359861Y-1769466D01*
G01X3362046Y-1769008D01*
G01X3368802Y-1768500D01*
G01X3388462Y-1768297D01*
G01X3408578Y-1768043D01*
G01X3410509Y-1767535D01*
G01X3412439Y-1766824D01*
G01X3414166Y-1765605D01*
G01X3415132Y-1763928D01*
G01X3415589Y-1761998D01*
G01X3416097Y-1758594D01*
G01X3416402Y-1757832D01*
G01X3417316Y-1757629D01*
G01X3418535D01*
G01Y-1792986D01*
G01X3416097D01*
G01X3415843Y-1790802D01*
G01X3415386Y-1787449D01*
G01X3414420Y-1785010D01*
G01X3412947Y-1783283D01*
G01X3411271Y-1782318D01*
G01X3388970Y-1781861D01*
G01X3366414Y-1782115D01*
G01X3363976Y-1782572D01*
G01X3361334Y-1783283D01*
G01X3359150Y-1784299D01*
G01X3357677Y-1785264D01*
G01X3356458Y-1786687D01*
G01X3355492Y-1788414D01*
G01X3354984Y-1792021D01*
G01X3355238Y-1795678D01*
G01X3355746Y-1797609D01*
G01X3356458Y-1799539D01*
G01X3357423Y-1801470D01*
G01X3358642Y-1803654D01*
G01X3359607Y-1805381D01*
G01X3360572Y-1806600D01*
G01X3364230Y-1810207D01*
G01X3369920Y-1810766D01*
G01X3386023Y-1810918D01*
G01X3408578Y-1810715D01*
G01X3410509Y-1810207D01*
G01X3412439Y-1809496D01*
G01X3414166Y-1808277D01*
G01X3415132Y-1806600D01*
G01X3415589Y-1804416D01*
G01X3416097Y-1800504D01*
G01X3416402Y-1799590D01*
G01X3417316Y-1799285D01*
G01X3418535D01*
G01Y-1835201D01*
G01X3417316D01*
G01X3416402Y-1834947D01*
G01X3416097Y-1834236D01*
G01X3415843Y-1832508D01*
G01X3415386Y-1830070D01*
G01X3414420Y-1827428D01*
G01X3412693Y-1825752D01*
G01X3410052Y-1824736D01*
G01X3407613Y-1824279D01*
G01X3386785Y-1824025D01*
G01X3365906Y-1824279D01*
G01X3363011Y-1824533D01*
G01X3359353Y-1824990D01*
G01X3357169Y-1825955D01*
G01X3356000Y-1826920D01*
G01X3355492Y-1829105D01*
G01X3355746Y-1831543D01*
G01X3356204Y-1833728D01*
G01X3356102Y-1834947D01*
G01X3355238Y-1835658D01*
G01X3354222Y-1835810D01*
G01X3353562Y-1835201D01*
G01X3352597Y-1833270D01*
G01X3350666Y-1828394D01*
G01X3349904Y-1826463D01*
G01X3349193Y-1824736D01*
G01X3348228Y-1822602D01*
G01X3347263Y-1820164D01*
G01X3346501Y-1818234D01*
G01X3345790Y-1816506D01*
G01X3345332Y-1813357D01*
G01X3276448D01*
G01Y-1877619D01*
G01X3345332D01*
G01X3345536Y-1871777D01*
G01X3346044Y-1869389D01*
G01X3347009Y-1865478D01*
G01X3347720Y-1863547D01*
G01X3349904Y-1859178D01*
G01X3351124Y-1857502D01*
G01X3352089Y-1856029D01*
G01X3353308Y-1854556D01*
G01X3356204Y-1851660D01*
G01X3358642Y-1849730D01*
G01X3362300Y-1847291D01*
G01X3363976Y-1846326D01*
G01X3366160Y-1845361D01*
G01X3368599Y-1844396D01*
G01X3370783Y-1843684D01*
G01X3375609Y-1842719D01*
G01X3380232Y-1842465D01*
G01X3385769Y-1842719D01*
G01X3388716Y-1843176D01*
G01X3391103Y-1843684D01*
G01X3393796Y-1844396D01*
G01X3396691Y-1845361D01*
G01X3399130Y-1846326D01*
G01X3401314Y-1847291D01*
G01X3403244Y-1848256D01*
G01X3404921Y-1849222D01*
G01X3407867Y-1851203D01*
G01X3409290Y-1852422D01*
G01X3412947Y-1856029D01*
G01X3414420Y-1857705D01*
G01X3415589Y-1859432D01*
G01X3416605Y-1861109D01*
G01X3417570Y-1863039D01*
G01X3418281Y-1864766D01*
G01X3418992Y-1866697D01*
G01X3419754Y-1869135D01*
G01X3420212Y-1871320D01*
G01X3420466Y-1877873D01*
G01X3420212Y-1883918D01*
G01X3419754Y-1885848D01*
G01X3418992Y-1888541D01*
G01X3418027Y-1890928D01*
G01X3417062Y-1893113D01*
G01X3415843Y-1895043D01*
G01X3414624Y-1896770D01*
G01X3413912Y-1897990D01*
G01X3412947Y-1899209D01*
G01X3410509Y-1901596D01*
G01X3406648Y-1904543D01*
G01X3405429Y-1905508D01*
G01X3403752Y-1906473D01*
G01X3399841Y-1908404D01*
G01X3397453Y-1909369D01*
G01X3395472Y-1910080D01*
G01X3391611Y-1911045D01*
G01X3387750Y-1911553D01*
G01X3385058Y-1911807D01*
G01X3380943Y-1911553D01*
G01X3377082Y-1911045D01*
G01X3373679Y-1910334D01*
G01X3370529Y-1909369D01*
G01X3367837Y-1908404D01*
G01X3365449Y-1907438D01*
G01X3363468Y-1906473D01*
G01X3361792Y-1905508D01*
G01X3357931Y-1903070D01*
G01X3356458Y-1901850D01*
G01X3352800Y-1898193D01*
G01X3351378Y-1896516D01*
G01X3350158Y-1894840D01*
G01X3349193Y-1893113D01*
G01X3348228Y-1891182D01*
G01X3347466Y-1889506D01*
G01X3346755Y-1887525D01*
G01X3346044Y-1885137D01*
G01X3345536Y-1882953D01*
G01X3345332Y-1877619D01*
G01X3276448D01*
G01Y-1946453D01*
G01X3345332D01*
G01Y-1944268D01*
G01X3352597D01*
G01X3357982Y-1944167D01*
G01X3359607Y-1943811D01*
G01X3358642Y-1942846D01*
G01X3356712Y-1941627D01*
G01X3354273Y-1939900D01*
G01X3352343Y-1938477D01*
G01X3348685Y-1934820D01*
G01X3347466Y-1933143D01*
G01X3346501Y-1931416D01*
G01X3345790Y-1929994D01*
G01X3345332Y-1927047D01*
G01X3345536Y-1923186D01*
G01X3346501Y-1920291D01*
G01X3347974Y-1918564D01*
G01X3349193Y-1917344D01*
G01X3351378Y-1916176D01*
G01X3354273Y-1915922D01*
G01X3356204Y-1916379D01*
G01X3357931Y-1917141D01*
G01X3359353Y-1918360D01*
G01X3360318Y-1919783D01*
G01X3360826Y-1921510D01*
G01X3360572Y-1924152D01*
G01X3359607Y-1927047D01*
G01X3357169Y-1930451D01*
G01X3356000Y-1932381D01*
G01X3355746Y-1934108D01*
G01X3356458Y-1935785D01*
G01X3357423Y-1937258D01*
G01X3358642Y-1938477D01*
G01X3359861Y-1939442D01*
G01X3363265Y-1941830D01*
G01X3364941Y-1942846D01*
G01X3366872Y-1943811D01*
G01X3385312Y-1944268D01*
G01X3404210Y-1944014D01*
G01X3407613Y-1943557D01*
G01X3410509Y-1942846D01*
G01X3412236Y-1941830D01*
G01X3413912Y-1940154D01*
G01X3415132Y-1937969D01*
G01X3415589Y-1936039D01*
G01X3416097Y-1932635D01*
G01X3416402Y-1931924D01*
G01X3417316Y-1931670D01*
G01X3418535D01*
G01Y-1950110D01*
G01X3418027Y-1968500D01*
G01X3416808Y-1968297D01*
G01X3415843Y-1967281D01*
G01X3415589Y-1965147D01*
G01X3415132Y-1962709D01*
G01X3414166Y-1960524D01*
G01X3412693Y-1958797D01*
G01X3410763Y-1957832D01*
G01X3386988Y-1957375D01*
G01X3362046Y-1957629D01*
G01X3358642Y-1958340D01*
G01X3356966Y-1959305D01*
G01X3356000Y-1960524D01*
G01X3355492Y-1962455D01*
G01X3355746Y-1964893D01*
G01X3356204Y-1966824D01*
G01Y-1968297D01*
G01X3355797Y-1968805D01*
G01X3354984Y-1969008D01*
G01X3353562Y-1968297D01*
G01X3352597Y-1966316D01*
G01X3350666Y-1961490D01*
G01X3349650Y-1959305D01*
G01X3345790Y-1949602D01*
G01X3345332Y-1946453D01*
G01X3276448D01*
G01Y-1990344D01*
G01X3323488D01*
G01Y-1988871D01*
G01X3347263D01*
G01Y-1971904D01*
G01X3352597D01*
G01Y-1988871D01*
G01X3376574D01*
G01X3401314Y-1988617D01*
G01X3403244Y-1988414D01*
G01X3405429Y-1987906D01*
G01X3407613Y-1986940D01*
G01X3409544Y-1985264D01*
G01X3410509Y-1983283D01*
G01Y-1981149D01*
G01X3409798Y-1978711D01*
G01X3408832Y-1976780D01*
G01X3407105Y-1974799D01*
G01X3405175Y-1973631D01*
G01X3404667Y-1973072D01*
G01X3404464Y-1971904D01*
G01X3404667Y-1970837D01*
G01X3405175Y-1970481D01*
G01X3406648Y-1970938D01*
G01X3408578Y-1971904D01*
G01X3410763Y-1973123D01*
G01X3412439Y-1974342D01*
G01X3416097Y-1977949D01*
G01X3417316Y-1979676D01*
G01X3418281Y-1981606D01*
G01X3418992Y-1983537D01*
G01X3419500Y-1987906D01*
G01X3418738Y-1992986D01*
G01X3417316Y-1995678D01*
G01X3416097Y-1997354D01*
G01X3414878Y-1998574D01*
G01X3413455Y-1999539D01*
G01X3411474Y-2000504D01*
G01X3409544Y-2001266D01*
G01X3405683Y-2001723D01*
G01X3378759Y-2001977D01*
G01X3352597D01*
G01Y-2013102D01*
G01X3351124D01*
G01X3349904Y-2012798D01*
G01X3349193Y-2011934D01*
G01X3347466Y-2008530D01*
G01X3346501Y-2007311D01*
G01X3343605Y-2003908D01*
G01X3340710Y-2001012D01*
G01X3338779Y-1999539D01*
G01X3337560Y-1998574D01*
G01X3335833Y-1997354D01*
G01X3333902Y-1996135D01*
G01X3330042Y-1994205D01*
G01X3326638Y-1992782D01*
G01X3324708Y-1992020D01*
G01X3323793Y-1991512D01*
G01X3323488Y-1990344D01*
G01X3276448D01*
G01Y-2047088D01*
G01X3345332D01*
G01X3345536Y-2040992D01*
G01X3346044Y-2038604D01*
G01X3346755Y-2035912D01*
G01X3347720Y-2033727D01*
G01X3348685Y-2031797D01*
G01X3349650Y-2030070D01*
G01X3350412Y-2028901D01*
G01X3351378Y-2027682D01*
G01X3353816Y-2025244D01*
G01X3354984Y-2024278D01*
G01X3356712Y-2023313D01*
G01X3358896Y-2022348D01*
G01X3361792Y-2021840D01*
G01X3364687Y-2022348D01*
G01X3366414Y-2023313D01*
G01X3367837Y-2024990D01*
G01X3368599Y-2028393D01*
G01X3368345Y-2031797D01*
G01X3367634Y-2033981D01*
G01X3366160Y-2035912D01*
G01X3363468Y-2037385D01*
G01X3359607Y-2038096D01*
G01X3356458Y-2038807D01*
G01X3354527Y-2039569D01*
G01X3352597Y-2040992D01*
G01X3351124Y-2043430D01*
G01X3350412Y-2045360D01*
G01X3350158Y-2047291D01*
G01X3350412Y-2050694D01*
G01X3351124Y-2054352D01*
G01X3352343Y-2056740D01*
G01X3353562Y-2058721D01*
G01X3355238Y-2060651D01*
G01X3357169Y-2062074D01*
G01X3358388Y-2063039D01*
G01X3360115Y-2064055D01*
G01X3362300Y-2065020D01*
G01X3364941Y-2065985D01*
G01X3367380Y-2066696D01*
G01X3370783Y-2067204D01*
G01X3375609Y-2067408D01*
G01X3380486Y-2067204D01*
G01X3383839Y-2066696D01*
G01X3386531Y-2066239D01*
G01X3389427Y-2065477D01*
G01X3391865Y-2064512D01*
G01X3394050Y-2063547D01*
G01X3398418Y-2061362D01*
G01X3400095Y-2060143D01*
G01X3401314Y-2059178D01*
G01X3402990Y-2057756D01*
G01X3404921Y-2055571D01*
G01X3406394Y-2053387D01*
G01X3407359Y-2051202D01*
G01X3408121Y-2049221D01*
G01X3408324Y-2045106D01*
G01X3408121Y-2040992D01*
G01X3407613Y-2038807D01*
G01X3406902Y-2036623D01*
G01X3405937Y-2034692D01*
G01X3404921Y-2033016D01*
G01X3403956Y-2031543D01*
G01X3402787Y-2030070D01*
G01X3401568Y-2028901D01*
G01X3399841Y-2027428D01*
G01X3398164Y-2026209D01*
G01X3396437Y-2025244D01*
G01X3392576Y-2023313D01*
G01X3390900Y-2022348D01*
G01Y-2020875D01*
G01X3391408Y-2020214D01*
G01X3392119Y-2020164D01*
G01X3394507Y-2020621D01*
G01X3397199Y-2021383D01*
G01X3399638Y-2022348D01*
G01X3401771Y-2023313D01*
G01X3406140Y-2025498D01*
G01X3408578Y-2027174D01*
G01X3410509Y-2028647D01*
G01X3414166Y-2032254D01*
G01X3415132Y-2033473D01*
G01X3416097Y-2034946D01*
G01X3417316Y-2036877D01*
G01X3418281Y-2038807D01*
G01X3418992Y-2040534D01*
G01X3419754Y-2042465D01*
G01X3420212Y-2044395D01*
G01X3420466Y-2049983D01*
G01X3419958Y-2056536D01*
G01X3418992Y-2059178D01*
G01X3418027Y-2061362D01*
G01X3416808Y-2063801D01*
G01X3414420Y-2067204D01*
G01X3412947Y-2068881D01*
G01X3410052Y-2071776D01*
G01X3408121Y-2073250D01*
G01X3406902Y-2074215D01*
G01X3405175Y-2075180D01*
G01X3401314Y-2077110D01*
G01X3398622Y-2078076D01*
G01X3396437Y-2078838D01*
G01X3391611Y-2079803D01*
G01X3383636Y-2080514D01*
G01X3380943Y-2080260D01*
G01X3376117Y-2079803D01*
G01X3373679Y-2079295D01*
G01X3370275Y-2078584D01*
G01X3367380Y-2077618D01*
G01X3364941Y-2076653D01*
G01X3363011Y-2075688D01*
G01X3361080Y-2074469D01*
G01X3358642Y-2072742D01*
G01X3356712Y-2071319D01*
G01X3352597Y-2067204D01*
G01X3351124Y-2065223D01*
G01X3350158Y-2064055D01*
G01X3349193Y-2062328D01*
G01X3348228Y-2060397D01*
G01X3347466Y-2058721D01*
G01X3346755Y-2056740D01*
G01X3346044Y-2054555D01*
G01X3345536Y-2052625D01*
G01X3345332Y-2047088D01*
G01X3276448D01*
G01Y-2118563D01*
G01X3345332D01*
G01X3345536Y-2112772D01*
G01X3346044Y-2110334D01*
G01X3346755Y-2107692D01*
G01X3347720Y-2105508D01*
G01X3349447Y-2102104D01*
G01X3350412Y-2100885D01*
G01X3351632Y-2099412D01*
G01X3353308Y-2097481D01*
G01X3355746Y-2095551D01*
G01X3357931Y-2094078D01*
G01X3359607Y-2093112D01*
G01X3361334Y-2092401D01*
G01X3363265Y-2091690D01*
G01X3365906Y-2090928D01*
G01X3368345Y-2090471D01*
G01X3371748Y-2090217D01*
G01X3374390D01*
G01Y-2139645D01*
G01X3375863D01*
G01X3382416Y-2138934D01*
G01X3384804Y-2138477D01*
G01X3387954Y-2137715D01*
G01X3390646Y-2136750D01*
G01X3393084Y-2135784D01*
G01X3395269Y-2134565D01*
G01X3397199Y-2133346D01*
G01X3398622Y-2132178D01*
G01X3402279Y-2128520D01*
G01X3403752Y-2126844D01*
G01X3404921Y-2125116D01*
G01X3405937Y-2123440D01*
G01X3406902Y-2120748D01*
G01X3407613Y-2118563D01*
G01X3407867Y-2113991D01*
G01X3407359Y-2108403D01*
G01X3406394Y-2105508D01*
G01X3405429Y-2103526D01*
G01X3404210Y-2101596D01*
G01X3402787Y-2099920D01*
G01X3401568Y-2098700D01*
G01X3399841Y-2097227D01*
G01X3398164Y-2096008D01*
G01X3396437Y-2095043D01*
G01X3394507Y-2094078D01*
G01X3392830Y-2093366D01*
G01X3391611Y-2092655D01*
G01X3392119Y-2091182D01*
G01X3392830Y-2090522D01*
G01X3393542Y-2090471D01*
G01X3395980Y-2090928D01*
G01X3398622Y-2091690D01*
G01X3401060Y-2092655D01*
G01X3403752Y-2093874D01*
G01X3406140Y-2095297D01*
G01X3407867Y-2096516D01*
G01X3409290Y-2097481D01*
G01X3413658Y-2101139D01*
G01X3415589Y-2103526D01*
G01X3416808Y-2105254D01*
G01X3418027Y-2107438D01*
G01X3418992Y-2109622D01*
G01X3419754Y-2111807D01*
G01X3420212Y-2113737D01*
G01X3420466Y-2119782D01*
G01X3420212Y-2125624D01*
G01X3419500Y-2127809D01*
G01X3418535Y-2130450D01*
G01X3417570Y-2132635D01*
G01X3416351Y-2134819D01*
G01X3415386Y-2136496D01*
G01X3414420Y-2137715D01*
G01X3411474Y-2141118D01*
G01X3410255Y-2142084D01*
G01X3408578Y-2143557D01*
G01X3406140Y-2145233D01*
G01X3404210Y-2146452D01*
G01X3402279Y-2147418D01*
G01X3399638Y-2148383D01*
G01X3396437Y-2149348D01*
G01X3394050Y-2150110D01*
G01X3390646Y-2150567D01*
G01X3384601Y-2150821D01*
G01X3378048Y-2150567D01*
G01X3374644Y-2150110D01*
G01X3370783Y-2149348D01*
G01X3367634Y-2148383D01*
G01X3364941Y-2147418D01*
G01X3361080Y-2145487D01*
G01X3358642Y-2144014D01*
G01X3356204Y-2142084D01*
G01X3354273Y-2140661D01*
G01X3350412Y-2135784D01*
G01X3349193Y-2134108D01*
G01X3348228Y-2132178D01*
G01X3347466Y-2130450D01*
G01X3346755Y-2128520D01*
G01X3346044Y-2126336D01*
G01X3345536Y-2124405D01*
G01X3345332Y-2118563D01*
G01X3276448D01*
G01Y-2174088D01*
G01X3307994D01*
G01Y-2171649D01*
G01X3355746D01*
G01X3405683Y-2171446D01*
G01X3409544Y-2170938D01*
G01X3412439Y-2169973D01*
G01X3414166Y-2168500D01*
G01X3415132Y-2166823D01*
G01X3415589Y-2164639D01*
G01X3415843Y-2162708D01*
G01X3416097Y-2160981D01*
G01X3416402Y-2160270D01*
G01X3417316Y-2160016D01*
G01X3418535D01*
G01Y-2177745D01*
G01X3418027Y-2195424D01*
G01X3416808Y-2195170D01*
G01X3415843Y-2194204D01*
G01X3415386Y-2190344D01*
G01X3414878Y-2188616D01*
G01X3413912Y-2187194D01*
G01X3412693Y-2186229D01*
G01X3411017Y-2185467D01*
G01X3409086Y-2185010D01*
G01X3368091Y-2184756D01*
G01X3325673Y-2185010D01*
G01X3322269Y-2185467D01*
G01X3320339Y-2186229D01*
G01X3318866Y-2187194D01*
G01X3318358Y-2188159D01*
G01X3318154Y-2190090D01*
G01X3318662Y-2193493D01*
G01Y-2195170D01*
G01X3317189Y-2196135D01*
G01X3316326Y-2195982D01*
G01X3315716Y-2194966D01*
G01X3314751Y-2192528D01*
G01X3314040Y-2190598D01*
G01X3313328Y-2188870D01*
G01X3312363Y-2186686D01*
G01X3311347Y-2184298D01*
G01X3310636Y-2182317D01*
G01X3308452Y-2177237D01*
G01X3307994Y-2174088D01*
G01X3276448D01*
G01Y-2295804D01*
G01X3313328D01*
G01Y-2213864D01*
G01X3315259D01*
G01X3317900Y-2213610D01*
G01X3327603Y-2213102D01*
G01X3332226Y-2212899D01*
G01X3336087D01*
G01Y-2216252D01*
G01X3334410Y-2216506D01*
G01X3331261Y-2217268D01*
G01X3326892Y-2218690D01*
G01X3324962Y-2219655D01*
G01X3323742Y-2220417D01*
G01X3322523Y-2221382D01*
G01X3321304Y-2223059D01*
G01X3320085Y-2225243D01*
G01X3319374Y-2227174D01*
G01X3318866Y-2233016D01*
G01X3318662Y-2249475D01*
G01Y-2265223D01*
G01X3360826D01*
G01Y-2254098D01*
G01X3360572Y-2240737D01*
G01X3360115Y-2236419D01*
G01X3359353Y-2233270D01*
G01X3358642Y-2231288D01*
G01X3357677Y-2229866D01*
G01X3356458Y-2228901D01*
G01X3354984Y-2227936D01*
G01X3352597Y-2226920D01*
G01X3350412Y-2226208D01*
G01X3347466Y-2225954D01*
G01X3345332D01*
G01Y-2222602D01*
G01X3381654D01*
G01Y-2225954D01*
G01X3379470Y-2226208D01*
G01X3376574Y-2226716D01*
G01X3374390Y-2227174D01*
G01X3372206Y-2227936D01*
G01X3370783Y-2228901D01*
G01X3369056Y-2230577D01*
G01X3367634Y-2233016D01*
G01X3366872Y-2234946D01*
G01X3366414Y-2239315D01*
G01X3366160Y-2252624D01*
G01Y-2265223D01*
G01X3386988D01*
G01X3409290Y-2264766D01*
G01X3411728Y-2263038D01*
G01X3412693Y-2260905D01*
G01X3412947Y-2259178D01*
G01X3413201Y-2247798D01*
G01X3412947Y-2236419D01*
G01X3412439Y-2230069D01*
G01X3411982Y-2227682D01*
G01X3411271Y-2224735D01*
G01X3410052Y-2222348D01*
G01X3407613Y-2218944D01*
G01X3406140Y-2217268D01*
G01X3403752Y-2215286D01*
G01X3401771Y-2213864D01*
G01X3399384Y-2212137D01*
G01X3396945Y-2210714D01*
G01X3395015Y-2209495D01*
G01X3393288Y-2208784D01*
G01X3392576Y-2208174D01*
G01X3392322Y-2206803D01*
G01X3392576Y-2205126D01*
G01X3394304Y-2205634D01*
G01X3400095Y-2207565D01*
G01X3405429Y-2209495D01*
G01X3418535Y-2213864D01*
G01Y-2295804D01*
G01X3417316D01*
G01X3416402Y-2295449D01*
G01X3416097Y-2294331D01*
G01X3415843Y-2291690D01*
G01X3415386Y-2288743D01*
G01X3414624Y-2286356D01*
G01X3413912Y-2284628D01*
G01X3412439Y-2282698D01*
G01X3410255Y-2281479D01*
G01X3408578Y-2281022D01*
G01X3366872Y-2280768D01*
G01X3324708Y-2281022D01*
G01X3322269Y-2281479D01*
G01X3319831Y-2282190D01*
G01X3317900Y-2283917D01*
G01X3316681Y-2286102D01*
G01X3316224Y-2288032D01*
G01X3315970Y-2289708D01*
G01X3315716Y-2293112D01*
G01Y-2295804D01*
G01X3313328D01*
G01X3276448D01*
G01Y-2298700D01*
G01X3454400D01*
G01Y-661873D01*
G37*
G36*
G01X3364484Y-803453D02*
G01X3350870Y-803656D01*
G01X3348685Y-803910D01*
G01X3346044Y-804164D01*
G01X3342640Y-804621D01*
G01X3339744Y-805129D01*
G01X3337306Y-805586D01*
G01X3333902Y-806348D01*
G01X3330753Y-807314D01*
G01X3328111Y-808279D01*
G01X3325927Y-809244D01*
G01X3323996Y-810209D01*
G01X3322015Y-811428D01*
G01X3320339Y-812648D01*
G01X3318662Y-814324D01*
G01X3317189Y-816762D01*
G01X3316478Y-818693D01*
G01X3316224Y-821588D01*
G01X3316681Y-824738D01*
G01X3317697Y-826922D01*
G01X3318662Y-828650D01*
G01X3319628Y-829869D01*
G01X3321304Y-831545D01*
G01X3323742Y-833222D01*
G01X3325673Y-834441D01*
G01X3329076Y-835914D01*
G01X3331261Y-836625D01*
G01X3333648Y-837387D01*
G01X3336341Y-838098D01*
G01X3338779Y-838556D01*
G01X3342183Y-839064D01*
G01X3346044Y-839572D01*
G01X3350412Y-840029D01*
G01X3356204Y-840537D01*
G01X3367634Y-840740D01*
G01X3379013Y-840537D01*
G01X3380943Y-840283D01*
G01X3383839Y-840029D01*
G01X3387750Y-839572D01*
G01X3390646Y-839064D01*
G01X3393084Y-838556D01*
G01X3396437Y-837844D01*
G01X3398876Y-837133D01*
G01X3400806Y-836625D01*
G01X3402990Y-835914D01*
G01X3405429Y-834949D01*
G01X3407613Y-833984D01*
G01X3409544Y-832764D01*
G01X3411271Y-831545D01*
G01X3412439Y-830580D01*
G01X3413912Y-828904D01*
G01X3415132Y-826719D01*
G01X3415589Y-824535D01*
G01X3415843Y-823062D01*
G01Y-821588D01*
G01X3415132Y-818947D01*
G01X3414166Y-816762D01*
G01X3413201Y-815086D01*
G01X3411982Y-813613D01*
G01X3409544Y-811174D01*
G01X3408121Y-810209D01*
G01X3405175Y-808736D01*
G01X3402990Y-807771D01*
G01X3399841Y-806806D01*
G01X3397453Y-806094D01*
G01X3392119Y-805129D01*
G01X3388716Y-804621D01*
G01X3384347Y-804164D01*
G01X3378048Y-803656D01*
G37*
G36*
G01X3391103Y-1164641D02*
G01X3377540Y-1164895D01*
G01X3377133Y-1165403D01*
G01X3377286Y-1166571D01*
G01X3378302Y-1169010D01*
G01X3379267Y-1171194D01*
G01X3380232Y-1173632D01*
G01X3382162Y-1177950D01*
G01X3383382Y-1180389D01*
G01X3384804Y-1182573D01*
G01X3385769Y-1184300D01*
G01X3386785Y-1185469D01*
G01X3389173Y-1187907D01*
G01X3390900Y-1189126D01*
G01X3393084Y-1190346D01*
G01X3395015Y-1191057D01*
G01X3397453Y-1191311D01*
G01X3400806Y-1191057D01*
G01X3403752Y-1190346D01*
G01X3405683Y-1189380D01*
G01X3407613Y-1188161D01*
G01X3409544Y-1186231D01*
G01X3410763Y-1184300D01*
G01X3411271Y-1182319D01*
G01X3411474Y-1180897D01*
G01Y-1179932D01*
G01X3411017Y-1177950D01*
G01X3410255Y-1175309D01*
G01X3409290Y-1173124D01*
G01X3408324Y-1171448D01*
G01X3407105Y-1169467D01*
G01X3405937Y-1167790D01*
G01X3404921Y-1166571D01*
G01X3404210Y-1165352D01*
G01X3400806Y-1164844D01*
G37*
G36*
G01X3388208Y-1229614D02*
G01X3385312Y-1229868D01*
G01X3382620Y-1230071D01*
G01X3379470Y-1230325D01*
G01X3376574Y-1230833D01*
G01X3373425Y-1231544D01*
G01X3369056Y-1233018D01*
G01X3366872Y-1233983D01*
G01X3365195Y-1234948D01*
G01X3363011Y-1236421D01*
G01X3361080Y-1237844D01*
G01X3359861Y-1239063D01*
G01X3358896Y-1240282D01*
G01X3357931Y-1241755D01*
G01X3356966Y-1243686D01*
G01X3356204Y-1246327D01*
G01Y-1250239D01*
G01X3356966Y-1253388D01*
G01X3357931Y-1255573D01*
G01X3359353Y-1257960D01*
G01X3360826Y-1259891D01*
G01X3365652Y-1264768D01*
G01X3369920Y-1265326D01*
G01X3381654Y-1265479D01*
G01X3397910Y-1265225D01*
G01X3400349Y-1265022D01*
G01X3403244Y-1264768D01*
G01X3405175Y-1264260D01*
G01X3407105Y-1263548D01*
G01X3409290Y-1262329D01*
G01X3411017Y-1261110D01*
G01X3412236Y-1259891D01*
G01X3413455Y-1258214D01*
G01X3414420Y-1256538D01*
G01X3415132Y-1254811D01*
G01X3415589Y-1252880D01*
G01X3415843Y-1251661D01*
G01X3416097Y-1249020D01*
G01X3415589Y-1244905D01*
G01X3414624Y-1241958D01*
G01X3413658Y-1240282D01*
G01X3412439Y-1238555D01*
G01X3411017Y-1236878D01*
G01X3409086Y-1235405D01*
G01X3406902Y-1233983D01*
G01X3405175Y-1233018D01*
G01X3403244Y-1232256D01*
G01X3401060Y-1231544D01*
G01X3398622Y-1230833D01*
G01X3396437Y-1230325D01*
G01X3391103Y-1229868D01*
G37*
G36*
G01X3388716Y-1435202D02*
G01X3379978Y-1435405D01*
G01X3376574Y-1435913D01*
G01X3371748Y-1436878D01*
G01X3369056Y-1437589D01*
G01X3366872Y-1438351D01*
G01X3364941Y-1439062D01*
G01X3360572Y-1441247D01*
G01X3357169Y-1443685D01*
G01X3355492Y-1445108D01*
G01X3354273Y-1446327D01*
G01X3352800Y-1448054D01*
G01X3351632Y-1449984D01*
G01X3350870Y-1451915D01*
G01X3350412Y-1453845D01*
G01X3350158Y-1456030D01*
G01X3350412Y-1459179D01*
G01X3351124Y-1462075D01*
G01X3352089Y-1464259D01*
G01X3353054Y-1465986D01*
G01X3354019Y-1467409D01*
G01X3355746Y-1469136D01*
G01X3357931Y-1470558D01*
G01X3359607Y-1471524D01*
G01X3361334Y-1472286D01*
G01X3363265Y-1472997D01*
G01X3365652Y-1473708D01*
G01X3367837Y-1474216D01*
G01X3373171Y-1474724D01*
G01X3376574Y-1474927D01*
G01X3379978Y-1474724D01*
G01X3385312Y-1474216D01*
G01X3388716Y-1473708D01*
G01X3390900Y-1473251D01*
G01X3394050Y-1472540D01*
G01X3397199Y-1471524D01*
G01X3399638Y-1470558D01*
G01X3401771Y-1469593D01*
G01X3403752Y-1468628D01*
G01X3405429Y-1467663D01*
G01X3407613Y-1466240D01*
G01X3409544Y-1464767D01*
G01X3411271Y-1463040D01*
G01X3412693Y-1461110D01*
G01X3413658Y-1459687D01*
G01X3414420Y-1457503D01*
G01X3414878Y-1455776D01*
G01X3415132Y-1453134D01*
G01X3414878Y-1449476D01*
G01X3414420Y-1447546D01*
G01X3413658Y-1445616D01*
G01X3412693Y-1443888D01*
G01X3411982Y-1442720D01*
G01X3410509Y-1440993D01*
G01X3408578Y-1439570D01*
G01X3407105Y-1438554D01*
G01X3405175Y-1437589D01*
G01X3402279Y-1436624D01*
G01X3399841Y-1435913D01*
G01X3396437Y-1435405D01*
G37*
G36*
G01X3388208Y-1856994D02*
G01X3384347Y-1857248D01*
G01X3382416Y-1857502D01*
G01X3379013Y-1857705D01*
G01X3375609Y-1858213D01*
G01X3373171Y-1858721D01*
G01X3369310Y-1859686D01*
G01X3367126Y-1860398D01*
G01X3364687Y-1861363D01*
G01X3362046Y-1862582D01*
G01X3360115Y-1863801D01*
G01X3358642Y-1864512D01*
G01X3354984Y-1867408D01*
G01X3353054Y-1869846D01*
G01X3352089Y-1871320D01*
G01X3351124Y-1873504D01*
G01X3350412Y-1875688D01*
G01X3350158Y-1878584D01*
G01X3350666Y-1882445D01*
G01X3351632Y-1885391D01*
G01X3352597Y-1887322D01*
G01X3353562Y-1888998D01*
G01X3354781Y-1890471D01*
G01X3356000Y-1891436D01*
G01X3357423Y-1892402D01*
G01X3359607Y-1893621D01*
G01X3361792Y-1894586D01*
G01X3363722Y-1895297D01*
G01X3366618Y-1896008D01*
G01X3369310Y-1896516D01*
G01X3376574Y-1896770D01*
G01X3383839Y-1896516D01*
G01X3385566Y-1896262D01*
G01X3387750Y-1896008D01*
G01X3390138Y-1895551D01*
G01X3392119Y-1895043D01*
G01X3394304Y-1894586D01*
G01X3396691Y-1893875D01*
G01X3399130Y-1892859D01*
G01X3401314Y-1891894D01*
G01X3406648Y-1889252D01*
G01X3409086Y-1887322D01*
G01X3410763Y-1885848D01*
G01X3412236Y-1883918D01*
G01X3413455Y-1882191D01*
G01X3414420Y-1879803D01*
G01X3414878Y-1878076D01*
G01X3415132Y-1875180D01*
G01X3414878Y-1871320D01*
G01X3414166Y-1868881D01*
G01X3412439Y-1865478D01*
G01X3411474Y-1864258D01*
G01X3410255Y-1863039D01*
G01X3408578Y-1861617D01*
G01X3406648Y-1860398D01*
G01X3404921Y-1859686D01*
G01X3402990Y-1858924D01*
G01X3400349Y-1858213D01*
G01X3397910Y-1857705D01*
G01X3392119Y-1857248D01*
G37*
G36*
G01X3367380Y-2106930D02*
G01X3363976Y-2107438D01*
G01X3360826Y-2108149D01*
G01X3358642Y-2109114D01*
G01X3357169Y-2109876D01*
G01X3356000Y-2110842D01*
G01X3353562Y-2113229D01*
G01X3352597Y-2114702D01*
G01X3351835Y-2116176D01*
G01X3351124Y-2117852D01*
G01X3350666Y-2121256D01*
G01X3350870Y-2124862D01*
G01X3351632Y-2127555D01*
G01X3352800Y-2129993D01*
G01X3354273Y-2132178D01*
G01X3356204Y-2134311D01*
G01X3358134Y-2135784D01*
G01X3359607Y-2136750D01*
G01X3361538Y-2137715D01*
G01X3364484Y-2138680D01*
G01X3367837Y-2139442D01*
G01X3369818D01*
G01X3370021Y-2123186D01*
G01X3369564Y-2106930D01*
G37*
G04 Text End*

G04 PolygonModel Start*
G54D11*
G01X2096958Y-972914D02*
G01X2096958Y-1592674D01*
G01X2096958Y-1592674D02*
G01X1431478Y-1592674D01*
G01X1431478Y-1592674D02*
G01X1431478Y-929734D01*
G01X1431478Y-929734D02*
G01X2096958Y-929734D01*
G01X2096958Y-929734D02*
G01X2096958Y-1005934D01*
G54D12*
G01X1356950Y-923475D02*
G03X1356950Y-923729I-19990J-127D01*
G54D13*
G01X2587750Y-714497D02*
G01X2587750Y-794499D01*
G01X2476775Y-683511D02*
G01X2556772Y-683511D01*
G01X2476775Y-825477D02*
G01X2556772Y-825477D01*
G01X2419185Y-682930D02*
G01X2339185Y-682930D01*
G01X2308202Y-713913D02*
G01X2308202Y-793910D01*
G01X2419185Y-824890D02*
G01X2339185Y-824890D01*
G01X2308197Y-713913D02*
G02X2339180Y-682930I30983J0D01*
G01X2339180Y-824895D02*
G02X2308197Y-793910I0J30983D01*
G01X2556767Y-683511D02*
G02X2587750Y-714497I0J-30983D01*
G01X2587750Y-794494D02*
G02X2556767Y-825477I-30983J0D01*
G01X2092450Y-1882897D02*
G01X2092450Y-1962899D01*
G01X1981475Y-1851911D02*
G01X2061472Y-1851911D01*
G01X1981475Y-1993877D02*
G01X2061472Y-1993877D01*
G01X1923885Y-1851330D02*
G01X1843885Y-1851330D01*
G01X1812902Y-1882313D02*
G01X1812902Y-1962310D01*
G01X1923885Y-1993290D02*
G01X1843885Y-1993290D01*
G01X1812897Y-1882313D02*
G02X1843880Y-1851330I30983J0D01*
G01X1843880Y-1993295D02*
G02X1812897Y-1962310I0J30983D01*
G01X2061467Y-1851911D02*
G02X2092450Y-1882897I0J-30983D01*
G01X2092450Y-1962894D02*
G02X2061467Y-1993877I-30983J0D01*
G01X1597150Y-511297D02*
G01X1597150Y-591299D01*
G01X1486175Y-480311D02*
G01X1566172Y-480311D01*
G01X1486175Y-622277D02*
G01X1566172Y-622277D01*
G01X1428585Y-479730D02*
G01X1348585Y-479730D01*
G01X1317602Y-510713D02*
G01X1317602Y-590710D01*
G01X1428585Y-621690D02*
G01X1348585Y-621690D01*
G01X1317597Y-510713D02*
G02X1348580Y-479730I30983J0D01*
G01X1348580Y-621695D02*
G02X1317597Y-590710I0J30983D01*
G01X1566167Y-480311D02*
G02X1597150Y-511297I0J-30983D01*
G01X1597150Y-591294D02*
G02X1566167Y-622277I-30983J0D01*
G01X1343759Y-1666997D02*
G01X1343759Y-1746999D01*
G01X1232784Y-1636011D02*
G01X1312781Y-1636011D01*
G01X1232784Y-1777977D02*
G01X1312781Y-1777977D01*
G01X1175195Y-1635430D02*
G01X1095195Y-1635430D01*
G01X1064212Y-1666413D02*
G01X1064212Y-1746410D01*
G01X1175195Y-1777390D02*
G01X1095195Y-1777390D01*
G01X1064207Y-1666413D02*
G02X1095190Y-1635430I30983J0D01*
G01X1095190Y-1777395D02*
G02X1064207Y-1746410I0J30983D01*
G01X1312776Y-1636011D02*
G02X1343759Y-1666997I0J-30983D01*
G01X1343759Y-1746994D02*
G02X1312776Y-1777977I-30983J0D01*
G01X949755Y-1666997D02*
G01X949755Y-1746999D01*
G01X838779Y-1636011D02*
G01X918777Y-1636011D01*
G01X838779Y-1777977D02*
G01X918777Y-1777977D01*
G01X781190Y-1635430D02*
G01X701190Y-1635430D01*
G01X670207Y-1666413D02*
G01X670207Y-1746410D01*
G01X781190Y-1777390D02*
G01X701190Y-1777390D01*
G01X670202Y-1666413D02*
G02X701185Y-1635430I30983J0D01*
G01X701185Y-1777395D02*
G02X670202Y-1746410I0J30983D01*
G01X918772Y-1636011D02*
G02X949755Y-1666997I0J-30983D01*
G01X949755Y-1746994D02*
G02X918772Y-1777977I-30983J0D01*
G01X950999Y-715038D02*
G01X950999Y-795040D01*
G01X840024Y-684052D02*
G01X920021Y-684052D01*
G01X840024Y-826018D02*
G01X920021Y-826018D01*
G01X782435Y-683471D02*
G01X702435Y-683471D01*
G01X671452Y-714454D02*
G01X671452Y-794451D01*
G01X782435Y-825431D02*
G01X702435Y-825431D01*
G01X671447Y-714454D02*
G02X702430Y-683471I30983J0D01*
G01X702430Y-825436D02*
G02X671447Y-794451I0J30983D01*
G01X920016Y-684052D02*
G02X950999Y-715038I0J-30983D01*
G01X950999Y-795035D02*
G02X920016Y-826018I-30983J0D01*
G01X740446Y-1556860D02*
G01X625435Y-1556860D01*
G01X625435Y-1556860D02*
G01X625435Y-891888D01*
G01X625435Y-891888D02*
G01X740446Y-891888D01*
G01X880451Y-891888D02*
G01X995436Y-891888D01*
G01X995436Y-891888D02*
G01X995436Y-1556860D01*
G01X995436Y-1556860D02*
G01X880451Y-1556860D01*
G01X880448Y-1556875D02*
G01X740448Y-1556875D01*
G01X740448Y-891875D02*
G01X880448Y-891875D01*
G54D14*
G01X809508Y-1286116D02*
G01X809508Y-1316116D01*
G01X909508Y-1276114D02*
G01X699498Y-1276114D01*
G01X899498Y-1206109D02*
G01X709509Y-1206109D01*
G01X709509Y-1206109D02*
G01X709509Y-1246111D01*
G01X709509Y-1246111D02*
G01X899498Y-1246111D01*
G01X899498Y-1246111D02*
G01X899498Y-1206109D01*
G01X909508Y-1176114D02*
G01X699498Y-1176114D01*
G01X810448Y-1130394D02*
G01X810448Y-1165954D01*
G54D13*
G01X3101855Y-1863806D02*
G01X3181857Y-1863806D01*
G01X3070869Y-1974781D02*
G01X3070869Y-1894784D01*
G01X3212835Y-1974781D02*
G01X3212835Y-1894784D01*
G01X3070287Y-2032371D02*
G01X3070287Y-2112371D01*
G01X3101270Y-2143354D02*
G01X3181268Y-2143354D01*
G01X3212248Y-2032371D02*
G01X3212248Y-2112371D01*
G01X3101270Y-2143359D02*
G02X3070287Y-2112376I0J30983D01*
G01X3212253Y-2112376D02*
G02X3181268Y-2143359I-30983J0D01*
G01X3070869Y-1894789D02*
G02X3101855Y-1863806I30983J0D01*
G01X3181852Y-1863806D02*
G02X3212835Y-1894789I0J-30983D01*
G54D10*
G01X2582433Y-1170456D02*
G01X3247675Y-1170456D01*
G01X3247675Y-1170456D02*
G01X3247675Y-1444735D01*
G01X3247675Y-1444735D02*
G01X2582433Y-1444735D01*
G01X2582433Y-1444735D02*
G01X2582433Y-1170456D01*
G54D13*
G01X2953209Y-2141809D02*
G01X2873206Y-2141809D01*
G01X2984194Y-2030834D02*
G01X2984194Y-2110831D01*
G01X2842229Y-2030834D02*
G01X2842229Y-2110831D01*
G01X2984776Y-1973245D02*
G01X2984776Y-1893245D01*
G01X2953793Y-1862262D02*
G01X2873796Y-1862262D01*
G01X2842815Y-1973245D02*
G01X2842815Y-1893245D01*
G01X2953793Y-1862257D02*
G02X2984776Y-1893240I0J-30983D01*
G01X2842810Y-1893240D02*
G02X2873796Y-1862257I30983J0D01*
G01X2984194Y-2110826D02*
G02X2953209Y-2141809I-30983J0D01*
G01X2873211Y-2141809D02*
G02X2842229Y-2110826I0J30983D01*
G54D16*
G01X2717667Y-1975561D02*
G01X2717667Y-1976552D01*
G01X2717667Y-1976552D02*
G01X2684665Y-2009562D01*
G01X2649663Y-1975561D02*
G01X2650664Y-1975561D01*
G01X2650664Y-1975561D02*
G01X2684665Y-2009562D01*
G01X2649663Y-1975561D02*
G01X2717667Y-1975561D01*
G01X2609661Y-1973557D02*
G01X2609661Y-1858551D01*
G01X2759673Y-1973557D02*
G01X2759673Y-1858551D01*
G01X2609666Y-1858551D02*
G01X2757664Y-1858551D01*
G01X2759902Y-2011558D02*
G01X2759902Y-2116569D01*
G01X2719892Y-2146564D02*
G01X2729894Y-2146564D01*
G01X2729894Y-2146564D02*
G01X2759902Y-2116569D01*
G01X2649900Y-2146564D02*
G01X2719892Y-2146564D01*
G01X2649900Y-2146564D02*
G01X2639884Y-2146564D01*
G01X2639884Y-2146564D02*
G01X2609890Y-2116569D01*
G01X2609890Y-2011558D02*
G01X2609890Y-2116569D01*
G01X2684665Y-1975561D02*
G01X2684665Y-2009562D01*
G54D10*
G01X2534792Y-1947487D02*
G01X2534792Y-1851599D01*
G01X2534792Y-1851599D02*
G01X2402671Y-1851599D01*
G01X2402671Y-1851599D02*
G01X2402671Y-1947487D01*
G01X2534792Y-2032729D02*
G01X2534792Y-2128617D01*
G01X2534792Y-2128617D02*
G01X2402671Y-2128617D01*
G01X2402671Y-2128617D02*
G01X2402671Y-2032729D01*
G54D16*
G01X375288Y-1918715D02*
G01X374297Y-1918715D01*
G01X374297Y-1918715D02*
G01X341287Y-1885713D01*
G01X375288Y-1850711D02*
G01X375288Y-1851712D01*
G01X375288Y-1851712D02*
G01X341287Y-1885713D01*
G01X375288Y-1850711D02*
G01X375288Y-1918715D01*
G01X377292Y-1810709D02*
G01X492298Y-1810709D01*
G01X377292Y-1960721D02*
G01X492298Y-1960721D01*
G01X492298Y-1810714D02*
G01X492298Y-1958712D01*
G01X339291Y-1960950D02*
G01X234280Y-1960950D01*
G01X204285Y-1920940D02*
G01X204285Y-1930942D01*
G01X204285Y-1930942D02*
G01X234280Y-1960950D01*
G01X204285Y-1850948D02*
G01X204285Y-1920940D01*
G01X204285Y-1850948D02*
G01X204285Y-1840932D01*
G01X204285Y-1840932D02*
G01X234280Y-1810937D01*
G01X339291Y-1810937D02*
G01X234280Y-1810937D01*
G01X375288Y-1885713D02*
G01X341287Y-1885713D01*
G54D10*
G01X385534Y-1730779D02*
G01X481422Y-1730779D01*
G01X481422Y-1730779D02*
G01X481422Y-1598658D01*
G01X481422Y-1598658D02*
G01X385534Y-1598658D01*
G01X300292Y-1730779D02*
G01X204404Y-1730779D01*
G01X204404Y-1730779D02*
G01X204404Y-1598658D01*
G01X204404Y-1598658D02*
G01X300292Y-1598658D01*
G54D16*
G01X375288Y-1476494D02*
G01X374297Y-1476494D01*
G01X374297Y-1476494D02*
G01X341287Y-1443491D01*
G01X375288Y-1408490D02*
G01X375288Y-1409491D01*
G01X375288Y-1409491D02*
G01X341287Y-1443491D01*
G01X375288Y-1408490D02*
G01X375288Y-1476494D01*
G01X377292Y-1368488D02*
G01X492298Y-1368488D01*
G01X377292Y-1518500D02*
G01X492298Y-1518500D01*
G01X492298Y-1368493D02*
G01X492298Y-1516491D01*
G01X339291Y-1518729D02*
G01X234280Y-1518729D01*
G01X204285Y-1478719D02*
G01X204285Y-1488721D01*
G01X204285Y-1488721D02*
G01X234280Y-1518729D01*
G01X204285Y-1408726D02*
G01X204285Y-1478719D01*
G01X204285Y-1408726D02*
G01X204285Y-1398711D01*
G01X204285Y-1398711D02*
G01X234280Y-1368716D01*
G01X339291Y-1368716D02*
G01X234280Y-1368716D01*
G01X375288Y-1443491D02*
G01X341287Y-1443491D01*
G54D10*
G01X385534Y-1288558D02*
G01X481422Y-1288558D01*
G01X481422Y-1288558D02*
G01X481422Y-1156437D01*
G01X481422Y-1156437D02*
G01X385534Y-1156437D01*
G01X300292Y-1288558D02*
G01X204404Y-1288558D01*
G01X204404Y-1288558D02*
G01X204404Y-1156437D01*
G01X204404Y-1156437D02*
G01X300292Y-1156437D01*
G54D16*
G01X375288Y-1034273D02*
G01X374297Y-1034273D01*
G01X374297Y-1034273D02*
G01X341287Y-1001270D01*
G01X375288Y-966269D02*
G01X375288Y-967270D01*
G01X375288Y-967270D02*
G01X341287Y-1001270D01*
G01X375288Y-966269D02*
G01X375288Y-1034273D01*
G01X377292Y-926267D02*
G01X492298Y-926267D01*
G01X377292Y-1076279D02*
G01X492298Y-1076279D01*
G01X492298Y-926272D02*
G01X492298Y-1074270D01*
G01X339291Y-1076508D02*
G01X234280Y-1076508D01*
G01X204285Y-1036498D02*
G01X204285Y-1046500D01*
G01X204285Y-1046500D02*
G01X234280Y-1076508D01*
G01X204285Y-966505D02*
G01X204285Y-1036498D01*
G01X204285Y-966505D02*
G01X204285Y-956490D01*
G01X204285Y-956490D02*
G01X234280Y-926495D01*
G01X339291Y-926495D02*
G01X234280Y-926495D01*
G01X375288Y-1001270D02*
G01X341287Y-1001270D01*
G54D10*
G01X385534Y-846337D02*
G01X481422Y-846337D01*
G01X481422Y-846337D02*
G01X481422Y-714216D01*
G01X481422Y-714216D02*
G01X385534Y-714216D01*
G01X300292Y-846337D02*
G01X204404Y-846337D01*
G01X204404Y-846337D02*
G01X204404Y-714216D01*
G01X204404Y-714216D02*
G01X300292Y-714216D01*
G54D13*
G01X2715446Y-132174D02*
G01X2715446Y-386174D01*
G01X2715446Y-386174D02*
G01X683451Y-386174D01*
G01X683451Y-386174D02*
G01X683451Y-132174D01*
G01X683451Y-132174D02*
G01X2715446Y-132174D01*
G01X939800Y-132174D02*
G01X939800Y-386174D01*
G01X1086363Y-2194382D02*
G01X1163252Y-2194382D01*
G01X813247Y-2194382D02*
G01X890133Y-2194382D01*
G01X1086363Y-2794376D02*
G01X1163249Y-2794376D01*
G01X813247Y-2794376D02*
G01X890133Y-2794376D01*
G01X1163249Y-2794376D02*
G01X1163252Y-2194375D01*
G01X912048Y-2659461D02*
G01X912048Y-2329261D01*
G01X1064448D01*
G01Y-2659461D01*
G01X912048D01*
G01X813247Y-2794376D02*
G01X813247Y-2194382D01*
G01X1505463Y-2194382D02*
G01X1582352Y-2194382D01*
G01X1232347Y-2194382D02*
G01X1309233Y-2194382D01*
G01X1505463Y-2794376D02*
G01X1582349Y-2794376D01*
G01X1232347Y-2794376D02*
G01X1309233Y-2794376D01*
G01X1582349Y-2794376D02*
G01X1582352Y-2194375D01*
G01X1331148Y-2659461D02*
G01X1331148Y-2329261D01*
G01X1483548D01*
G01Y-2659461D01*
G01X1331148D01*
G01X1232347Y-2794376D02*
G01X1232347Y-2194382D01*
G54D10*
G01X767827Y-1818714D02*
G01X671939Y-1818714D01*
G01X671939Y-1818714D02*
G01X671939Y-1950834D01*
G01X671939Y-1950834D02*
G01X767827Y-1950834D01*
G01X853069Y-1818714D02*
G01X948957Y-1818714D01*
G01X948957Y-1818714D02*
G01X948957Y-1950834D01*
G01X948957Y-1950834D02*
G01X853069Y-1950834D01*
G01X1246769Y-1950834D02*
G01X1342657Y-1950834D01*
G01X1342657Y-1950834D02*
G01X1342657Y-1818714D01*
G01X1342657Y-1818714D02*
G01X1246769Y-1818714D01*
G01X1161527Y-1950834D02*
G01X1065639Y-1950834D01*
G01X1065639Y-1950834D02*
G01X1065639Y-1818714D01*
G01X1065639Y-1818714D02*
G01X1161527Y-1818714D01*
G54D13*
G01X1610658Y-2945294D02*
G01X1610658Y-2366695D01*
G01X1610658Y-2945294D02*
G01X2860658Y-2945294D01*
G01X2860658Y-2945294D02*
G01X2860658Y-2365295D01*
G01X1610658Y-2365295D02*
G01X2860658Y-2365295D01*
G01X2587750Y-511297D02*
G01X2587750Y-591299D01*
G01X2476775Y-480311D02*
G01X2556772Y-480311D01*
G01X2476775Y-622277D02*
G01X2556772Y-622277D01*
G01X2419185Y-479730D02*
G01X2339185Y-479730D01*
G01X2308202Y-510713D02*
G01X2308202Y-590710D01*
G01X2419185Y-621690D02*
G01X2339185Y-621690D01*
G01X2308197Y-510713D02*
G02X2339180Y-479730I30983J0D01*
G01X2339180Y-621695D02*
G02X2308197Y-590710I0J30983D01*
G01X2556767Y-480311D02*
G02X2587750Y-511297I0J-30983D01*
G01X2587750Y-591294D02*
G02X2556767Y-622277I-30983J0D01*
G04 PolygonModel End*

G04 Rect Start*
G01X2810455Y-2887395D02*
G01X2810455Y-2430195D01*
G01X1664153D01*
G01Y-2887395D01*
G01X2810455D01*
G01X2708855Y-2430195D02*
G01X2708855Y-2366695D01*
G01X2518355D01*
G01Y-2430195D01*
G01X2708855D01*
G01X1956253Y-2430195D02*
G01X1956253Y-2366695D01*
G01X1765753D01*
G01Y-2430195D01*
G01X1956253D01*
G04 Rect End*

G04 Circle Start*
G01X1462898Y-1000473D02*
G03X1496985Y-1000473I17043J0D01*
G03X1462898I-17043J0D01*
G04 Circle End*
%SR*%

M02*
