G04 Layer: TopLayer*
G04 EasyEDA Pro v2.1.64.d1969c9c.217bcf, 2025-01-15 01:44:41*
G04 Gerber Generator version 0.3*
G04 Scale: 100 percent, Rotated: No, Reflected: No*
G04 Dimensions in millimeters*
G04 Leading zeros omitted, absolute positions, 3 integers and 5 decimals*
G04 Panelize: V-CUT, Column: 2, Row: 3, Board Size: 35.001mm x 30mm, Panelized Board Size: 69.997mm x 89.992mm, Panelized Method: All Objects*
%FSLAX35Y35*%
%MOMM*%
%ADD8191C,0.2032*%
%ADD10C,5.0*%
%ADD11C,0.8*%
%ADD12O,1.5X0.27*%
%ADD13O,0.27X1.5*%
%ADD14R,0.8X0.9*%
%ADD15R,2.4X1.9*%
%ADD16R,0.9X0.8*%
%ADD17R,0.98001X2.47*%
%ADD18R,3.6041X2.47*%
%ADD19R,3.59999X2.47*%
%ADD20R,0.9X0.8*%
%ADD21R,0.8X0.8*%
%ADD22R,0.86401X0.80648*%
%ADD23R,0.8X0.8*%
%ADD24R,0.80648X0.86401*%
%ADD25R,1.5X1.5*%
%ADD26C,1.5*%
%ADD27R,1.5X1.5*%
%ADD28R,0.80648X0.86401*%
%ADD29C,2.0*%
%ADD30R,2.0X2.0*%
%ADD31C,0.61*%
%ADD32C,0.254*%
%ADD33C,0.508*%
%ADD34C,0.24*%
G75*


%SRX2Y3I34.99746J29.99746*%

G04 Copper Start*
G36*
G01X2914186Y-2700000D02*
G03X3090934Y-2964186I285814J0D01*
G01X409066D01*
G03X585814Y-2700000I-109066J264186D01*
G03X300000Y-2414186I-285814J0D01*
G03X149728Y-2456879I0J-285814D01*
G03X152014Y-2438400I-73528J18479D01*
G03X76200Y-2362586I-75814J0D01*
G03X35814Y-2374238I0J-75814D01*
G01Y-409066D01*
G03X300000Y-585814I264186J109066D01*
G03X444670Y-546496I0J285814D01*
G03X444434Y-551274I48278J-4778D01*
G01Y-685483D01*
G01X428655Y-701262D01*
G01X377926D01*
G03X342913Y-729542I0J-35814D01*
G03X307900Y-701262I-35013J-7534D01*
G01X227253D01*
G03X191439Y-737076I0J-35814D01*
G01Y-823477D01*
G03X227253Y-859291I35814J0D01*
G01X277982D01*
G01X362247Y-943556D01*
G03X357381Y-961580I30948J-18024D01*
G01Y-1041580D01*
G03X393195Y-1077394I35814J0D01*
G01X473195D01*
G03X495234Y-1069809I0J35814D01*
G01Y-1102679D01*
G01X454430Y-1143483D01*
G01X377926D01*
G03X342913Y-1171764I0J-35814D01*
G03X307900Y-1143483I-35013J-7534D01*
G01X227253D01*
G03X191439Y-1179297I0J-35814D01*
G01Y-1265698D01*
G03X227253Y-1301512I35814J0D01*
G01X277982D01*
G01X362247Y-1385777D01*
G03X357381Y-1403801I30948J-18024D01*
G01Y-1483801D01*
G03X393195Y-1519615I35814J0D01*
G01X473195D01*
G03X509009Y-1483801I0J35814D01*
G01Y-1403801D01*
G03X477451Y-1368241I-35814J0D01*
G03X467499Y-1353811I-44256J-19875D01*
G01X415200Y-1301512D01*
G01X458573D01*
G03X494387Y-1265698I0J35814D01*
G01Y-1240744D01*
G01X546034Y-1189097D01*
G01Y-1468325D01*
G01X428655Y-1585704D01*
G01X377926D01*
G03X342913Y-1613985I0J-35814D01*
G03X307900Y-1585704I-35013J-7534D01*
G01X227253D01*
G03X191439Y-1621518I0J-35814D01*
G01Y-1707919D01*
G03X227253Y-1743733I35814J0D01*
G01X277982D01*
G01X362247Y-1827998D01*
G03X357381Y-1846022I30948J-18024D01*
G01Y-1926022D01*
G03X393195Y-1961836I35814J0D01*
G01X473195D01*
G03X509009Y-1926022I0J35814D01*
G01Y-1846022D01*
G03X477451Y-1810462I-35814J0D01*
G03X467499Y-1796032I-44256J-19875D01*
G01X415200Y-1743733D01*
G01X458573D01*
G03X494387Y-1707919I0J35814D01*
G01Y-1657190D01*
G01X628853Y-1522725D01*
G03X643062Y-1488420I-34305J34305D01*
G01Y-622169D01*
G01X665443Y-599788D01*
G01X968153D01*
G01X990534Y-622169D01*
G01Y-1059274D01*
G03X1004744Y-1093579I48514J0D01*
G01X1050119Y-1138954D01*
G01X998641D01*
G01X966262Y-1106575D01*
G01Y-924371D01*
G03X930514Y-888557I-35814J0D01*
G01Y-834802D01*
G03X957814Y-800015I-8514J34787D01*
G01Y-710015D01*
G03X922000Y-674201I-35814J0D01*
G01X842000D01*
G03X806186Y-710015I0J-35814D01*
G01Y-800015D01*
G03X833486Y-834802I35814J0D01*
G01Y-888557D01*
G01X690448D01*
G03X654634Y-924371I0J-35814D01*
G01Y-1114370D01*
G03X690448Y-1150184I35814J0D01*
G01X872653D01*
G01X944241Y-1221772D01*
G03X946941Y-1224275I34305J34305D01*
G01X872653Y-1298564D01*
G01X690448D01*
G03X654634Y-1334378I0J-35814D01*
G01Y-1524377D01*
G03X690448Y-1560191I35814J0D01*
G01X832241D01*
G01Y-1627187D01*
G03X804941Y-1661974I8514J-34787D01*
G01Y-1751974D01*
G03X840755Y-1787788I35814J0D01*
G01X920755D01*
G03X956569Y-1751974I0J35814D01*
G01Y-1661974D01*
G03X929269Y-1627187I-35814J0D01*
G01Y-1560191D01*
G01X930448D01*
G03X966262Y-1524377I0J35814D01*
G01Y-1496786D01*
G03X990600Y-1501414I24338J61686D01*
G03X1056914Y-1435100I0J66314D01*
G03X1045140Y-1397379I-66314J0D01*
G01X1107238Y-1335282D01*
G01X1264385D01*
G03X1276456Y-1336782I12071J47814D01*
G01X1399455D01*
G03X1405334Y-1336430I0J49314D01*
G01X1403449Y-1338315D01*
G03X1399455Y-1338153I-3994J-49152D01*
G01X1276456D01*
G03X1267609Y-1338953I0J-49314D01*
G01X1218855D01*
G03X1184550Y-1353163I0J-48514D01*
G01X1100451Y-1437262D01*
G03X1086241Y-1471567I34305J-34305D01*
G01Y-1627187D01*
G03X1058941Y-1661974I8514J-34787D01*
G01Y-1751974D01*
G03X1075078Y-1781898I35814J0D01*
G03X1073541Y-1795530I59677J-13631D01*
G03X1074916Y-1808431I61214J0D01*
G03X1053070Y-1836260I13572J-33143D01*
G01X961526D01*
G03X926108Y-1805760I-35418J-5314D01*
G01X845461D01*
G03X810448Y-1834040I0J-35814D01*
G03X775436Y-1805760I-35013J-7534D01*
G01X694788D01*
G03X658974Y-1841574I0J-35814D01*
G01Y-1927974D01*
G03X694788Y-1963788I35814J0D01*
G01X745517D01*
G01X877434Y-2095706D01*
G01Y-2194381D01*
G03X913248Y-2230195I35814J0D01*
G01X1030453D01*
G01X1138437Y-2338179D01*
G03X1172741Y-2352388I34305J34305D01*
G01X1534348D01*
G03X1568653Y-2338179I0J48514D01*
G01X1722247Y-2184585D01*
G03X1736456Y-2150280I-34305J34305D01*
G01Y-1798258D01*
G01X1737955Y-1798281D01*
G03X1762948Y-1791478I0J49314D01*
G03X1787942Y-1798281I24994J42511D01*
G03X1812948Y-1791470I0J49314D01*
G03X1837954Y-1798281I25006J42504D01*
G03X1862948Y-1791478I0J49314D01*
G03X1887942Y-1798281I24994J42511D01*
G03X1912948Y-1791470I0J49314D01*
G03X1937954Y-1798281I25006J42504D01*
G03X1987268Y-1748967I0J49314D01*
G01Y-1625967D01*
G03X1937954Y-1576653I-49314J0D01*
G03X1912948Y-1583463I0J-49314D01*
G03X1887942Y-1576653I-25006J-42504D01*
G03X1862948Y-1583456I0J-49314D01*
G03X1837954Y-1576653I-24994J-42511D01*
G03X1812948Y-1583463I0J-49314D01*
G03X1787942Y-1576653I-25006J-42504D01*
G03X1762948Y-1583456I0J-49314D01*
G03X1737955Y-1576653I-24994J-42511D01*
G01X1736456Y-1576676D01*
G01Y-1520260D01*
G01X1869528Y-1387188D01*
G01X2077128D01*
G01X2077127Y-1387467D01*
G03X2083938Y-1412474I49314J0D01*
G03X2077127Y-1437480I42504J-25006D01*
G03X2083930Y-1462474I49314J0D01*
G03X2077127Y-1487467I42511J-24994D01*
G03X2083938Y-1512473I49314J0D01*
G03X2077127Y-1537480I42504J-25006D01*
G03X2126441Y-1586794I49314J0D01*
G01X2249441D01*
G03X2298755Y-1537480I0J49314D01*
G03X2291944Y-1512473I-49314J0D01*
G03X2298755Y-1487467I-42504J25006D01*
G03X2291952Y-1462474I-49314J0D01*
G03X2298755Y-1437480I-42511J24994D01*
G03X2291944Y-1412474I-49314J0D01*
G03X2298755Y-1387467I-42504J25006D01*
G03X2291952Y-1362474I-49314J0D01*
G03X2297963Y-1346280I-42511J24994D01*
G01X2336734Y-1385051D01*
G01Y-1610679D01*
G01X2153636Y-1793777D01*
G03X2139427Y-1828081I34305J-34305D01*
G01Y-2252486D01*
G01X1919174Y-2472739D01*
G03X1860647Y-2459481I-58527J-122556D01*
G03X1724833Y-2595295I0J-135814D01*
G03X1860647Y-2731108I135814J0D01*
G03X1985653Y-2648387I0J135814D01*
G03X2110659Y-2731108I125006J53093D01*
G03X2235653Y-2648417I0J135814D01*
G03X2360646Y-2731108I124993J53123D01*
G03X2496460Y-2595295I0J135814D01*
G03X2431527Y-2479444I-135814J0D01*
G01Y-2341219D01*
G01X2462070Y-2310675D01*
G01X3235260D01*
G03X3278545Y-2292746I0J61214D01*
G01X3329345Y-2241946D01*
G03X3347274Y-2198661I-43285J43285D01*
G01Y-1985341D01*
G03X3329345Y-1942057I-61214J0D01*
G01X3275827Y-1888539D01*
G03X3232542Y-1870610I-43285J-43285D01*
G01X3214939D01*
G03X3206265Y-1862723I-28107J-22196D01*
G01Y-1748252D01*
G03X3229866Y-1714585I-12214J33667D01*
G01Y-1467585D01*
G03X3194052Y-1431771I-35814J0D01*
G01X3096051D01*
G03X3060237Y-1467585I0J-35814D01*
G01Y-1714585D01*
G03X3083837Y-1748252I35814J0D01*
G01Y-1859432D01*
G03X3061018Y-1892805I12995J-33373D01*
G01Y-1972805D01*
G03X3096832Y-2008619I35814J0D01*
G01X3186832D01*
G03X3212217Y-1998068I0J35814D01*
G01X3224846Y-2010697D01*
G01Y-2173306D01*
G01X3209904Y-2188247D01*
G01X2436714D01*
G03X2393430Y-2206176I0J-61214D01*
G01X2327028Y-2272578D01*
G03X2309099Y-2315863I43285J-43285D01*
G01Y-2469643D01*
G03X2235653Y-2542172I51548J-125651D01*
G03X2171626Y-2473934I-124993J-53123D01*
G01X2279853Y-2365707D01*
G03X2294062Y-2331402I-34305J34305D01*
G01Y-1866769D01*
G01X2470353Y-1690479D01*
G03X2484562Y-1656174I-34305J34305D01*
G01Y-1338602D01*
G03X2470353Y-1304298I-48514J0D01*
G01X2369231Y-1203176D01*
G03X2334926Y-1188966I-34305J-34305D01*
G01X2298732D01*
G01X2298755Y-1187468D01*
G03X2291952Y-1162474I-49314J0D01*
G03X2298755Y-1137481I-42511J24994D01*
G03X2291944Y-1112474I-49314J0D01*
G03X2298755Y-1087468I-42504J25006D01*
G03X2249441Y-1038154I-49314J0D01*
G01X2126441D01*
G03X2077127Y-1087468I0J-49314D01*
G03X2083938Y-1112474I49314J0D01*
G03X2077127Y-1137481I42504J-25006D01*
G03X2083930Y-1162474I49314J0D01*
G03X2077127Y-1187468I42511J-24994D01*
G03X2083938Y-1212474I49314J0D01*
G03X2077127Y-1237480I42504J-25006D01*
G03X2083930Y-1262474I49314J0D01*
G03X2077127Y-1287468I42511J-24994D01*
G03X2077201Y-1290160I49314J0D01*
G01X1849432D01*
G03X1815128Y-1304369I0J-48514D01*
G01X1653637Y-1465860D01*
G03X1639428Y-1500165I34305J-34305D01*
G01Y-1576675D01*
G01X1637955Y-1576653D01*
G03X1612949Y-1583463I0J-49314D01*
G03X1587942Y-1576653I-25006J-42504D01*
G03X1562949Y-1583456I0J-49314D01*
G03X1537955Y-1576653I-24994J-42511D01*
G03X1512949Y-1583463I0J-49314D01*
G03X1487942Y-1576653I-25006J-42504D01*
G03X1438628Y-1625967I0J-49314D01*
G01Y-1748967D01*
G03X1487942Y-1798281I49314J0D01*
G03X1512949Y-1791470I0J49314D01*
G03X1537955Y-1798281I25006J42504D01*
G03X1562949Y-1791478I0J49314D01*
G03X1578538Y-1797376I24994J42511D01*
G01X1539653Y-1836260D01*
G01X1445448D01*
G03X1411144Y-1850469I0J-48514D01*
G01X1407348Y-1854265D01*
G01X1403553Y-1850469D01*
G03X1369248Y-1836260I-34305J-34305D01*
G01X1355226D01*
G03X1319808Y-1805760I-35418J-5314D01*
G01X1239161D01*
G03X1204148Y-1834040I0J-35814D01*
G03X1200537Y-1824351I-35013J-7534D01*
G03X1206962Y-1795874I-59888J28477D01*
G03X1203171Y-1773773I-66314J0D01*
G03X1210569Y-1751974I-28416J21799D01*
G01Y-1661974D01*
G03X1183269Y-1627187I-35814J0D01*
G01Y-1491662D01*
G01X1228047Y-1446885D01*
G03X1233944Y-1462474I48409J9405D01*
G03X1227142Y-1487467I42511J-24994D01*
G03X1233952Y-1512473I49314J0D01*
G03X1227142Y-1537480I42504J-25006D01*
G03X1276456Y-1586794I49314J0D01*
G01X1399455D01*
G03X1448769Y-1537480I0J49314D01*
G03X1441959Y-1512473I-49314J0D01*
G03X1448769Y-1487467I-42504J25006D01*
G03X1441966Y-1462474I-49314J0D01*
G03X1448769Y-1437480I-42511J24994D01*
G03X1448029Y-1428969I-49314J0D01*
G03X1457210Y-1421772I-25124J41502D01*
G01X1560347Y-1318635D01*
G03X1574556Y-1284331I-34305J34305D01*
G01Y-1035982D01*
G01X2117594D01*
G03X2126441Y-1036782I8847J48514D01*
G01X2249441D01*
G03X2258288Y-1035982I0J49314D01*
G01X2463734D01*
G01Y-1097374D01*
G03X2474224Y-1122698I35814J0D01*
G01X2830240Y-1478714D01*
G01Y-1714585D01*
G03X2833271Y-1729006I35814J0D01*
G03X2844405Y-1746749I34577J9332D01*
G01X2499152D01*
G03X2464847Y-1760958I0J-48514D01*
G01X2432142Y-1793664D01*
G03X2417932Y-1827968I34305J-34305D01*
G01Y-1839449D01*
G03X2389717Y-1874448I7599J-34999D01*
G01Y-1955095D01*
G03X2417998Y-1990108I35814J0D01*
G03X2389717Y-2025120I7534J-35013D01*
G01Y-2105768D01*
G03X2425531Y-2141582I35814J0D01*
G01X2511932D01*
G03X2540423Y-2127468I0J35814D01*
G03X2546553Y-2122279I-28175J39494D01*
G01X2675363Y-1993468D01*
G01X2724974D01*
G03X2760788Y-1957654I0J35814D01*
G01Y-1877654D01*
G03X2736592Y-1843777I-35814J0D01*
G01X2852018D01*
G01Y-1860872D01*
G03X2832418Y-1892805I16214J-31933D01*
G01Y-1972805D01*
G03X2868232Y-2008619I35814J0D01*
G01X2958232D01*
G03X2994046Y-1972805I0J35814D01*
G01Y-1892805D01*
G03X2974446Y-1860872I-35814J0D01*
G01Y-1755138D01*
G03X3005262Y-1719674I-4997J35464D01*
G01Y-1480509D01*
G01X3121773Y-1363998D01*
G03X3132262Y-1338674I-25324J25324D01*
G01Y-729074D01*
G03X3121773Y-703750I-35814J0D01*
G01X2893373Y-475350D01*
G03X2829748Y-427729I-63625J-18692D01*
G03X2792380Y-439260I0J-66314D01*
G01X2776965D01*
G03X2740848Y-428562I-36117J-55616D01*
G03X2704732Y-439260I0J-66314D01*
G01X2664751D01*
G03X2639248Y-434160I-25503J-61214D01*
G03X2613745Y-439260I0J-66314D01*
G01X2586162D01*
G01Y-369964D01*
G01X2588448Y-369988D01*
G03X2699262Y-259174I0J110814D01*
G03X2606205Y-149792I-110814J0D01*
G03X2588448Y-147160I-17757J-58582D01*
G03X2570691Y-149792I0J-61214D01*
G03X2482051Y-228202I17757J-109382D01*
G01X2481663Y-228589D01*
G03X2463734Y-271874I43285J-43285D01*
G01Y-473760D01*
G03X2442937Y-506274I15016J-32514D01*
G01Y-596274D01*
G03X2463734Y-628788I35814J0D01*
G01Y-676960D01*
G03X2442937Y-709474I15016J-32514D01*
G01Y-799474D01*
G03X2463734Y-831988I35814J0D01*
G01Y-938954D01*
G01X2258288D01*
G03X2249441Y-938154I-8847J-48514D01*
G01X2126441D01*
G03X2117594Y-938954I0J-49314D01*
G01X2066833D01*
G03X2087268Y-898981I-28879J39973D01*
G01Y-775981D01*
G03X2037954Y-726667I-49314J0D01*
G03X2012948Y-733478I0J-49314D01*
G03X1987941Y-726667I-25006J-42504D01*
G03X1962948Y-733470I0J-49314D01*
G03X1937954Y-726667I-24994J-42511D01*
G03X1912948Y-733478I0J-49314D01*
G03X1887942Y-726667I-25006J-42504D01*
G03X1862948Y-733470I0J-49314D01*
G03X1837954Y-726667I-24994J-42511D01*
G01X1836456Y-726690D01*
G01Y-520976D01*
G01X2011503Y-345928D01*
G03X2080448Y-369988I68945J86754D01*
G03X2191262Y-259174I0J110814D01*
G03X2080448Y-148360I-110814J0D01*
G03X1969997Y-250216I0J-110814D01*
G01X1933883Y-286330D01*
G03X1937262Y-259174I-107435J27156D01*
G03X1826448Y-148360I-110814J0D01*
G03X1715634Y-259174I0J-110814D01*
G03X1774341Y-356972I110814J0D01*
G01X1703650Y-427663D01*
G03X1689441Y-461968I34305J-34305D01*
G01Y-726690D01*
G01X1687942Y-726667D01*
G03X1662948Y-733470I0J-49314D01*
G03X1637955Y-726667I-24994J-42511D01*
G03X1612949Y-733478I0J-49314D01*
G03X1587942Y-726667I-25006J-42504D01*
G03X1538628Y-775981I0J-49314D01*
G01Y-898981D01*
G03X1559063Y-938954I49314J0D01*
G01X1546138D01*
G01X1536456Y-929273D01*
G01Y-907828D01*
G03X1537257Y-898981I-48514J8847D01*
G01Y-775981D01*
G03X1536456Y-767134I-49314J0D01*
G01Y-733468D01*
G03X1522247Y-699164I-48514J0D01*
G01X1448692Y-625608D01*
G03X1463960Y-596274I-20546J29334D01*
G01Y-506274D01*
G03X1428146Y-470460I-35814J0D01*
G01X1348146D01*
G03X1327013Y-477360I0J-35814D01*
G01X1318551D01*
G03X1293048Y-472260I-25503J-61214D01*
G03X1226734Y-538574I0J-66314D01*
G03X1293048Y-604888I66314J0D01*
G03X1312774Y-601886I0J66314D01*
G03X1339632Y-631061I35372J5612D01*
G01Y-633672D01*
G03X1353841Y-667976I48514J0D01*
G01X1439428Y-753563D01*
G01Y-767134D01*
G03X1438628Y-775981I48514J-8847D01*
G01Y-898981D01*
G03X1439428Y-907828I49314J0D01*
G01Y-949368D01*
G03X1440712Y-960454I48514J0D01*
G03X1399455Y-938154I-41257J-27014D01*
G01X1276456D01*
G03X1228323Y-976739I0J-49314D01*
G01X1201862Y-950279D01*
G01Y-563974D01*
G03X1187653Y-529669I-48514J0D01*
G01X1073353Y-415369D01*
G03X1039048Y-401160I-34305J-34305D01*
G01X594548D01*
G03X562368Y-413369I0J-48514D01*
G03X585814Y-300000I-262368J113369D01*
G03X409066Y-35814I-285814J0D01*
G01X3090934D01*
G03X2914186Y-300000I109066J-264186D01*
G03X3200000Y-585814I285814J0D01*
G03X3464186Y-409066I0J285814D01*
G01Y-2590934D01*
G03X3200000Y-2414186I-264186J-109066D01*
G03X2914186Y-2700000I0J-285814D01*
G37*
%LPC*%
G36*
G01X2055048Y-2136488D02*
G03X2080373Y-2125998I0J35814D01*
G01X2093073Y-2113298D01*
G03X2103562Y-2087974I-25324J25324D01*
G01Y-2037174D01*
G03X2093073Y-2011850I-35814J0D01*
G01X2090862Y-2009639D01*
G01Y-1990923D01*
G03X2099265Y-1967874I-27412J23049D01*
G01Y-1877874D01*
G03X2086468Y-1850436I-35814J0D01*
G01Y-1757814D01*
G03X2087268Y-1748967I-48514J8847D01*
G01Y-1625967D01*
G03X2037954Y-1576653I-49314J0D01*
G03X1988640Y-1625967I0J-49314D01*
G01Y-1748967D01*
G03X1989440Y-1757814I49314J0D01*
G01Y-1842060D01*
G01X1983451D01*
G03X1947637Y-1877874I0J-35814D01*
G01Y-1967874D01*
G03X1954286Y-1988660I35814J0D01*
G01X1902648D01*
G03X1866834Y-2024474I0J-35814D01*
G01Y-2087974D01*
G03X1877324Y-2113298I35814J0D01*
G01X1890024Y-2125998D01*
G03X1915348Y-2136488I25324J25324D01*
G01X2055048D01*
G37*
G36*
G01X699634Y-334174D02*
G03X735448Y-369988I35814J0D01*
G01X885448D01*
G03X921262Y-334174I0J35814D01*
G01Y-184174D01*
G03X885448Y-148360I-35814J0D01*
G01X735448D01*
G03X699634Y-184174I0J-35814D01*
G01Y-334174D01*
G37*
G36*
G01X1572448Y-369988D02*
G03X1683262Y-259174I0J110814D01*
G03X1572448Y-148360I-110814J0D01*
G03X1461634Y-259174I0J-110814D01*
G03X1572448Y-369988I110814J0D01*
G37*
G36*
G01X1318448Y-369988D02*
G03X1429262Y-259174I0J110814D01*
G03X1318448Y-148360I-110814J0D01*
G03X1207634Y-259174I0J-110814D01*
G03X1318448Y-369988I110814J0D01*
G37*
G36*
G01X953634Y-259174D02*
G03X1064448Y-369988I110814J0D01*
G03X1175262Y-259174I0J110814D01*
G03X1064448Y-148360I-110814J0D01*
G03X953634Y-259174I0J-110814D01*
G37*
%LPD*%
G36*
G01X35814Y-2590934D02*
G01X35814Y-2502562D01*
G03X76200Y-2514214I40386J64162D01*
G03X83073Y-2513902I0J75814D01*
G03X35814Y-2590934I216927J-186098D01*
G37*
G36*
G01X495234Y-933351D02*
G03X477451Y-926020I-22040J-28229D01*
G03X467499Y-911590I-44256J-19875D01*
G01X415200Y-859291D01*
G01X458573D01*
G03X494387Y-823477I0J35814D01*
G01Y-772748D01*
G01X495234Y-771901D01*
G01Y-933351D01*
G37*
G36*
G01X1639428Y-2130185D02*
G01X1514253Y-2255360D01*
G01X1192836D01*
G01X1099062Y-2161586D01*
G01Y-2044381D01*
G03X1063248Y-2008567I-35814J0D01*
G01X927514D01*
G01X882735Y-1963788D01*
G01X926108D01*
G03X961526Y-1933288I0J35814D01*
G01X1053070D01*
G03X1088488Y-1963788I35418J5314D01*
G01X1169136D01*
G03X1204148Y-1935508I0J35814D01*
G03X1239161Y-1963788I35013J7534D01*
G01X1319808D01*
G03X1354116Y-1938251I0J35814D01*
G01X1358834Y-1942969D01*
G01Y-2008567D01*
G01X1332348D01*
G03X1296534Y-2044381I0J-35814D01*
G01Y-2094145D01*
G03X1282700Y-2092686I-13834J-64855D01*
G03X1216386Y-2159000I0J-66314D01*
G03X1282700Y-2225314I66314J0D01*
G03X1307742Y-2220404I0J66314D01*
G03X1332348Y-2230195I24606J26023D01*
G01X1482348D01*
G03X1518162Y-2194381I0J35814D01*
G01Y-2044381D01*
G03X1482348Y-2008567I-35814J0D01*
G01X1455862D01*
G01Y-1942969D01*
G01X1465543Y-1933288D01*
G01X1559748D01*
G03X1594053Y-1919079I0J48514D01*
G01X1639428Y-1873703D01*
G01Y-2130185D01*
G37*
G36*
G01X1477528Y-1264236D02*
G01X1448418Y-1293346D01*
G03X1448769Y-1287468I-48962J5879D01*
G03X1441966Y-1262474I-49314J0D01*
G03X1448769Y-1237480I-42511J24994D01*
G03X1441959Y-1212474I-49314J0D01*
G03X1448769Y-1187468I-42504J25006D01*
G03X1441966Y-1162474I-49314J0D01*
G03X1448769Y-1137481I-42511J24994D01*
G03X1441959Y-1112474I-49314J0D01*
G03X1448769Y-1087468I-42504J25006D01*
G03X1441966Y-1062474I-49314J0D01*
G03X1448769Y-1037481I-42511J24994D01*
G03X1441959Y-1012474I-49314J0D01*
G03X1448769Y-987468I-42504J25006D01*
G03X1447432Y-976061I-49314J0D01*
G03X1453638Y-983673I40511J26693D01*
G01X1477528Y-1007563D01*
G01Y-1264236D01*
G37*
G36*
G01X2609161Y-1922452D02*
G01X2534390Y-1997223D01*
G03X2519466Y-1990108I-22458J-27898D01*
G03X2547746Y-1955095I-7534J35013D01*
G01Y-1874448D01*
G03X2530424Y-1843777I-35814J0D01*
G01X2633358D01*
G03X2609161Y-1877654I11617J-33878D01*
G01Y-1922452D01*
G37*
G54D8191*
G01X2914186Y-2700000D02*
G03X3090934Y-2964186I285814J0D01*
G01X409066D01*
G03X585814Y-2700000I-109066J264186D01*
G03X300000Y-2414186I-285814J0D01*
G03X149728Y-2456879I0J-285814D01*
G03X152014Y-2438400I-73528J18479D01*
G03X76200Y-2362586I-75814J0D01*
G03X35814Y-2374238I0J-75814D01*
G01Y-409066D01*
G03X300000Y-585814I264186J109066D01*
G03X444670Y-546496I0J285814D01*
G03X444434Y-551274I48278J-4778D01*
G01Y-685483D01*
G01X428655Y-701262D01*
G01X377926D01*
G03X342913Y-729542I0J-35814D01*
G03X307900Y-701262I-35013J-7534D01*
G01X227253D01*
G03X191439Y-737076I0J-35814D01*
G01Y-823477D01*
G03X227253Y-859291I35814J0D01*
G01X277982D01*
G01X362247Y-943556D01*
G03X357381Y-961580I30948J-18024D01*
G01Y-1041580D01*
G03X393195Y-1077394I35814J0D01*
G01X473195D01*
G03X495234Y-1069809I0J35814D01*
G01Y-1102679D01*
G01X454430Y-1143483D01*
G01X377926D01*
G03X342913Y-1171764I0J-35814D01*
G03X307900Y-1143483I-35013J-7534D01*
G01X227253D01*
G03X191439Y-1179297I0J-35814D01*
G01Y-1265698D01*
G03X227253Y-1301512I35814J0D01*
G01X277982D01*
G01X362247Y-1385777D01*
G03X357381Y-1403801I30948J-18024D01*
G01Y-1483801D01*
G03X393195Y-1519615I35814J0D01*
G01X473195D01*
G03X509009Y-1483801I0J35814D01*
G01Y-1403801D01*
G03X477451Y-1368241I-35814J0D01*
G03X467499Y-1353811I-44256J-19875D01*
G01X415200Y-1301512D01*
G01X458573D01*
G03X494387Y-1265698I0J35814D01*
G01Y-1240744D01*
G01X546034Y-1189097D01*
G01Y-1468325D01*
G01X428655Y-1585704D01*
G01X377926D01*
G03X342913Y-1613985I0J-35814D01*
G03X307900Y-1585704I-35013J-7534D01*
G01X227253D01*
G03X191439Y-1621518I0J-35814D01*
G01Y-1707919D01*
G03X227253Y-1743733I35814J0D01*
G01X277982D01*
G01X362247Y-1827998D01*
G03X357381Y-1846022I30948J-18024D01*
G01Y-1926022D01*
G03X393195Y-1961836I35814J0D01*
G01X473195D01*
G03X509009Y-1926022I0J35814D01*
G01Y-1846022D01*
G03X477451Y-1810462I-35814J0D01*
G03X467499Y-1796032I-44256J-19875D01*
G01X415200Y-1743733D01*
G01X458573D01*
G03X494387Y-1707919I0J35814D01*
G01Y-1657190D01*
G01X628853Y-1522725D01*
G03X643062Y-1488420I-34305J34305D01*
G01Y-622169D01*
G01X665443Y-599788D01*
G01X968153D01*
G01X990534Y-622169D01*
G01Y-1059274D01*
G03X1004744Y-1093579I48514J0D01*
G01X1050119Y-1138954D01*
G01X998641D01*
G01X966262Y-1106575D01*
G01Y-924371D01*
G03X930514Y-888557I-35814J0D01*
G01Y-834802D01*
G03X957814Y-800015I-8514J34787D01*
G01Y-710015D01*
G03X922000Y-674201I-35814J0D01*
G01X842000D01*
G03X806186Y-710015I0J-35814D01*
G01Y-800015D01*
G03X833486Y-834802I35814J0D01*
G01Y-888557D01*
G01X690448D01*
G03X654634Y-924371I0J-35814D01*
G01Y-1114370D01*
G03X690448Y-1150184I35814J0D01*
G01X872653D01*
G01X944241Y-1221772D01*
G03X946941Y-1224275I34305J34305D01*
G01X872653Y-1298564D01*
G01X690448D01*
G03X654634Y-1334378I0J-35814D01*
G01Y-1524377D01*
G03X690448Y-1560191I35814J0D01*
G01X832241D01*
G01Y-1627187D01*
G03X804941Y-1661974I8514J-34787D01*
G01Y-1751974D01*
G03X840755Y-1787788I35814J0D01*
G01X920755D01*
G03X956569Y-1751974I0J35814D01*
G01Y-1661974D01*
G03X929269Y-1627187I-35814J0D01*
G01Y-1560191D01*
G01X930448D01*
G03X966262Y-1524377I0J35814D01*
G01Y-1496786D01*
G03X990600Y-1501414I24338J61686D01*
G03X1056914Y-1435100I0J66314D01*
G03X1045140Y-1397379I-66314J0D01*
G01X1107238Y-1335282D01*
G01X1264385D01*
G03X1276456Y-1336782I12071J47814D01*
G01X1399455D01*
G03X1405334Y-1336430I0J49314D01*
G01X1403449Y-1338315D01*
G03X1399455Y-1338153I-3994J-49152D01*
G01X1276456D01*
G03X1267609Y-1338953I0J-49314D01*
G01X1218855D01*
G03X1184550Y-1353163I0J-48514D01*
G01X1100451Y-1437262D01*
G03X1086241Y-1471567I34305J-34305D01*
G01Y-1627187D01*
G03X1058941Y-1661974I8514J-34787D01*
G01Y-1751974D01*
G03X1075078Y-1781898I35814J0D01*
G03X1073541Y-1795530I59677J-13631D01*
G03X1074916Y-1808431I61214J0D01*
G03X1053070Y-1836260I13572J-33143D01*
G01X961526D01*
G03X926108Y-1805760I-35418J-5314D01*
G01X845461D01*
G03X810448Y-1834040I0J-35814D01*
G03X775436Y-1805760I-35013J-7534D01*
G01X694788D01*
G03X658974Y-1841574I0J-35814D01*
G01Y-1927974D01*
G03X694788Y-1963788I35814J0D01*
G01X745517D01*
G01X877434Y-2095706D01*
G01Y-2194381D01*
G03X913248Y-2230195I35814J0D01*
G01X1030453D01*
G01X1138437Y-2338179D01*
G03X1172741Y-2352388I34305J34305D01*
G01X1534348D01*
G03X1568653Y-2338179I0J48514D01*
G01X1722247Y-2184585D01*
G03X1736456Y-2150280I-34305J34305D01*
G01Y-1798258D01*
G01X1737955Y-1798281D01*
G03X1762948Y-1791478I0J49314D01*
G03X1787942Y-1798281I24994J42511D01*
G03X1812948Y-1791470I0J49314D01*
G03X1837954Y-1798281I25006J42504D01*
G03X1862948Y-1791478I0J49314D01*
G03X1887942Y-1798281I24994J42511D01*
G03X1912948Y-1791470I0J49314D01*
G03X1937954Y-1798281I25006J42504D01*
G03X1987268Y-1748967I0J49314D01*
G01Y-1625967D01*
G03X1937954Y-1576653I-49314J0D01*
G03X1912948Y-1583463I0J-49314D01*
G03X1887942Y-1576653I-25006J-42504D01*
G03X1862948Y-1583456I0J-49314D01*
G03X1837954Y-1576653I-24994J-42511D01*
G03X1812948Y-1583463I0J-49314D01*
G03X1787942Y-1576653I-25006J-42504D01*
G03X1762948Y-1583456I0J-49314D01*
G03X1737955Y-1576653I-24994J-42511D01*
G01X1736456Y-1576676D01*
G01Y-1520260D01*
G01X1869528Y-1387188D01*
G01X2077128D01*
G01X2077127Y-1387467D01*
G03X2083938Y-1412474I49314J0D01*
G03X2077127Y-1437480I42504J-25006D01*
G03X2083930Y-1462474I49314J0D01*
G03X2077127Y-1487467I42511J-24994D01*
G03X2083938Y-1512473I49314J0D01*
G03X2077127Y-1537480I42504J-25006D01*
G03X2126441Y-1586794I49314J0D01*
G01X2249441D01*
G03X2298755Y-1537480I0J49314D01*
G03X2291944Y-1512473I-49314J0D01*
G03X2298755Y-1487467I-42504J25006D01*
G03X2291952Y-1462474I-49314J0D01*
G03X2298755Y-1437480I-42511J24994D01*
G03X2291944Y-1412474I-49314J0D01*
G03X2298755Y-1387467I-42504J25006D01*
G03X2291952Y-1362474I-49314J0D01*
G03X2297963Y-1346280I-42511J24994D01*
G01X2336734Y-1385051D01*
G01Y-1610679D01*
G01X2153636Y-1793777D01*
G03X2139427Y-1828081I34305J-34305D01*
G01Y-2252486D01*
G01X1919174Y-2472739D01*
G03X1860647Y-2459481I-58527J-122556D01*
G03X1724833Y-2595295I0J-135814D01*
G03X1860647Y-2731108I135814J0D01*
G03X1985653Y-2648387I0J135814D01*
G03X2110659Y-2731108I125006J53093D01*
G03X2235653Y-2648417I0J135814D01*
G03X2360646Y-2731108I124993J53123D01*
G03X2496460Y-2595295I0J135814D01*
G03X2431527Y-2479444I-135814J0D01*
G01Y-2341219D01*
G01X2462070Y-2310675D01*
G01X3235260D01*
G03X3278545Y-2292746I0J61214D01*
G01X3329345Y-2241946D01*
G03X3347274Y-2198661I-43285J43285D01*
G01Y-1985341D01*
G03X3329345Y-1942057I-61214J0D01*
G01X3275827Y-1888539D01*
G03X3232542Y-1870610I-43285J-43285D01*
G01X3214939D01*
G03X3206265Y-1862723I-28107J-22196D01*
G01Y-1748252D01*
G03X3229866Y-1714585I-12214J33667D01*
G01Y-1467585D01*
G03X3194052Y-1431771I-35814J0D01*
G01X3096051D01*
G03X3060237Y-1467585I0J-35814D01*
G01Y-1714585D01*
G03X3083837Y-1748252I35814J0D01*
G01Y-1859432D01*
G03X3061018Y-1892805I12995J-33373D01*
G01Y-1972805D01*
G03X3096832Y-2008619I35814J0D01*
G01X3186832D01*
G03X3212217Y-1998068I0J35814D01*
G01X3224846Y-2010697D01*
G01Y-2173306D01*
G01X3209904Y-2188247D01*
G01X2436714D01*
G03X2393430Y-2206176I0J-61214D01*
G01X2327028Y-2272578D01*
G03X2309099Y-2315863I43285J-43285D01*
G01Y-2469643D01*
G03X2235653Y-2542172I51548J-125651D01*
G03X2171626Y-2473934I-124993J-53123D01*
G01X2279853Y-2365707D01*
G03X2294062Y-2331402I-34305J34305D01*
G01Y-1866769D01*
G01X2470353Y-1690479D01*
G03X2484562Y-1656174I-34305J34305D01*
G01Y-1338602D01*
G03X2470353Y-1304298I-48514J0D01*
G01X2369231Y-1203176D01*
G03X2334926Y-1188966I-34305J-34305D01*
G01X2298732D01*
G01X2298755Y-1187468D01*
G03X2291952Y-1162474I-49314J0D01*
G03X2298755Y-1137481I-42511J24994D01*
G03X2291944Y-1112474I-49314J0D01*
G03X2298755Y-1087468I-42504J25006D01*
G03X2249441Y-1038154I-49314J0D01*
G01X2126441D01*
G03X2077127Y-1087468I0J-49314D01*
G03X2083938Y-1112474I49314J0D01*
G03X2077127Y-1137481I42504J-25006D01*
G03X2083930Y-1162474I49314J0D01*
G03X2077127Y-1187468I42511J-24994D01*
G03X2083938Y-1212474I49314J0D01*
G03X2077127Y-1237480I42504J-25006D01*
G03X2083930Y-1262474I49314J0D01*
G03X2077127Y-1287468I42511J-24994D01*
G03X2077201Y-1290160I49314J0D01*
G01X1849432D01*
G03X1815128Y-1304369I0J-48514D01*
G01X1653637Y-1465860D01*
G03X1639428Y-1500165I34305J-34305D01*
G01Y-1576675D01*
G01X1637955Y-1576653D01*
G03X1612949Y-1583463I0J-49314D01*
G03X1587942Y-1576653I-25006J-42504D01*
G03X1562949Y-1583456I0J-49314D01*
G03X1537955Y-1576653I-24994J-42511D01*
G03X1512949Y-1583463I0J-49314D01*
G03X1487942Y-1576653I-25006J-42504D01*
G03X1438628Y-1625967I0J-49314D01*
G01Y-1748967D01*
G03X1487942Y-1798281I49314J0D01*
G03X1512949Y-1791470I0J49314D01*
G03X1537955Y-1798281I25006J42504D01*
G03X1562949Y-1791478I0J49314D01*
G03X1578538Y-1797376I24994J42511D01*
G01X1539653Y-1836260D01*
G01X1445448D01*
G03X1411144Y-1850469I0J-48514D01*
G01X1407348Y-1854265D01*
G01X1403553Y-1850469D01*
G03X1369248Y-1836260I-34305J-34305D01*
G01X1355226D01*
G03X1319808Y-1805760I-35418J-5314D01*
G01X1239161D01*
G03X1204148Y-1834040I0J-35814D01*
G03X1200537Y-1824351I-35013J-7534D01*
G03X1206962Y-1795874I-59888J28477D01*
G03X1203171Y-1773773I-66314J0D01*
G03X1210569Y-1751974I-28416J21799D01*
G01Y-1661974D01*
G03X1183269Y-1627187I-35814J0D01*
G01Y-1491662D01*
G01X1228047Y-1446885D01*
G03X1233944Y-1462474I48409J9405D01*
G03X1227142Y-1487467I42511J-24994D01*
G03X1233952Y-1512473I49314J0D01*
G03X1227142Y-1537480I42504J-25006D01*
G03X1276456Y-1586794I49314J0D01*
G01X1399455D01*
G03X1448769Y-1537480I0J49314D01*
G03X1441959Y-1512473I-49314J0D01*
G03X1448769Y-1487467I-42504J25006D01*
G03X1441966Y-1462474I-49314J0D01*
G03X1448769Y-1437480I-42511J24994D01*
G03X1448029Y-1428969I-49314J0D01*
G03X1457210Y-1421772I-25124J41502D01*
G01X1560347Y-1318635D01*
G03X1574556Y-1284331I-34305J34305D01*
G01Y-1035982D01*
G01X2117594D01*
G03X2126441Y-1036782I8847J48514D01*
G01X2249441D01*
G03X2258288Y-1035982I0J49314D01*
G01X2463734D01*
G01Y-1097374D01*
G03X2474224Y-1122698I35814J0D01*
G01X2830240Y-1478714D01*
G01Y-1714585D01*
G03X2833271Y-1729006I35814J0D01*
G03X2844405Y-1746749I34577J9332D01*
G01X2499152D01*
G03X2464847Y-1760958I0J-48514D01*
G01X2432142Y-1793664D01*
G03X2417932Y-1827968I34305J-34305D01*
G01Y-1839449D01*
G03X2389717Y-1874448I7599J-34999D01*
G01Y-1955095D01*
G03X2417998Y-1990108I35814J0D01*
G03X2389717Y-2025120I7534J-35013D01*
G01Y-2105768D01*
G03X2425531Y-2141582I35814J0D01*
G01X2511932D01*
G03X2540423Y-2127468I0J35814D01*
G03X2546553Y-2122279I-28175J39494D01*
G01X2675363Y-1993468D01*
G01X2724974D01*
G03X2760788Y-1957654I0J35814D01*
G01Y-1877654D01*
G03X2736592Y-1843777I-35814J0D01*
G01X2852018D01*
G01Y-1860872D01*
G03X2832418Y-1892805I16214J-31933D01*
G01Y-1972805D01*
G03X2868232Y-2008619I35814J0D01*
G01X2958232D01*
G03X2994046Y-1972805I0J35814D01*
G01Y-1892805D01*
G03X2974446Y-1860872I-35814J0D01*
G01Y-1755138D01*
G03X3005262Y-1719674I-4997J35464D01*
G01Y-1480509D01*
G01X3121773Y-1363998D01*
G03X3132262Y-1338674I-25324J25324D01*
G01Y-729074D01*
G03X3121773Y-703750I-35814J0D01*
G01X2893373Y-475350D01*
G03X2829748Y-427729I-63625J-18692D01*
G03X2792380Y-439260I0J-66314D01*
G01X2776965D01*
G03X2740848Y-428562I-36117J-55616D01*
G03X2704732Y-439260I0J-66314D01*
G01X2664751D01*
G03X2639248Y-434160I-25503J-61214D01*
G03X2613745Y-439260I0J-66314D01*
G01X2586162D01*
G01Y-369964D01*
G01X2588448Y-369988D01*
G03X2699262Y-259174I0J110814D01*
G03X2606205Y-149792I-110814J0D01*
G03X2588448Y-147160I-17757J-58582D01*
G03X2570691Y-149792I0J-61214D01*
G03X2482051Y-228202I17757J-109382D01*
G01X2481663Y-228589D01*
G03X2463734Y-271874I43285J-43285D01*
G01Y-473760D01*
G03X2442937Y-506274I15016J-32514D01*
G01Y-596274D01*
G03X2463734Y-628788I35814J0D01*
G01Y-676960D01*
G03X2442937Y-709474I15016J-32514D01*
G01Y-799474D01*
G03X2463734Y-831988I35814J0D01*
G01Y-938954D01*
G01X2258288D01*
G03X2249441Y-938154I-8847J-48514D01*
G01X2126441D01*
G03X2117594Y-938954I0J-49314D01*
G01X2066833D01*
G03X2087268Y-898981I-28879J39973D01*
G01Y-775981D01*
G03X2037954Y-726667I-49314J0D01*
G03X2012948Y-733478I0J-49314D01*
G03X1987941Y-726667I-25006J-42504D01*
G03X1962948Y-733470I0J-49314D01*
G03X1937954Y-726667I-24994J-42511D01*
G03X1912948Y-733478I0J-49314D01*
G03X1887942Y-726667I-25006J-42504D01*
G03X1862948Y-733470I0J-49314D01*
G03X1837954Y-726667I-24994J-42511D01*
G01X1836456Y-726690D01*
G01Y-520976D01*
G01X2011503Y-345928D01*
G03X2080448Y-369988I68945J86754D01*
G03X2191262Y-259174I0J110814D01*
G03X2080448Y-148360I-110814J0D01*
G03X1969997Y-250216I0J-110814D01*
G01X1933883Y-286330D01*
G03X1937262Y-259174I-107435J27156D01*
G03X1826448Y-148360I-110814J0D01*
G03X1715634Y-259174I0J-110814D01*
G03X1774341Y-356972I110814J0D01*
G01X1703650Y-427663D01*
G03X1689441Y-461968I34305J-34305D01*
G01Y-726690D01*
G01X1687942Y-726667D01*
G03X1662948Y-733470I0J-49314D01*
G03X1637955Y-726667I-24994J-42511D01*
G03X1612949Y-733478I0J-49314D01*
G03X1587942Y-726667I-25006J-42504D01*
G03X1538628Y-775981I0J-49314D01*
G01Y-898981D01*
G03X1559063Y-938954I49314J0D01*
G01X1546138D01*
G01X1536456Y-929273D01*
G01Y-907828D01*
G03X1537257Y-898981I-48514J8847D01*
G01Y-775981D01*
G03X1536456Y-767134I-49314J0D01*
G01Y-733468D01*
G03X1522247Y-699164I-48514J0D01*
G01X1448692Y-625608D01*
G03X1463960Y-596274I-20546J29334D01*
G01Y-506274D01*
G03X1428146Y-470460I-35814J0D01*
G01X1348146D01*
G03X1327013Y-477360I0J-35814D01*
G01X1318551D01*
G03X1293048Y-472260I-25503J-61214D01*
G03X1226734Y-538574I0J-66314D01*
G03X1293048Y-604888I66314J0D01*
G03X1312774Y-601886I0J66314D01*
G03X1339632Y-631061I35372J5612D01*
G01Y-633672D01*
G03X1353841Y-667976I48514J0D01*
G01X1439428Y-753563D01*
G01Y-767134D01*
G03X1438628Y-775981I48514J-8847D01*
G01Y-898981D01*
G03X1439428Y-907828I49314J0D01*
G01Y-949368D01*
G03X1440712Y-960454I48514J0D01*
G03X1399455Y-938154I-41257J-27014D01*
G01X1276456D01*
G03X1228323Y-976739I0J-49314D01*
G01X1201862Y-950279D01*
G01Y-563974D01*
G03X1187653Y-529669I-48514J0D01*
G01X1073353Y-415369D01*
G03X1039048Y-401160I-34305J-34305D01*
G01X594548D01*
G03X562368Y-413369I0J-48514D01*
G03X585814Y-300000I-262368J113369D01*
G03X409066Y-35814I-285814J0D01*
G01X3090934D01*
G03X2914186Y-300000I109066J-264186D01*
G03X3200000Y-585814I285814J0D01*
G03X3464186Y-409066I0J285814D01*
G01Y-2590934D01*
G03X3200000Y-2414186I-264186J-109066D01*
G03X2914186Y-2700000I0J-285814D01*
G01X2055048Y-2136488D02*
G03X2080373Y-2125998I0J35814D01*
G01X2093073Y-2113298D01*
G03X2103562Y-2087974I-25324J25324D01*
G01Y-2037174D01*
G03X2093073Y-2011850I-35814J0D01*
G01X2090862Y-2009639D01*
G01Y-1990923D01*
G03X2099265Y-1967874I-27412J23049D01*
G01Y-1877874D01*
G03X2086468Y-1850436I-35814J0D01*
G01Y-1757814D01*
G03X2087268Y-1748967I-48514J8847D01*
G01Y-1625967D01*
G03X2037954Y-1576653I-49314J0D01*
G03X1988640Y-1625967I0J-49314D01*
G01Y-1748967D01*
G03X1989440Y-1757814I49314J0D01*
G01Y-1842060D01*
G01X1983451D01*
G03X1947637Y-1877874I0J-35814D01*
G01Y-1967874D01*
G03X1954286Y-1988660I35814J0D01*
G01X1902648D01*
G03X1866834Y-2024474I0J-35814D01*
G01Y-2087974D01*
G03X1877324Y-2113298I35814J0D01*
G01X1890024Y-2125998D01*
G03X1915348Y-2136488I25324J25324D01*
G01X2055048D01*
G01X699634Y-334174D02*
G03X735448Y-369988I35814J0D01*
G01X885448D01*
G03X921262Y-334174I0J35814D01*
G01Y-184174D01*
G03X885448Y-148360I-35814J0D01*
G01X735448D01*
G03X699634Y-184174I0J-35814D01*
G01Y-334174D01*
G01X1572448Y-369988D02*
G03X1683262Y-259174I0J110814D01*
G03X1572448Y-148360I-110814J0D01*
G03X1461634Y-259174I0J-110814D01*
G03X1572448Y-369988I110814J0D01*
G01X1318448Y-369988D02*
G03X1429262Y-259174I0J110814D01*
G03X1318448Y-148360I-110814J0D01*
G03X1207634Y-259174I0J-110814D01*
G03X1318448Y-369988I110814J0D01*
G01X953634Y-259174D02*
G03X1064448Y-369988I110814J0D01*
G03X1175262Y-259174I0J110814D01*
G03X1064448Y-148360I-110814J0D01*
G03X953634Y-259174I0J-110814D01*
G01X35814Y-2590934D02*
G01X35814Y-2502562D01*
G03X76200Y-2514214I40386J64162D01*
G03X83073Y-2513902I0J75814D01*
G03X35814Y-2590934I216927J-186098D01*
G01X495234Y-933351D02*
G03X477451Y-926020I-22040J-28229D01*
G03X467499Y-911590I-44256J-19875D01*
G01X415200Y-859291D01*
G01X458573D01*
G03X494387Y-823477I0J35814D01*
G01Y-772748D01*
G01X495234Y-771901D01*
G01Y-933351D01*
G01X1639428Y-2130185D02*
G01X1514253Y-2255360D01*
G01X1192836D01*
G01X1099062Y-2161586D01*
G01Y-2044381D01*
G03X1063248Y-2008567I-35814J0D01*
G01X927514D01*
G01X882735Y-1963788D01*
G01X926108D01*
G03X961526Y-1933288I0J35814D01*
G01X1053070D01*
G03X1088488Y-1963788I35418J5314D01*
G01X1169136D01*
G03X1204148Y-1935508I0J35814D01*
G03X1239161Y-1963788I35013J7534D01*
G01X1319808D01*
G03X1354116Y-1938251I0J35814D01*
G01X1358834Y-1942969D01*
G01Y-2008567D01*
G01X1332348D01*
G03X1296534Y-2044381I0J-35814D01*
G01Y-2094145D01*
G03X1282700Y-2092686I-13834J-64855D01*
G03X1216386Y-2159000I0J-66314D01*
G03X1282700Y-2225314I66314J0D01*
G03X1307742Y-2220404I0J66314D01*
G03X1332348Y-2230195I24606J26023D01*
G01X1482348D01*
G03X1518162Y-2194381I0J35814D01*
G01Y-2044381D01*
G03X1482348Y-2008567I-35814J0D01*
G01X1455862D01*
G01Y-1942969D01*
G01X1465543Y-1933288D01*
G01X1559748D01*
G03X1594053Y-1919079I0J48514D01*
G01X1639428Y-1873703D01*
G01Y-2130185D01*
G01X1477528Y-1264236D02*
G01X1448418Y-1293346D01*
G03X1448769Y-1287468I-48962J5879D01*
G03X1441966Y-1262474I-49314J0D01*
G03X1448769Y-1237480I-42511J24994D01*
G03X1441959Y-1212474I-49314J0D01*
G03X1448769Y-1187468I-42504J25006D01*
G03X1441966Y-1162474I-49314J0D01*
G03X1448769Y-1137481I-42511J24994D01*
G03X1441959Y-1112474I-49314J0D01*
G03X1448769Y-1087468I-42504J25006D01*
G03X1441966Y-1062474I-49314J0D01*
G03X1448769Y-1037481I-42511J24994D01*
G03X1441959Y-1012474I-49314J0D01*
G03X1448769Y-987468I-42504J25006D01*
G03X1447432Y-976061I-49314J0D01*
G03X1453638Y-983673I40511J26693D01*
G01X1477528Y-1007563D01*
G01Y-1264236D01*
G01X2609161Y-1922452D02*
G01X2534390Y-1997223D01*
G03X2519466Y-1990108I-22458J-27898D01*
G03X2547746Y-1955095I-7534J35013D01*
G01Y-1874448D01*
G03X2530424Y-1843777I-35814J0D01*
G01X2633358D01*
G03X2609161Y-1877654I11617J-33878D01*
G01Y-1922452D01*
G04 Copper End*

G04 PolygonModel Start*
G36*
G01X2867848Y-1719674D02*
G01X2867848Y-1465674D01*
G01X2499548Y-1097374D01*
G01Y-475074D01*
G01X2842448D01*
G01X3096448Y-729074D01*
G01Y-1338674D01*
G01X2969448Y-1465674D01*
G01Y-1719674D01*
G01X2867848D01*
G37*
G36*
G01X2055048Y-2024474D02*
G01X2067748Y-2037174D01*
G01Y-2087974D01*
G01X2055048Y-2100674D01*
G01X1915348D01*
G01X1902648Y-2087974D01*
G01Y-2024474D01*
G01X2055048D01*
G37*
G04 PolygonModel End*

G04 Pad Start*
G54D10*
G01X3200000Y-2700000D03*
G01X3200000Y-300000D03*
G01X300000Y-300000D03*
G01X300000Y-2700000D03*
G54D11*
G01X76200Y-2438400D03*
G01X228600Y-2374900D03*
G01X431800Y-2374900D03*
G01X558800Y-2489200D03*
G01X622300Y-2641600D03*
G01X622300Y-2806700D03*
G01X546100Y-2921000D03*
G01X2933700Y-2914650D03*
G01X2882900Y-2762250D03*
G01X2895600Y-2571750D03*
G01X2997200Y-2444750D03*
G01X3136900Y-2368550D03*
G01X3302000Y-2368550D03*
G01X3416300Y-2444750D03*
G01X3422650Y-558800D03*
G01X3270250Y-609600D03*
G01X3079750Y-596900D03*
G01X2952750Y-495300D03*
G01X2876550Y-355600D03*
G01X2876550Y-190500D03*
G01X2952750Y-76200D03*
G01X546100Y-76200D03*
G01X609600Y-215900D03*
G01X330200Y-622300D03*
G01X177800Y-603250D03*
G01X76200Y-546100D03*
G54D12*
G01X1337955Y-987468D03*
G01X1337955Y-1037481D03*
G01X1337955Y-1087468D03*
G01X1337955Y-1137481D03*
G01X1337955Y-1187468D03*
G01X1337955Y-1237480D03*
G01X1337955Y-1287468D03*
G01X1337955Y-1337480D03*
G01X1337955Y-1387467D03*
G01X1337955Y-1437480D03*
G01X1337955Y-1487467D03*
G01X1337955Y-1537480D03*
G54D13*
G01X1487942Y-1687467D03*
G01X1537955Y-1687467D03*
G01X1587942Y-1687467D03*
G01X1637955Y-1687467D03*
G01X1687942Y-1687467D03*
G01X1737955Y-1687467D03*
G01X1787942Y-1687467D03*
G01X1837954Y-1687467D03*
G01X1887942Y-1687467D03*
G01X1937954Y-1687467D03*
G01X1987941Y-1687467D03*
G01X2037954Y-1687467D03*
G54D12*
G01X2187941Y-1537480D03*
G01X2187941Y-1487467D03*
G01X2187941Y-1437480D03*
G01X2187941Y-1387467D03*
G01X2187941Y-1337480D03*
G01X2187941Y-1287468D03*
G01X2187941Y-1237480D03*
G01X2187941Y-1187468D03*
G01X2187941Y-1137481D03*
G01X2187941Y-1087468D03*
G01X2187941Y-1037481D03*
G01X2187941Y-987468D03*
G54D13*
G01X2037954Y-837481D03*
G01X1987941Y-837481D03*
G01X1937954Y-837481D03*
G01X1887942Y-837481D03*
G01X1837954Y-837481D03*
G01X1787942Y-837481D03*
G01X1737955Y-837481D03*
G01X1687942Y-837481D03*
G01X1637955Y-837481D03*
G01X1587942Y-837481D03*
G01X1537955Y-837481D03*
G01X1487942Y-837481D03*
G54D14*
G01X2518751Y-754474D03*
G01X2378746Y-754474D03*
G01X2023451Y-1922874D03*
G01X1883446Y-1922874D03*
G01X1528151Y-551274D03*
G01X1388146Y-551274D03*
G01X1274760Y-1706974D03*
G01X1134755Y-1706974D03*
G01X880755Y-1706974D03*
G01X740751Y-1706974D03*
G01X882000Y-755015D03*
G01X741995Y-755015D03*
G54D15*
G01X810448Y-1019371D03*
G01X810448Y-1429377D03*
G54D16*
G01X3141832Y-1932805D03*
G01X3141832Y-2072810D03*
G54D17*
G01X2685057Y-1591085D03*
G01X2915054Y-1591085D03*
G01X3145051Y-1591085D03*
G54D19*
G01X2915054Y-1024106D03*
G54D20*
G01X2913232Y-2072810D03*
G01X2913232Y-1932805D03*
G54D21*
G01X2685660Y-2077547D03*
G01X2684975Y-1917654D03*
G54D22*
G01X2468732Y-1914771D03*
G01X2468732Y-2065444D03*
G54D23*
G01X273302Y-1886708D03*
G01X433195Y-1886022D03*
G54D24*
G01X418249Y-1664719D03*
G01X267577Y-1664719D03*
G54D23*
G01X273302Y-1444487D03*
G01X433195Y-1443801D03*
G54D24*
G01X418249Y-1222498D03*
G01X267577Y-1222498D03*
G54D23*
G01X273302Y-1002266D03*
G01X433195Y-1001580D03*
G54D24*
G01X418249Y-780277D03*
G01X267577Y-780277D03*
G54D25*
G01X810448Y-259174D03*
G54D26*
G01X1064448Y-259174D03*
G01X1318448Y-259174D03*
G01X1572448Y-259174D03*
G01X1826448Y-259174D03*
G01X2080448Y-259174D03*
G01X2334448Y-259174D03*
G01X2588448Y-259174D03*
G54D27*
G01X988248Y-2119381D03*
G01X988248Y-2869367D03*
G01X1407348Y-2119381D03*
G01X1407348Y-2869367D03*
G54D28*
G01X735112Y-1884774D03*
G01X885785Y-1884774D03*
G54D24*
G01X1279485Y-1884774D03*
G01X1128812Y-1884774D03*
G54D29*
G01X1860647Y-2595295D03*
G01X2110659Y-2595295D03*
G01X2360646Y-2595295D03*
G54D30*
G01X2610658Y-2595295D03*
G54D14*
G01X2518751Y-551274D03*
G01X2378746Y-551274D03*
G04 Pad End*

G04 Via Start*
G54D31*
G01X2537648Y-1084674D03*
G01X2603137Y-1084674D03*
G01X2672511Y-1084674D03*
G01X2740848Y-856074D03*
G01X2823897Y-856074D03*
G01X2931348Y-856074D03*
G01X3045648Y-856074D03*
G01X2740848Y-741774D03*
G01X2740848Y-633130D03*
G01X2740848Y-494876D03*
G01X2829748Y-740941D03*
G01X2829748Y-632297D03*
G01X2829748Y-494043D03*
G01X2931348Y-741774D03*
G01X2931348Y-627474D03*
G01X3048000Y-749300D03*
G01X2639248Y-500474D03*
G01X2639248Y-856074D03*
G01X2639248Y-741774D03*
G01X2639248Y-627474D03*
G01X1140648Y-1795874D03*
G01X1293048Y-538574D03*
G01X2029648Y-2062574D03*
G01X1951803Y-2062574D03*
G01X743295Y-668542D03*
G01X668208Y-1707962D03*
G01X202406Y-1886134D03*
G01X1353697Y-1705264D03*
G01X1104900Y-1371600D03*
G01X2606926Y-1516479D03*
G01X2573982Y-1573796D03*
G01X2608761Y-1633095D03*
G01X2579561Y-1692394D03*
G01X3136762Y-2136668D03*
G01X2917406Y-2144596D03*
G01X2692763Y-2149221D03*
G01X2793192Y-2079186D03*
G01X3036994Y-2073900D03*
G01X1930400Y-1206500D03*
G01X990600Y-1435100D03*
G01X1282700Y-2159000D03*
G04 Via End*

G04 Track Start*
G54D32*
G01X988248Y-2119381D02*
G01X969719Y-2119381D01*
G01X735112Y-1884774D01*
G01X885785Y-1884774D02*
G01X1128812Y-1884774D01*
G01X1134755Y-1878830D02*
G01X1128812Y-1884774D01*
G01X1134755Y-1706974D02*
G01X1134755Y-1471567D01*
G01X1218855Y-1387467D01*
G01X1337955D01*
G01X2037954Y-1687467D02*
G01X2037954Y-1908371D01*
G01X2023451Y-1922874D01*
G01X267577Y-1222498D02*
G01X433195Y-1388116D01*
G01Y-1443801D01*
G01X267577Y-780277D02*
G01X433195Y-945895D01*
G01Y-1001580D01*
G01X267577Y-1664719D02*
G01X433195Y-1830337D01*
G01Y-1886022D01*
G01X273302Y-1886708D02*
G01X137348Y-1750755D01*
G01Y-1516474D01*
G01X209335Y-1444487D01*
G01X232842Y-1444487D02*
G01X137348Y-1348994D01*
G01Y-1071974D01*
G01X207056Y-1002266D01*
G01X273302D01*
G01X209335Y-1444487D02*
G01X232842Y-1444487D01*
G01X273302D01*
G01X810448Y-1429377D02*
G01X1002345Y-1237480D01*
G01X1337955D01*
G01X810448Y-1019371D02*
G01X978545Y-1187468D01*
G01X1337955D01*
G01X810448Y-1019371D02*
G01X882000Y-947819D01*
G01Y-755015D01*
G01X810448Y-1429377D02*
G01X880755Y-1499685D01*
G01Y-1706974D01*
G01X1039048Y-1059274D02*
G01X1115248Y-1135474D01*
G01X1335949D01*
G01X1337955Y-1137481D01*
G01X418249Y-1664719D02*
G01X594548Y-1488420D01*
G01X418249Y-1222498D02*
G01X444025Y-1222498D01*
G01X1089848Y-1008474D02*
G01X1168842Y-1087468D01*
G01X1337955D01*
G01X1153348Y-970374D02*
G01X1220455Y-1037481D01*
G01X1337955D01*
G01X418249Y-780277D02*
G01X492948Y-705578D01*
G01X444025Y-1222498D02*
G01X543748Y-1122774D01*
G01X988248Y-2869367D02*
G01X1407348Y-2869367D01*
G01X1559748Y-1884774D02*
G01X1637955Y-1806567D01*
G01Y-1687467D01*
G01X1279485Y-1884774D02*
G01X1369248Y-1884774D01*
G01X1407348Y-1922874D02*
G01X1407348Y-2119381D01*
G01X1407348Y-1922874D02*
G01X1445448Y-1884774D01*
G01X1559748D01*
G01X1407348Y-1922874D02*
G01X1369248Y-1884774D01*
G01X988248Y-2119381D02*
G01X1172741Y-2303874D01*
G01X1534348D01*
G01X1687942Y-2150280D01*
G01Y-1687467D01*
G01X2187941Y-1828081D02*
G01X2385248Y-1630774D01*
G01X2187941Y-2272581D02*
G01X2187941Y-1828081D01*
G01X2245548Y-1846674D02*
G01X2436048Y-1656174D01*
G01X1039048Y-602074D02*
G01X1039048Y-1059274D01*
G01X594548Y-1488420D02*
G01X594548Y-602074D01*
G01X543748Y-1122774D02*
G01X543748Y-576674D01*
G01X1089848Y-576674D02*
G01X1089848Y-1008474D01*
G01X594548Y-602074D02*
G01X645348Y-551274D01*
G01X988248D01*
G01X1039048Y-602074D01*
G01X543748Y-576674D02*
G01X619948Y-500474D01*
G01X1013648D01*
G01X1089848Y-576674D01*
G01X492948Y-705578D02*
G01X492948Y-551274D01*
G01X1153348Y-563974D02*
G01X1153348Y-970374D01*
G01X492948Y-551274D02*
G01X594548Y-449674D01*
G01X1039048D01*
G01X1153348Y-563974D01*
G01X1528151Y-551274D02*
G01X1537955Y-561078D01*
G01Y-837481D01*
G01X1388146Y-551274D02*
G01X1388146Y-633672D01*
G01X1487942Y-733468D01*
G01Y-837481D01*
G01X1987941Y-1687467D02*
G01X1987941Y-1818378D01*
G01X1883446Y-1922874D01*
G01X2512248Y-2087974D02*
G01X2682568Y-1917654D01*
G01X2684975D01*
G54D33*
G01X2913232Y-1932805D02*
G01X2913232Y-1592908D01*
G01X2915054Y-1591085D01*
G01X3145051Y-1591085D02*
G01X3145051Y-1929586D01*
G01X3141832Y-1932805D01*
G01X2913232Y-1592908D02*
G01X2913232Y-1025929D01*
G01X2915054Y-1024106D01*
G01X2565981D01*
G01X2524948Y-983074D01*
G01Y-557472D01*
G01X2518751Y-551274D01*
G54D32*
G01X2187941Y-987468D02*
G01X2520554Y-987468D01*
G01X2524948Y-983074D01*
G01X1487942Y-837481D02*
G01X1487942Y-949368D01*
G01X1526042Y-987468D01*
G01X2093148Y-1338674D02*
G01X2094342Y-1337480D01*
G01X2187941D01*
G01X1337955Y-1387467D02*
G01X1422906Y-1387467D01*
G01X1526042Y-1284331D01*
G01X1526042Y-987468D02*
G01X2187941Y-987468D01*
G01X1526042Y-1284331D02*
G01X1526042Y-987468D01*
G01X1787942Y-837481D02*
G01X1787942Y-500880D01*
G01X2080448Y-208374D01*
G01X1826448Y-208374D02*
G01X1826448Y-373474D01*
G01X1737955Y-461968D01*
G01Y-837481D01*
G54D33*
G01X2524948Y-557472D02*
G01X2524948Y-271874D01*
G01X2588448Y-208374D01*
G01X2334448Y-208374D02*
G01X2378746Y-252672D01*
G01Y-551274D01*
G01Y-754474D01*
G01X1140648Y-1795874D02*
G01X1135100Y-1795874D01*
G01X1134755Y-1795530D01*
G54D32*
G01X1134755Y-1706974D02*
G01X1134755Y-1795530D01*
G01Y-1878830D01*
G54D33*
G01X1293048Y-538574D02*
G01X1375446Y-538574D01*
G01X1388146Y-551274D01*
G01X2029648Y-2062574D02*
G01X2029648Y-1929072D01*
G01X2023451Y-1922874D01*
G54D32*
G01X2466446Y-1906758D02*
G01X2466446Y-1827968D01*
G01X2499152Y-1795263D01*
G01X2909454D01*
G01X2912427Y-1798236D01*
G01X1867346Y-2599639D02*
G01X1869439Y-2601732D01*
G01X1894839Y-2576332D01*
G01Y-2565683D01*
G01X2187941Y-2272581D01*
G54D33*
G01X3286060Y-1985341D02*
G01X3232542Y-1931824D01*
G01X3167132D01*
G01X3161185Y-1937770D01*
G01X3235260Y-2249461D02*
G01X3286060Y-2198661D01*
G01Y-1985341D01*
G01X2370313Y-2571063D02*
G01X2370313Y-2315863D01*
G01X2436714Y-2249461D01*
G01X3235260D01*
G54D32*
G01X2107845Y-2611366D02*
G01X2107845Y-2469105D01*
G01X2245548Y-2331402D01*
G01Y-1846674D01*
G01X2385248Y-1630774D02*
G01X2385248Y-1364956D01*
G01X2307760Y-1287468D01*
G01X2187941D01*
G01X2436048Y-1656174D02*
G01X2436048Y-1338602D01*
G01X2334926Y-1237480D01*
G01X2187941D01*
G01X1687942Y-1687467D02*
G01X1687942Y-1500165D01*
G01X1849432Y-1338674D01*
G01X2093148D01*
G54D34*
G01X2187941Y-1037481D02*
G01X2099419Y-1037481D01*
G01X1930400Y-1206500D01*
G01X1104900Y-1371600D02*
G01X1168400Y-1371600D01*
G01X1202520Y-1337480D01*
G01X1337955D01*
G01X1337955Y-1287468D02*
G01X1087432Y-1287468D01*
G01X990600Y-1384300D01*
G01Y-1435100D01*
G01X1282700Y-2159000D02*
G01X1367729Y-2159000D01*
G01X1407348Y-2119381D01*
G04 Track End*
%SR*%

M02*
