G04 Layer: TopSolderMaskLayer*
G04 EasyEDA Pro v2.1.64.d1969c9c.217bcf, 2025-01-15 01:44:41*
G04 Gerber Generator version 0.3*
G04 Scale: 100 percent, Rotated: No, Reflected: No*
G04 Dimensions in millimeters*
G04 Leading zeros omitted, absolute positions, 3 integers and 5 decimals*
G04 Panelize: V-CUT, Column: 2, Row: 3, Board Size: 35.001mm x 30mm, Panelized Board Size: 69.997mm x 89.992mm, Panelized Method: All Objects*
%FSLAX35Y35*%
%MOMM*%
%AMRoundRect*1,1,$1,$2,$3*1,1,$1,$4,$5*1,1,$1,0-$2,0-$3*1,1,$1,0-$4,0-$5*20,1,$1,$2,$3,$4,$5,0*20,1,$1,$4,$5,0-$2,0-$3,0*20,1,$1,0-$2,0-$3,0-$4,0-$5,0*20,1,$1,0-$4,0-$5,$2,$3,0*4,1,4,$2,$3,$4,$5,0-$2,0-$3,0-$4,0-$5,$2,$3,0*%
%ADD10C,5.102*%
%ADD11C,0.902*%
%ADD12O,1.60002X0.37003*%
%ADD13O,0.37003X1.60002*%
%ADD14RoundRect,0.09131X-0.40514X0.45514X0.40514X0.45514*%
%ADD15RoundRect,0.09669X1.20245X0.95245X1.20245X-0.95245*%
%ADD16RoundRect,0.09131X-0.45514X-0.40514X-0.45514X0.40514*%
%ADD17RoundRect,0.09288X0.49437X1.23936X0.49437X-1.23936*%
%ADD18RoundRect,0.09774X1.80193X1.23693X1.80193X-1.23693*%
%ADD19RoundRect,0.09131X0.45514X0.40514X0.45514X-0.40514*%
%ADD20RoundRect,0.09131X0.40514X-0.40514X-0.40514X-0.40514*%
%ADD21RoundRect,0.09138X-0.43712X-0.40835X-0.43712X0.40835*%
%ADD22RoundRect,0.09131X-0.40514X-0.40514X-0.40514X0.40514*%
%ADD23RoundRect,0.09138X-0.40835X0.43712X0.40835X0.43712*%
%ADD24RoundRect,0.0959X-0.75305X0.75305X0.75305X0.75305*%
%ADD25C,1.602*%
%ADD26RoundRect,0.0959X-0.75305X-0.75305X-0.75305X0.75305*%
%ADD27RoundRect,0.09138X0.40835X-0.43712X-0.40835X-0.43712*%
%ADD28C,2.1016*%
%ADD29RoundRect,0.09691X1.00234X-1.00234X-1.00234X-1.00234*%
G75*


%SRX2Y3I34.99746J29.99746*%

G04 Pad Start*
G54D10*
G01X3200000Y-2700000D03*
G01X3200000Y-300000D03*
G01X300000Y-300000D03*
G01X300000Y-2700000D03*
G54D11*
G01X76200Y-2438400D03*
G01X228600Y-2374900D03*
G01X431800Y-2374900D03*
G01X558800Y-2489200D03*
G01X622300Y-2641600D03*
G01X622300Y-2806700D03*
G01X546100Y-2921000D03*
G01X2933700Y-2914650D03*
G01X2882900Y-2762250D03*
G01X2895600Y-2571750D03*
G01X2997200Y-2444750D03*
G01X3136900Y-2368550D03*
G01X3302000Y-2368550D03*
G01X3416300Y-2444750D03*
G01X3422650Y-558800D03*
G01X3270250Y-609600D03*
G01X3079750Y-596900D03*
G01X2952750Y-495300D03*
G01X2876550Y-355600D03*
G01X2876550Y-190500D03*
G01X2952750Y-76200D03*
G01X546100Y-76200D03*
G01X609600Y-215900D03*
G01X330200Y-622300D03*
G01X177800Y-603250D03*
G01X76200Y-546100D03*
G54D12*
G01X1337955Y-987468D03*
G01X1337955Y-1037481D03*
G01X1337955Y-1087468D03*
G01X1337955Y-1137481D03*
G01X1337955Y-1187468D03*
G01X1337955Y-1237480D03*
G01X1337955Y-1287468D03*
G01X1337955Y-1337480D03*
G01X1337955Y-1387467D03*
G01X1337955Y-1437480D03*
G01X1337955Y-1487467D03*
G01X1337955Y-1537480D03*
G54D13*
G01X1487942Y-1687467D03*
G01X1537955Y-1687467D03*
G01X1587942Y-1687467D03*
G01X1637955Y-1687467D03*
G01X1687942Y-1687467D03*
G01X1737955Y-1687467D03*
G01X1787942Y-1687467D03*
G01X1837954Y-1687467D03*
G01X1887942Y-1687467D03*
G01X1937954Y-1687467D03*
G01X1987941Y-1687467D03*
G01X2037954Y-1687467D03*
G54D12*
G01X2187941Y-1537480D03*
G01X2187941Y-1487467D03*
G01X2187941Y-1437480D03*
G01X2187941Y-1387467D03*
G01X2187941Y-1337480D03*
G01X2187941Y-1287468D03*
G01X2187941Y-1237480D03*
G01X2187941Y-1187468D03*
G01X2187941Y-1137481D03*
G01X2187941Y-1087468D03*
G01X2187941Y-1037481D03*
G01X2187941Y-987468D03*
G54D13*
G01X2037954Y-837481D03*
G01X1987941Y-837481D03*
G01X1937954Y-837481D03*
G01X1887942Y-837481D03*
G01X1837954Y-837481D03*
G01X1787942Y-837481D03*
G01X1737955Y-837481D03*
G01X1687942Y-837481D03*
G01X1637955Y-837481D03*
G01X1587942Y-837481D03*
G01X1537955Y-837481D03*
G01X1487942Y-837481D03*
G54D14*
G01X2518751Y-754474D03*
G01X2378746Y-754474D03*
G01X2023451Y-1922874D03*
G01X1883446Y-1922874D03*
G01X1528151Y-551274D03*
G01X1388146Y-551274D03*
G01X1274760Y-1706974D03*
G01X1134755Y-1706974D03*
G01X880755Y-1706974D03*
G01X740751Y-1706974D03*
G01X882000Y-755015D03*
G01X741995Y-755015D03*
G54D15*
G01X810448Y-1019371D03*
G01X810448Y-1429377D03*
G54D16*
G01X3141832Y-1932805D03*
G01X3141832Y-2072810D03*
G54D17*
G01X2685057Y-1591085D03*
G01X2915054Y-1591085D03*
G01X3145051Y-1591085D03*
G54D18*
G01X2915054Y-1024106D03*
G54D19*
G01X2913232Y-2072810D03*
G01X2913232Y-1932805D03*
G54D20*
G01X2685660Y-2077547D03*
G01X2684975Y-1917654D03*
G54D21*
G01X2468732Y-1914771D03*
G01X2468732Y-2065444D03*
G54D22*
G01X273302Y-1886708D03*
G01X433195Y-1886022D03*
G54D23*
G01X418249Y-1664719D03*
G01X267577Y-1664719D03*
G54D22*
G01X273302Y-1444487D03*
G01X433195Y-1443801D03*
G54D23*
G01X418249Y-1222498D03*
G01X267577Y-1222498D03*
G54D22*
G01X273302Y-1002266D03*
G01X433195Y-1001580D03*
G54D23*
G01X418249Y-780277D03*
G01X267577Y-780277D03*
G54D24*
G01X810448Y-259174D03*
G54D25*
G01X1064448Y-259174D03*
G01X1318448Y-259174D03*
G01X1572448Y-259174D03*
G01X1826448Y-259174D03*
G01X2080448Y-259174D03*
G01X2334448Y-259174D03*
G01X2588448Y-259174D03*
G54D26*
G01X988248Y-2119381D03*
G01X988248Y-2869367D03*
G01X1407348Y-2119381D03*
G01X1407348Y-2869367D03*
G54D27*
G01X735112Y-1884774D03*
G01X885785Y-1884774D03*
G54D23*
G01X1279485Y-1884774D03*
G01X1128812Y-1884774D03*
G54D28*
G01X1860647Y-2595295D03*
G01X2110659Y-2595295D03*
G01X2360646Y-2595295D03*
G54D29*
G01X2610658Y-2595295D03*
G54D14*
G01X2518751Y-551274D03*
G01X2378746Y-551274D03*
G04 Pad End*
%SR*%

M02*
