G04 Layer: TopPasteMaskLayer*
G04 EasyEDA Pro v2.1.64.d1969c9c.217bcf, 2025-01-15 01:44:41*
G04 Gerber Generator version 0.3*
G04 Scale: 100 percent, Rotated: No, Reflected: No*
G04 Dimensions in millimeters*
G04 Leading zeros omitted, absolute positions, 3 integers and 5 decimals*
G04 Panelize: V-CUT, Column: 2, Row: 3, Board Size: 35.001mm x 30mm, Panelized Board Size: 69.997mm x 89.992mm, Panelized Method: All Objects*
%FSLAX35Y35*%
%MOMM*%
%ADD10O,1.5X0.27*%
%ADD11O,0.27X1.5*%
%ADD12R,0.8X0.9*%
%ADD13R,2.4X1.9*%
%ADD14R,0.9X0.8*%
%ADD15R,0.98001X2.47*%
%ADD16R,3.59999X2.47*%
%ADD17R,0.9X0.8*%
%ADD18R,0.8X0.8*%
%ADD19R,0.8X0.8*%
%ADD20R,1.5X1.5*%
G75*


%SRX2Y3I34.99746J29.99746*%

G04 PolygonModel Start*
G36*
G01X2423733Y-1870606D02*
G01X2423733Y-1950606D01*
G01X2428734Y-1955607D01*
G01X2451531D01*
G01Y-1918607D01*
G01X2484530D01*
G01Y-1955607D01*
G01X2508734D01*
G01X2513733Y-1950606D01*
G01Y-1870606D01*
G01X2508734Y-1865607D01*
G01X2428734D01*
G01X2423733Y-1870606D01*
G37*
G36*
G01X2513730Y-2109610D02*
G01X2513730Y-2029610D01*
G01X2508729Y-2024609D01*
G01X2485933D01*
G01Y-2061609D01*
G01X2452933D01*
G01Y-2024609D01*
G01X2428729D01*
G01X2423730Y-2029610D01*
G01Y-2109610D01*
G01X2428729Y-2114608D01*
G01X2508729D01*
G01X2513730Y-2109610D01*
G37*
G36*
G01X462415Y-1619720D02*
G01X382415Y-1619720D01*
G01X377414Y-1624721D01*
G01Y-1647518D01*
G01X414414D01*
G01Y-1680518D01*
G01X377414D01*
G01Y-1704721D01*
G01X382415Y-1709720D01*
G01X462415D01*
G01X467414Y-1704721D01*
G01Y-1624721D01*
G01X462415Y-1619720D01*
G37*
G36*
G01X223411Y-1709717D02*
G01X303411Y-1709717D01*
G01X308412Y-1704716D01*
G01Y-1681920D01*
G01X271412D01*
G01Y-1648920D01*
G01X308412D01*
G01Y-1624716D01*
G01X303411Y-1619718D01*
G01X223411D01*
G01X218412Y-1624716D01*
G01Y-1704716D01*
G01X223411Y-1709717D01*
G37*
G36*
G01X462415Y-1177499D02*
G01X382415Y-1177499D01*
G01X377414Y-1182500D01*
G01Y-1205297D01*
G01X414414D01*
G01Y-1238296D01*
G01X377414D01*
G01Y-1262500D01*
G01X382415Y-1267499D01*
G01X462415D01*
G01X467414Y-1262500D01*
G01Y-1182500D01*
G01X462415Y-1177499D01*
G37*
G36*
G01X223411Y-1267496D02*
G01X303411Y-1267496D01*
G01X308412Y-1262495D01*
G01Y-1239699D01*
G01X271412D01*
G01Y-1206699D01*
G01X308412D01*
G01Y-1182495D01*
G01X303411Y-1177497D01*
G01X223411D01*
G01X218412Y-1182495D01*
G01Y-1262495D01*
G01X223411Y-1267496D01*
G37*
G36*
G01X462415Y-735278D02*
G01X382415Y-735278D01*
G01X377414Y-740279D01*
G01Y-763076D01*
G01X414414D01*
G01Y-796075D01*
G01X377414D01*
G01Y-820279D01*
G01X382415Y-825278D01*
G01X462415D01*
G01X467414Y-820279D01*
G01Y-740279D01*
G01X462415Y-735278D01*
G37*
G36*
G01X223411Y-825275D02*
G01X303411Y-825275D01*
G01X308412Y-820274D01*
G01Y-797477D01*
G01X271412D01*
G01Y-764478D01*
G01X308412D01*
G01Y-740274D01*
G01X303411Y-735275D01*
G01X223411D01*
G01X218412Y-740274D01*
G01Y-820274D01*
G01X223411Y-825275D01*
G37*
G36*
G01X690946Y-1929773D02*
G01X770946Y-1929773D01*
G01X775947Y-1924771D01*
G01Y-1901975D01*
G01X738947D01*
G01Y-1868975D01*
G01X775947D01*
G01Y-1844772D01*
G01X770946Y-1839773D01*
G01X690946D01*
G01X685948Y-1844772D01*
G01Y-1924771D01*
G01X690946Y-1929773D01*
G37*
G36*
G01X929950Y-1839775D02*
G01X849950Y-1839775D01*
G01X844949Y-1844777D01*
G01Y-1867573D01*
G01X881949D01*
G01Y-1900573D01*
G01X844949D01*
G01Y-1924776D01*
G01X849950Y-1929775D01*
G01X929950D01*
G01X934949Y-1924776D01*
G01Y-1844777D01*
G01X929950Y-1839775D01*
G37*
G36*
G01X1323650Y-1839775D02*
G01X1243650Y-1839775D01*
G01X1238649Y-1844777D01*
G01Y-1867573D01*
G01X1275649D01*
G01Y-1900573D01*
G01X1238649D01*
G01Y-1924776D01*
G01X1243650Y-1929775D01*
G01X1323650D01*
G01X1328649Y-1924776D01*
G01Y-1844777D01*
G01X1323650Y-1839775D01*
G37*
G36*
G01X1084646Y-1929773D02*
G01X1164646Y-1929773D01*
G01X1169647Y-1924771D01*
G01Y-1901975D01*
G01X1132647D01*
G01Y-1868975D01*
G01X1169647D01*
G01Y-1844772D01*
G01X1164646Y-1839773D01*
G01X1084646D01*
G01X1079648Y-1844772D01*
G01Y-1924771D01*
G01X1084646Y-1929773D01*
G37*
G04 PolygonModel End*

G04 Pad Start*
G54D10*
G01X1337955Y-987468D03*
G01X1337955Y-1037481D03*
G01X1337955Y-1087468D03*
G01X1337955Y-1137481D03*
G01X1337955Y-1187468D03*
G01X1337955Y-1237480D03*
G01X1337955Y-1287468D03*
G01X1337955Y-1337480D03*
G01X1337955Y-1387467D03*
G01X1337955Y-1437480D03*
G01X1337955Y-1487467D03*
G01X1337955Y-1537480D03*
G54D11*
G01X1487942Y-1687467D03*
G01X1537955Y-1687467D03*
G01X1587942Y-1687467D03*
G01X1637955Y-1687467D03*
G01X1687942Y-1687467D03*
G01X1737955Y-1687467D03*
G01X1787942Y-1687467D03*
G01X1837954Y-1687467D03*
G01X1887942Y-1687467D03*
G01X1937954Y-1687467D03*
G01X1987941Y-1687467D03*
G01X2037954Y-1687467D03*
G54D10*
G01X2187941Y-1537480D03*
G01X2187941Y-1487467D03*
G01X2187941Y-1437480D03*
G01X2187941Y-1387467D03*
G01X2187941Y-1337480D03*
G01X2187941Y-1287468D03*
G01X2187941Y-1237480D03*
G01X2187941Y-1187468D03*
G01X2187941Y-1137481D03*
G01X2187941Y-1087468D03*
G01X2187941Y-1037481D03*
G01X2187941Y-987468D03*
G54D11*
G01X2037954Y-837481D03*
G01X1987941Y-837481D03*
G01X1937954Y-837481D03*
G01X1887942Y-837481D03*
G01X1837954Y-837481D03*
G01X1787942Y-837481D03*
G01X1737955Y-837481D03*
G01X1687942Y-837481D03*
G01X1637955Y-837481D03*
G01X1587942Y-837481D03*
G01X1537955Y-837481D03*
G01X1487942Y-837481D03*
G54D12*
G01X2518751Y-754474D03*
G01X2378746Y-754474D03*
G01X2023451Y-1922874D03*
G01X1883446Y-1922874D03*
G01X1528151Y-551274D03*
G01X1388146Y-551274D03*
G01X1274760Y-1706974D03*
G01X1134755Y-1706974D03*
G01X880755Y-1706974D03*
G01X740751Y-1706974D03*
G01X882000Y-755015D03*
G01X741995Y-755015D03*
G54D13*
G01X810448Y-1019371D03*
G01X810448Y-1429377D03*
G54D14*
G01X3141832Y-1932805D03*
G01X3141832Y-2072810D03*
G54D15*
G01X2685057Y-1591085D03*
G01X2915054Y-1591085D03*
G01X3145051Y-1591085D03*
G54D16*
G01X2915054Y-1024106D03*
G54D17*
G01X2913232Y-2072810D03*
G01X2913232Y-1932805D03*
G54D18*
G01X2685660Y-2077547D03*
G01X2684975Y-1917654D03*
G54D19*
G01X273302Y-1886708D03*
G01X433195Y-1886022D03*
G01X273302Y-1444487D03*
G01X433195Y-1443801D03*
G01X273302Y-1002266D03*
G01X433195Y-1001580D03*
G54D20*
G01X988248Y-2119381D03*
G01X988248Y-2869367D03*
G01X1407348Y-2119381D03*
G01X1407348Y-2869367D03*
G54D12*
G01X2518751Y-551274D03*
G01X2378746Y-551274D03*
G04 Pad End*
%SR*%

M02*
