G04 Layer: BottomSolderMaskLayer*
G04 EasyEDA Pro v2.1.64.d1969c9c.217bcf, 2025-01-15 01:44:41*
G04 Gerber Generator version 0.3*
G04 Scale: 100 percent, Rotated: No, Reflected: No*
G04 Dimensions in millimeters*
G04 Leading zeros omitted, absolute positions, 3 integers and 5 decimals*
G04 Panelize: V-CUT, Column: 2, Row: 3, Board Size: 35.001mm x 30mm, Panelized Board Size: 69.997mm x 89.992mm, Panelized Method: All Objects*
%FSLAX35Y35*%
%MOMM*%
%AMRoundRect*1,1,$1,$2,$3*1,1,$1,$4,$5*1,1,$1,0-$2,0-$3*1,1,$1,0-$4,0-$5*20,1,$1,$2,$3,$4,$5,0*20,1,$1,$4,$5,0-$2,0-$3,0*20,1,$1,0-$2,0-$3,0-$4,0-$5,0*20,1,$1,0-$4,0-$5,$2,$3,0*4,1,4,$2,$3,$4,$5,0-$2,0-$3,0-$4,0-$5,$2,$3,0*%
%ADD10C,5.102*%
%ADD11C,0.902*%
%ADD12RoundRect,0.0959X-0.75305X0.75305X0.75305X0.75305*%
%ADD13C,1.602*%
%ADD14C,2.1016*%
%ADD15RoundRect,0.09691X1.00234X-1.00234X-1.00234X-1.00234*%
%ADD16RoundRect,0.09138X0.43712X0.40835X0.43712X-0.40835*%
G75*


%SRX2Y3I34.99746J29.99746*%

G04 Pad Start*
G54D10*
G01X3200000Y-2700000D03*
G01X3200000Y-300000D03*
G01X300000Y-300000D03*
G01X300000Y-2700000D03*
G54D11*
G01X76200Y-2438400D03*
G01X228600Y-2374900D03*
G01X431800Y-2374900D03*
G01X558800Y-2489200D03*
G01X622300Y-2641600D03*
G01X622300Y-2806700D03*
G01X546100Y-2921000D03*
G01X2933700Y-2914650D03*
G01X2882900Y-2762250D03*
G01X2895600Y-2571750D03*
G01X2997200Y-2444750D03*
G01X3136900Y-2368550D03*
G01X3302000Y-2368550D03*
G01X3416300Y-2444750D03*
G01X3422650Y-558800D03*
G01X3270250Y-609600D03*
G01X3079750Y-596900D03*
G01X2952750Y-495300D03*
G01X2876550Y-355600D03*
G01X2876550Y-190500D03*
G01X2952750Y-76200D03*
G01X546100Y-76200D03*
G01X609600Y-215900D03*
G01X330200Y-622300D03*
G01X177800Y-603250D03*
G01X76200Y-546100D03*
G54D12*
G01X810448Y-259174D03*
G54D13*
G01X1064448Y-259174D03*
G01X1318448Y-259174D03*
G01X1572448Y-259174D03*
G01X1826448Y-259174D03*
G01X2080448Y-259174D03*
G01X2334448Y-259174D03*
G01X2588448Y-259174D03*
G54D14*
G01X1860647Y-2595295D03*
G01X2110659Y-2595295D03*
G01X2360646Y-2595295D03*
G54D15*
G01X2610658Y-2595295D03*
G54D16*
G01X952500Y-1878736D03*
G01X952500Y-1728064D03*
G04 Pad End*
%SR*%

M02*
