G04 Layer: BottomLayer*
G04 EasyEDA Pro v2.1.64.d1969c9c.217bcf, 2025-01-15 01:44:41*
G04 Gerber Generator version 0.3*
G04 Scale: 100 percent, Rotated: No, Reflected: No*
G04 Dimensions in millimeters*
G04 Leading zeros omitted, absolute positions, 3 integers and 5 decimals*
G04 Panelize: V-CUT, Column: 2, Row: 3, Board Size: 35.001mm x 30mm, Panelized Board Size: 69.997mm x 89.992mm, Panelized Method: All Objects*
%FSLAX35Y35*%
%MOMM*%
%ADD8191C,0.2032*%
%ADD10C,5.0*%
%ADD11C,0.8*%
%ADD12R,1.5X1.5*%
%ADD13C,1.5*%
%ADD14C,2.0*%
%ADD15R,2.0X2.0*%
%ADD16R,0.86401X0.80648*%
%ADD17C,0.61*%
%ADD18C,0.5119*%
%ADD19C,0.508*%
%ADD20C,0.24*%
G75*


%SRX2Y3I34.99746J29.99746*%

G04 Copper Start*
G36*
G01X2914186Y-2700000D02*
G03X3090934Y-2964186I285814J0D01*
G01X409066D01*
G03X585814Y-2700000I-109066J264186D01*
G03X300000Y-2414186I-285814J0D01*
G03X149728Y-2456879I0J-285814D01*
G03X152014Y-2438400I-73528J18479D01*
G03X76200Y-2362586I-75814J0D01*
G03X35814Y-2374238I0J-75814D01*
G01Y-409066D01*
G03X300000Y-585814I264186J109066D01*
G03X585814Y-300000I0J285814D01*
G03X409066Y-35814I-285814J0D01*
G01X3090934D01*
G03X2914186Y-300000I109066J-264186D01*
G03X3200000Y-585814I285814J0D01*
G03X3464186Y-409066I0J285814D01*
G01Y-2590934D01*
G03X3200000Y-2414186I-264186J-109066D01*
G03X2914186Y-2700000I0J-285814D01*
G37*
%LPC*%
G36*
G01X1282700Y-2225314D02*
G03X1349014Y-2159000I0J66314D01*
G03X1338893Y-2123788I-66314J0D01*
G01X1926300D01*
G03X1951803Y-2128888I25503J61214D01*
G03X1977306Y-2123788I0J66314D01*
G01X2004145D01*
G03X2029648Y-2128888I25503J61214D01*
G03X2095962Y-2062574I0J66314D01*
G03X2029648Y-1996260I-66314J0D01*
G03X2004145Y-2001360I0J-66314D01*
G01X1977306D01*
G03X1951803Y-1996260I-25503J-61214D01*
G03X1926300Y-2001360I0J-66314D01*
G01X1229504D01*
G01X1201862Y-1973718D01*
G01Y-1821377D01*
G03X1206962Y-1795874I-61214J25503D01*
G03X1201862Y-1770371I-66314J0D01*
G01Y-1630730D01*
G01X1686704Y-1145888D01*
G01X2512145D01*
G03X2537648Y-1150988I25503J61214D01*
G03X2563151Y-1145888I0J66314D01*
G01X2577634D01*
G03X2603137Y-1150988I25503J61214D01*
G03X2628639Y-1145888I0J66314D01*
G01X2647008D01*
G03X2672511Y-1150988I25503J61214D01*
G03X2738701Y-1088726I0J66314D01*
G01X2762184Y-1112209D01*
G01Y-1388298D01*
G03X2772674Y-1413623I35814J0D01*
G01X2850050Y-1490998D01*
G03X2875374Y-1501488I25324J25324D01*
G01X2974220D01*
G03X2999545Y-1490998I0J35814D01*
G01X3095829Y-1394714D01*
G01X3098800D01*
G03X3134614Y-1358900I0J35814D01*
G01Y-723900D01*
G03X3124124Y-698576I-35814J0D01*
G01X2888117Y-462568D01*
G03X2829748Y-427729I-58369J-31474D01*
G03X2784837Y-445252I0J-66314D01*
G03X2740848Y-428562I-43989J-49624D01*
G03X2696182Y-445861I0J-66314D01*
G01X2676688Y-445740D01*
G03X2639248Y-434160I-37440J-54734D01*
G03X2602492Y-445279I0J-66314D01*
G01X2476997Y-444498D01*
G01X2476775Y-444497D01*
G03X2440961Y-480311I0J-35814D01*
G01Y-982175D01*
G03X2451450Y-1007499I35814J0D01*
G01X2467411Y-1023460D01*
G01X1661348D01*
G01X1661304D01*
G01X1354262Y-716418D01*
G01Y-564077D01*
G03X1359362Y-538574I-61214J25503D01*
G03X1293048Y-472260I-66314J0D01*
G03X1226734Y-538574I0J-66314D01*
G03X1231834Y-564077I66314J0D01*
G01Y-741774D01*
G03X1249763Y-785059I61214J0D01*
G01X1562079Y-1097374D01*
G01X1097363Y-1562089D01*
G03X1079434Y-1605374I43285J-43285D01*
G01Y-1770371D01*
G03X1074334Y-1795874I61214J-25503D01*
G03X1079434Y-1821377I66314J0D01*
G01Y-1999074D01*
G03X1097363Y-2042359I61214J0D01*
G01X1153491Y-2098486D01*
G01X1099305D01*
G01X1000314Y-1999495D01*
G01Y-1954576D01*
G03X1031514Y-1919060I-4614J35516D01*
G01Y-1838413D01*
G03X1003234Y-1803400I-35814J0D01*
G03X1031514Y-1768387I-7534J35013D01*
G01Y-1687740D01*
G03X1013014Y-1656389I-35814J0D01*
G01Y-1620869D01*
G01X1024410Y-1609473D01*
G03X1038414Y-1575664I-33810J33810D01*
G01Y-1481050D01*
G03X1056914Y-1435100I-47814J45950D01*
G03X990600Y-1368786I-66314J0D01*
G03X924286Y-1435100I0J-66314D01*
G03X942786Y-1481050I66314J0D01*
G01Y-1555858D01*
G01X931390Y-1567254D01*
G03X917386Y-1601064I33810J-33810D01*
G01Y-1651926D01*
G01X909300D01*
G03X873486Y-1687740I0J-35814D01*
G01Y-1768387D01*
G03X901766Y-1803400I35814J0D01*
G03X873486Y-1838413I7534J-35013D01*
G01Y-1919060D01*
G03X904686Y-1954576I35814J0D01*
G01Y-2019300D01*
G03X918690Y-2053110I47814J0D01*
G01X1045690Y-2180110D01*
G03X1079500Y-2194114I33810J33810D01*
G01X1226446D01*
G03X1282700Y-2225314I56254J35114D01*
G37*
G36*
G01X1985653Y-2648387D02*
G03X2110659Y-2731108I125006J53093D01*
G03X2235653Y-2648417I0J135814D01*
G03X2360646Y-2731108I124993J53123D01*
G03X2496460Y-2595295I0J135814D01*
G03X2360646Y-2459481I-135814J0D01*
G03X2235653Y-2542172I0J-135814D01*
G03X2110659Y-2459481I-124993J-53123D01*
G03X1985653Y-2542202I0J-135814D01*
G03X1860647Y-2459481I-125006J-53093D01*
G03X1724833Y-2595295I0J-135814D01*
G03X1860647Y-2731108I135814J0D01*
G03X1985653Y-2648387I0J135814D01*
G37*
G36*
G01X2588448Y-369988D02*
G03X2699262Y-259174I0J110814D01*
G03X2588448Y-148360I-110814J0D01*
G03X2477634Y-259174I0J-110814D01*
G03X2588448Y-369988I110814J0D01*
G37*
G36*
G01X1826448Y-369988D02*
G03X1937262Y-259174I0J110814D01*
G03X1826448Y-148360I-110814J0D01*
G03X1715634Y-259174I0J-110814D01*
G03X1826448Y-369988I110814J0D01*
G37*
G36*
G01X2080448Y-369988D02*
G03X2191262Y-259174I0J110814D01*
G03X2080448Y-148360I-110814J0D01*
G03X1969634Y-259174I0J-110814D01*
G03X2080448Y-369988I110814J0D01*
G37*
G36*
G01X885448Y-369988D02*
G03X921262Y-334174I0J35814D01*
G01Y-184174D01*
G03X885448Y-148360I-35814J0D01*
G01X735448D01*
G03X699634Y-184174I0J-35814D01*
G01Y-334174D01*
G03X735448Y-369988I35814J0D01*
G01X885448D01*
G37*
G36*
G01X1572448Y-369988D02*
G03X1683262Y-259174I0J110814D01*
G03X1572448Y-148360I-110814J0D01*
G03X1461634Y-259174I0J-110814D01*
G03X1572448Y-369988I110814J0D01*
G37*
G36*
G01X1207634Y-259174D02*
G03X1318448Y-369988I110814J0D01*
G03X1429262Y-259174I0J110814D01*
G03X1318448Y-148360I-110814J0D01*
G03X1207634Y-259174I0J-110814D01*
G37*
G36*
G01X953634Y-259174D02*
G03X1064448Y-369988I110814J0D01*
G03X1175262Y-259174I0J110814D01*
G03X1064448Y-148360I-110814J0D01*
G03X953634Y-259174I0J-110814D01*
G37*
%LPD*%
G54D8191*
G01X2914186Y-2700000D02*
G03X3090934Y-2964186I285814J0D01*
G01X409066D01*
G03X585814Y-2700000I-109066J264186D01*
G03X300000Y-2414186I-285814J0D01*
G03X149728Y-2456879I0J-285814D01*
G03X152014Y-2438400I-73528J18479D01*
G03X76200Y-2362586I-75814J0D01*
G03X35814Y-2374238I0J-75814D01*
G01Y-409066D01*
G03X300000Y-585814I264186J109066D01*
G03X585814Y-300000I0J285814D01*
G03X409066Y-35814I-285814J0D01*
G01X3090934D01*
G03X2914186Y-300000I109066J-264186D01*
G03X3200000Y-585814I285814J0D01*
G03X3464186Y-409066I0J285814D01*
G01Y-2590934D01*
G03X3200000Y-2414186I-264186J-109066D01*
G03X2914186Y-2700000I0J-285814D01*
G01X1282700Y-2225314D02*
G03X1349014Y-2159000I0J66314D01*
G03X1338893Y-2123788I-66314J0D01*
G01X1926300D01*
G03X1951803Y-2128888I25503J61214D01*
G03X1977306Y-2123788I0J66314D01*
G01X2004145D01*
G03X2029648Y-2128888I25503J61214D01*
G03X2095962Y-2062574I0J66314D01*
G03X2029648Y-1996260I-66314J0D01*
G03X2004145Y-2001360I0J-66314D01*
G01X1977306D01*
G03X1951803Y-1996260I-25503J-61214D01*
G03X1926300Y-2001360I0J-66314D01*
G01X1229504D01*
G01X1201862Y-1973718D01*
G01Y-1821377D01*
G03X1206962Y-1795874I-61214J25503D01*
G03X1201862Y-1770371I-66314J0D01*
G01Y-1630730D01*
G01X1686704Y-1145888D01*
G01X2512145D01*
G03X2537648Y-1150988I25503J61214D01*
G03X2563151Y-1145888I0J66314D01*
G01X2577634D01*
G03X2603137Y-1150988I25503J61214D01*
G03X2628639Y-1145888I0J66314D01*
G01X2647008D01*
G03X2672511Y-1150988I25503J61214D01*
G03X2738701Y-1088726I0J66314D01*
G01X2762184Y-1112209D01*
G01Y-1388298D01*
G03X2772674Y-1413623I35814J0D01*
G01X2850050Y-1490998D01*
G03X2875374Y-1501488I25324J25324D01*
G01X2974220D01*
G03X2999545Y-1490998I0J35814D01*
G01X3095829Y-1394714D01*
G01X3098800D01*
G03X3134614Y-1358900I0J35814D01*
G01Y-723900D01*
G03X3124124Y-698576I-35814J0D01*
G01X2888117Y-462568D01*
G03X2829748Y-427729I-58369J-31474D01*
G03X2784837Y-445252I0J-66314D01*
G03X2740848Y-428562I-43989J-49624D01*
G03X2696182Y-445861I0J-66314D01*
G01X2676688Y-445740D01*
G03X2639248Y-434160I-37440J-54734D01*
G03X2602492Y-445279I0J-66314D01*
G01X2476997Y-444498D01*
G01X2476775Y-444497D01*
G03X2440961Y-480311I0J-35814D01*
G01Y-982175D01*
G03X2451450Y-1007499I35814J0D01*
G01X2467411Y-1023460D01*
G01X1661348D01*
G01X1661304D01*
G01X1354262Y-716418D01*
G01Y-564077D01*
G03X1359362Y-538574I-61214J25503D01*
G03X1293048Y-472260I-66314J0D01*
G03X1226734Y-538574I0J-66314D01*
G03X1231834Y-564077I66314J0D01*
G01Y-741774D01*
G03X1249763Y-785059I61214J0D01*
G01X1562079Y-1097374D01*
G01X1097363Y-1562089D01*
G03X1079434Y-1605374I43285J-43285D01*
G01Y-1770371D01*
G03X1074334Y-1795874I61214J-25503D01*
G03X1079434Y-1821377I66314J0D01*
G01Y-1999074D01*
G03X1097363Y-2042359I61214J0D01*
G01X1153491Y-2098486D01*
G01X1099305D01*
G01X1000314Y-1999495D01*
G01Y-1954576D01*
G03X1031514Y-1919060I-4614J35516D01*
G01Y-1838413D01*
G03X1003234Y-1803400I-35814J0D01*
G03X1031514Y-1768387I-7534J35013D01*
G01Y-1687740D01*
G03X1013014Y-1656389I-35814J0D01*
G01Y-1620869D01*
G01X1024410Y-1609473D01*
G03X1038414Y-1575664I-33810J33810D01*
G01Y-1481050D01*
G03X1056914Y-1435100I-47814J45950D01*
G03X990600Y-1368786I-66314J0D01*
G03X924286Y-1435100I0J-66314D01*
G03X942786Y-1481050I66314J0D01*
G01Y-1555858D01*
G01X931390Y-1567254D01*
G03X917386Y-1601064I33810J-33810D01*
G01Y-1651926D01*
G01X909300D01*
G03X873486Y-1687740I0J-35814D01*
G01Y-1768387D01*
G03X901766Y-1803400I35814J0D01*
G03X873486Y-1838413I7534J-35013D01*
G01Y-1919060D01*
G03X904686Y-1954576I35814J0D01*
G01Y-2019300D01*
G03X918690Y-2053110I47814J0D01*
G01X1045690Y-2180110D01*
G03X1079500Y-2194114I33810J33810D01*
G01X1226446D01*
G03X1282700Y-2225314I56254J35114D01*
G01X1985653Y-2648387D02*
G03X2110659Y-2731108I125006J53093D01*
G03X2235653Y-2648417I0J135814D01*
G03X2360646Y-2731108I124993J53123D01*
G03X2496460Y-2595295I0J135814D01*
G03X2360646Y-2459481I-135814J0D01*
G03X2235653Y-2542172I0J-135814D01*
G03X2110659Y-2459481I-124993J-53123D01*
G03X1985653Y-2542202I0J-135814D01*
G03X1860647Y-2459481I-125006J-53093D01*
G03X1724833Y-2595295I0J-135814D01*
G03X1860647Y-2731108I135814J0D01*
G03X1985653Y-2648387I0J135814D01*
G01X2588448Y-369988D02*
G03X2699262Y-259174I0J110814D01*
G03X2588448Y-148360I-110814J0D01*
G03X2477634Y-259174I0J-110814D01*
G03X2588448Y-369988I110814J0D01*
G01X1826448Y-369988D02*
G03X1937262Y-259174I0J110814D01*
G03X1826448Y-148360I-110814J0D01*
G03X1715634Y-259174I0J-110814D01*
G03X1826448Y-369988I110814J0D01*
G01X2080448Y-369988D02*
G03X2191262Y-259174I0J110814D01*
G03X2080448Y-148360I-110814J0D01*
G03X1969634Y-259174I0J-110814D01*
G03X2080448Y-369988I110814J0D01*
G01X885448Y-369988D02*
G03X921262Y-334174I0J35814D01*
G01Y-184174D01*
G03X885448Y-148360I-35814J0D01*
G01X735448D01*
G03X699634Y-184174I0J-35814D01*
G01Y-334174D01*
G03X735448Y-369988I35814J0D01*
G01X885448D01*
G01X1572448Y-369988D02*
G03X1683262Y-259174I0J110814D01*
G03X1572448Y-148360I-110814J0D01*
G03X1461634Y-259174I0J-110814D01*
G03X1572448Y-369988I110814J0D01*
G01X1207634Y-259174D02*
G03X1318448Y-369988I110814J0D01*
G03X1429262Y-259174I0J110814D01*
G03X1318448Y-148360I-110814J0D01*
G03X1207634Y-259174I0J-110814D01*
G01X953634Y-259174D02*
G03X1064448Y-369988I110814J0D01*
G03X1175262Y-259174I0J110814D01*
G03X1064448Y-148360I-110814J0D01*
G03X953634Y-259174I0J-110814D01*
G04 Copper End*

G04 PolygonModel Start*
G36*
G01X2476775Y-480311D02*
G01X2476775Y-982175D01*
G01X2524948Y-1030349D01*
G01X2730973D01*
G01X2797998Y-1097374D01*
G01Y-1388298D01*
G01X2875374Y-1465674D01*
G01X2974220D01*
G01X3080994Y-1358900D01*
G01X3098800D01*
G01Y-723900D01*
G01X2857500Y-482600D01*
G01X2844800D01*
G01X2476775Y-480311D01*
G37*
G04 PolygonModel End*

G04 Pad Start*
G54D10*
G01X3200000Y-2700000D03*
G01X3200000Y-300000D03*
G01X300000Y-300000D03*
G01X300000Y-2700000D03*
G54D11*
G01X76200Y-2438400D03*
G01X228600Y-2374900D03*
G01X431800Y-2374900D03*
G01X558800Y-2489200D03*
G01X622300Y-2641600D03*
G01X622300Y-2806700D03*
G01X546100Y-2921000D03*
G01X2933700Y-2914650D03*
G01X2882900Y-2762250D03*
G01X2895600Y-2571750D03*
G01X2997200Y-2444750D03*
G01X3136900Y-2368550D03*
G01X3302000Y-2368550D03*
G01X3416300Y-2444750D03*
G01X3422650Y-558800D03*
G01X3270250Y-609600D03*
G01X3079750Y-596900D03*
G01X2952750Y-495300D03*
G01X2876550Y-355600D03*
G01X2876550Y-190500D03*
G01X2952750Y-76200D03*
G01X546100Y-76200D03*
G01X609600Y-215900D03*
G01X330200Y-622300D03*
G01X177800Y-603250D03*
G01X76200Y-546100D03*
G54D12*
G01X810448Y-259174D03*
G54D13*
G01X1064448Y-259174D03*
G01X1318448Y-259174D03*
G01X1572448Y-259174D03*
G01X1826448Y-259174D03*
G01X2080448Y-259174D03*
G01X2334448Y-259174D03*
G01X2588448Y-259174D03*
G54D14*
G01X1860647Y-2595295D03*
G01X2110659Y-2595295D03*
G01X2360646Y-2595295D03*
G54D15*
G01X2610658Y-2595295D03*
G54D16*
G01X952500Y-1878736D03*
G01X952500Y-1728064D03*
G04 Pad End*

G04 Via Start*
G54D17*
G01X2537648Y-1084674D03*
G01X2603137Y-1084674D03*
G01X2672511Y-1084674D03*
G01X2740848Y-856074D03*
G01X2823897Y-856074D03*
G01X2931348Y-856074D03*
G01X3045648Y-856074D03*
G01X2740848Y-741774D03*
G01X2740848Y-633130D03*
G01X2740848Y-494876D03*
G01X2829748Y-740941D03*
G01X2829748Y-632297D03*
G01X2829748Y-494043D03*
G01X2931348Y-741774D03*
G01X2931348Y-627474D03*
G01X3048000Y-749300D03*
G01X2639248Y-500474D03*
G01X2639248Y-856074D03*
G01X2639248Y-741774D03*
G01X2639248Y-627474D03*
G01X1140648Y-1795874D03*
G01X1293048Y-538574D03*
G01X2029648Y-2062574D03*
G01X1951803Y-2062574D03*
G01X743295Y-668542D03*
G01X668208Y-1707962D03*
G01X202406Y-1886134D03*
G01X1353697Y-1705264D03*
G01X1104900Y-1371600D03*
G01X2606926Y-1516479D03*
G01X2573982Y-1573796D03*
G01X2608761Y-1633095D03*
G01X2579561Y-1692394D03*
G01X3136762Y-2136668D03*
G01X2917406Y-2144596D03*
G01X2692763Y-2149221D03*
G01X2793192Y-2079186D03*
G01X3036994Y-2073900D03*
G01X1930400Y-1206500D03*
G01X990600Y-1435100D03*
G01X1282700Y-2159000D03*
G04 Via End*

G04 Track Start*
G54D19*
G01X2672511Y-1084674D02*
G01X2603137Y-1084674D01*
G01X2537648D01*
G01X1661348D01*
G01X1140648Y-1605374D01*
G01Y-1795874D01*
G01X1293048Y-538574D02*
G01X1293048Y-741774D01*
G01X1635948Y-1084674D01*
G01X1661348D01*
G01X1140648Y-1795874D02*
G01X1140648Y-1999074D01*
G01X1204148Y-2062574D01*
G01X1951803D01*
G01X2029648D01*
G54D20*
G01X990600Y-1435100D02*
G01X990600Y-1575664D01*
G01X965200Y-1601064D01*
G01Y-1689964D01*
G01X952500Y-1878736D02*
G01X952500Y-2019300D01*
G01X1079500Y-2146300D01*
G01X1282700D01*
G01Y-2159000D01*
G04 Track End*
%SR*%

M02*
